<?xml version="1.0" encoding="UTF-8"?><svg id="a" xmlns="http://www.w3.org/2000/svg" xmlns:xlink="http://www.w3.org/1999/xlink" viewBox="0 0 505 388"><defs><clipPath id="b"><rect x="-196.51" y="-223" width="898.39" height="1162.62" fill="none"/></clipPath><clipPath id="c"><rect x="-196.51" y="-223" width="898.39" height="1162.62" fill="none"/></clipPath><clipPath id="d"><rect x="-196.51" y="-223" width="898.39" height="1162.62" fill="none"/></clipPath></defs><g clip-path="url(#b)"><g clip-path="url(#c)"><path d="M48.43,176.52c-23.35,0-42.28,18.93-42.28,42.28s18.93,42.28,42.28,42.28h408.5c23.35,0,42.28-18.93,42.28-42.28s-18.93-42.28-42.28-42.28H48.43Z" fill="#b17b2b"/><path d="M48.43,172.24c-25.67,0-46.56,20.89-46.56,46.56s20.88,46.56,46.56,46.56h408.5c25.67,0,46.56-20.89,46.56-46.56s-20.89-46.56-46.56-46.56H48.43Z" fill="none" stroke="#66659d" stroke-width="1.72"/><path d="M48.43,179.09c-21.89,0-39.71,17.81-39.71,39.71s17.81,39.71,39.71,39.71h408.5c21.89,0,39.71-17.81,39.71-39.71s-17.81-39.71-39.71-39.71H48.43Z" fill="none" stroke="#66659d" stroke-width="5.14"/><path d="M373.95,96.46c-1.28,1.72-4.23,1.59-5.78-.21-1.2-1.41-1.39-4.34.11-6.23,1.28-1.63,3.4-2.33,6.09-1.58.23.09.47.18.69.27.55.28,1.12.63,1.55,1.01,1.69,1.53,2.52,3.65,2.51,6.18,0,2.19-1.09,4.55-1.1,4.59.91-.17,2-.27,3.02-.26,2.25.01,5.52.73,7.56,1.84,4.1,2.21,6.52,5.5,6.86,9.91.15,2-.31,4.88-1.47,6.83-.57.96-1.33,1.78-2.12,2.39-1.38,1.07-3.08,1.55-5.2,1.39-3.82-.3-6.53-4.97-4.2-8.21,1.55-2.15,4.78-3.18,6.87-.43,1.63,2.16-.43,5.21-3.16,4.59v.02c.59.6,1.92.64,2.59.52,1.84-.35,3.66-1.97,3.82-4.81.08-1.41-.06-2.73-.51-3.85-1.17-2.96-5.1-6.53-10.02-6.71-7.08-.26-11.7,3-15.49,8.36-1.55,2.19-3.04,5.99-3.02,9.17.06,6.8,1.36,13.07,4.91,17.79,2.41,3.2,5.24,5.82,9.36,8.07,1.18.65,2.51,1.05,3.82,1.64.29.09.58.17.87.26-1.23-.6-2.39-1.16-3.4-1.88-3-2.15-4.78-5.41-5.24-9.06-.1-.81-.06-1.68-.01-2.55.05-.89.65-3.49,1.54-5,1.64-2.78,4.03-4.37,7.46-4.17.87.05,1.77.45,2.38.8,1.64.95,2.6,2.29,2.85,4.05.35,2.57-1.58,4.78-3.24,5.39-.47.17-1.03.22-1.59.2-5.1-.13-4.36-7.61.39-6.28v-.03c-3.94-2.52-7.38,2-6.87,6.29.67,5.72,5.99,10,13.76,10.14,7.55.13,14.06-2.64,17.89-8.84,3.12-5.05,3.72-12.36.03-15.28-1.46-1.15-4.33-1.98-5.68-.83-1.08.93-.54,2.76-2.66,2.23-.57,1.75-3.13,2.01-4.38.56-1.79-2.07.28-5.7,1.93-7.08,3-2.53,9.24-3.49,13.96-.31,2.39,1.6,3.86,3.99,4.31,6.73.24,1.46.21,2.97.11,4.66-.2,3.14-1.71,6.66-2.97,8.96-4.25,7.76-10.65,11.43-18.68,12.72-1.21.2-2.57.35-4.02.36.17.01.33.02.49.03,2.35.1,4.54.05,6.61-.28,6.22-1.01,10.88-5.18,15.25-9.34,2.31-2.2,4.85-4.61,6.53-7.77.55-1.05.75-2.41.85-3.52.04-.47.28-.98.58-1.05.28-.12.63.2.77.33h.03c.13-.98-.1-3.16.86-3.54.68-.27,1.71.32,2.15.7,1.05.92,2.08,3.15,1.62,4.9.28.02.58-.18.94.03,1.1.64-.27,2.85-.67,3.66,3.11-1.06,9.28-.43,11.56,2.54.8,1.05,1.41,3.77.02,5.22-.2.22-.4.5-.7.56-.63.07-.77-.62-1.03-.85-.42-.27-.84-.54-1.26-.82-1.72-1.05-4.5-1.97-6.7-1.98-4.26-.02-7.07,1.73-10.22,3.53-1.5.86-3.03,1.71-4.43,2.75-1.75,1.3-3.67,2.38-5.45,3.64-.19.14-.38.27-.57.41-.42.26-.85.52-1.28.77.65-.31,1.31-.62,1.96-.94l1.82-.88c2.95-1.29,5.83-2.68,8.86-3.84,1.89-.73,3.74-1.45,5.87-1.8,3.18-.52,7.51-.34,10.88,1.84,3.5,2.27,5.88,5.17,6.98,8.84.33,1.1.38,2.32.32,3.64-.03.73-.25,1.37-.18,1.98.42,3.45,2.64,7.65,7.67,7.97.85.05,1.55.11,2.24-.1,2.14-.64,2.67-3.77.69-4.92-1.53-.88-2.24,1.27-3.4.1-1.15.94-3.09-.58-2.36-2.15.55-1.17,1.72-1.7,2.75-2.08,1.37-.51,3.29-.15,4.61.83,1.98,1.47,3.41,3.24,3.2,6.02-.11,1.42-.99,2.69-1.71,3.39-2.17,2.12-6.44,2.9-10.2.74-1.94-1.12-3.47-2.63-4.54-4.28-.44-.67-.74-1.34-1.06-2.2-.4.39-.61.75-1.2,1.19-1.17.98-2.66,1.63-4.24,1.91-5.13.9-9.47-2.72-9.07-7.17.23-2.59,2.87-4.3,4.61-4.61.57-.1,1.41-.23,2.23.15.96.44,1.63,1.19,1.76,2.11.21,1.51-1.24,1.79-2.5,1.26v.03c.11.34.57.83.19,1.13-.35.27-.88,0-1.32,0-.88,0-.97.34-1.05.4.16.09.29.26.48.28.28.03.49-.31.81-.31,1.19.01,1.26,1.23,2.36,1.32,1.16.09,2.2-.51,2.83-1.32,1.22-1.57,1.32-4.19.93-5.71-.98-3.91-5.46-7.6-11.03-7.19-4.68.35-8.3,2.39-12.42,3.63-1.69.51-3.37,1.01-5.06,1.49-3.61,1.03-7.26,1.95-11.15,2.59-3.77.9-8.27,1.21-13.01-.17-.58-.13-1.19-.27-1.83-.45-.09-.03-.27-.09-.53-.17-2.07-.7-9.13-3.3-13.82-8.18-5.47-5.69-8.01-11.69-8.64-20.22-.34-4.66,1.21-10.68,3.83-14.45,1.73-2.48,3.88-4.72,6.17-6.29,1.63-1.12,3.41-1.86,4.68-3.61,1.82-2.48,2.16-5.6.45-7.52-.43-.49-1.86-1.64-2.83-1.16v.03c1.97.49,2.96,2.8,1.58,4.65" fill="#293680"/><path d="M131.42,96.46c1.28,1.72,4.23,1.59,5.78-.21,1.2-1.41,1.39-4.34-.11-6.23-1.28-1.63-3.4-2.33-6.09-1.58-.23.09-.47.18-.69.27-.55.28-1.12.63-1.55,1.01-1.69,1.53-2.52,3.65-2.51,6.18,0,2.19,1.09,4.55,1.1,4.59-.91-.17-2-.27-3.02-.26-2.25.01-5.52.73-7.56,1.84-4.1,2.21-6.52,5.5-6.86,9.91-.15,2,.31,4.88,1.47,6.83.57.96,1.33,1.78,2.12,2.39,1.38,1.07,3.08,1.55,5.2,1.39,3.82-.3,6.53-4.97,4.2-8.21-1.55-2.15-4.78-3.18-6.87-.43-1.63,2.16.43,5.21,3.16,4.59v.02c-.59.6-1.92.64-2.59.52-1.84-.35-3.66-1.97-3.82-4.81-.08-1.41.06-2.73.51-3.85,1.17-2.96,5.1-6.53,10.02-6.71,7.08-.26,11.7,3,15.49,8.36,1.55,2.19,3.04,5.99,3.02,9.17-.06,6.8-1.36,13.07-4.91,17.79-2.41,3.2-5.24,5.82-9.36,8.07-1.18.65-2.51,1.05-3.82,1.64-.29.09-.58.17-.87.26,1.23-.6,2.39-1.16,3.4-1.88,3-2.15,4.78-5.41,5.24-9.06.1-.81.06-1.68.01-2.55-.05-.89-.65-3.49-1.54-5-1.64-2.78-4.03-4.37-7.46-4.17-.87.05-1.77.45-2.38.8-1.64.95-2.6,2.29-2.85,4.05-.35,2.57,1.58,4.78,3.24,5.39.47.17,1.03.22,1.59.2,5.1-.13,4.36-7.61-.39-6.28v-.03c3.94-2.52,7.38,2,6.87,6.29-.67,5.72-5.99,10-13.76,10.14-7.55.13-14.06-2.64-17.89-8.84-3.12-5.05-3.72-12.36-.03-15.28,1.46-1.15,4.33-1.98,5.68-.83,1.08.93.54,2.76,2.66,2.23.57,1.75,3.13,2.01,4.38.56,1.79-2.07-.28-5.7-1.93-7.08-3-2.53-9.24-3.49-13.96-.31-2.39,1.6-3.86,3.99-4.31,6.73-.24,1.46-.21,2.97-.11,4.66.2,3.14,1.71,6.66,2.97,8.96,4.25,7.76,10.65,11.43,18.68,12.72,1.21.2,2.57.35,4.02.36-.17.01-.33.02-.49.03-2.35.1-4.54.05-6.61-.28-6.22-1.01-10.88-5.18-15.25-9.34-2.31-2.2-4.85-4.61-6.53-7.77-.55-1.05-.75-2.41-.85-3.52-.04-.47-.28-.98-.58-1.05-.28-.12-.63.2-.77.33h-.03c-.13-.98.1-3.16-.86-3.54-.68-.27-1.71.32-2.15.7-1.05.92-2.08,3.15-1.62,4.9-.28.02-.58-.18-.94.03-1.1.64.27,2.85.67,3.66-3.11-1.06-9.28-.43-11.56,2.54-.8,1.05-1.41,3.77-.02,5.22.2.22.4.5.7.56.63.07.77-.62,1.03-.85.42-.27.84-.54,1.26-.82,1.72-1.05,4.5-1.97,6.7-1.98,4.26-.02,7.07,1.73,10.22,3.53,1.5.86,3.03,1.71,4.43,2.75,1.75,1.3,3.67,2.38,5.45,3.64.19.14.38.27.57.41.42.26.85.52,1.28.77-.65-.31-1.3-.62-1.96-.94l-1.82-.88c-2.95-1.29-5.83-2.68-8.86-3.84-1.89-.73-3.74-1.45-5.87-1.8-3.18-.52-7.51-.34-10.88,1.84-3.5,2.27-5.88,5.17-6.98,8.84-.33,1.1-.38,2.32-.32,3.64.03.73.25,1.37.18,1.98-.42,3.45-2.64,7.65-7.67,7.97-.85.05-1.55.11-2.24-.1-2.14-.64-2.67-3.77-.69-4.92,1.53-.88,2.24,1.27,3.4.1,1.15.94,3.09-.58,2.36-2.15-.55-1.17-1.72-1.7-2.75-2.08-1.37-.51-3.29-.15-4.61.83-1.98,1.47-3.41,3.24-3.2,6.02.11,1.42.99,2.69,1.71,3.39,2.17,2.12,6.44,2.9,10.2.74,1.94-1.12,3.47-2.63,4.54-4.28.44-.67.74-1.34,1.06-2.2.4.39.61.75,1.2,1.19,1.17.98,2.66,1.63,4.24,1.91,5.13.9,9.47-2.72,9.07-7.17-.23-2.59-2.87-4.3-4.61-4.61-.57-.1-1.41-.23-2.23.15-.96.44-1.63,1.19-1.76,2.11-.21,1.51,1.24,1.79,2.5,1.26v.03c-.11.34-.57.83-.19,1.13.35.27.88,0,1.32,0,.88,0,.97.34,1.05.4-.16.09-.29.26-.48.28-.28.03-.49-.31-.81-.31-1.19.01-1.26,1.23-2.36,1.32-1.16.09-2.2-.51-2.83-1.32-1.22-1.57-1.32-4.19-.93-5.71.98-3.91,5.46-7.6,11.03-7.19,4.68.35,8.3,2.39,12.42,3.63,1.69.51,3.37,1.01,5.06,1.49,3.61,1.03,7.26,1.95,11.15,2.59,3.77.9,8.27,1.21,13.01-.17.58-.13,1.19-.27,1.83-.45.09-.03.27-.09.53-.17,2.07-.7,9.13-3.3,13.82-8.18,5.47-5.69,8.01-11.69,8.64-20.22.34-4.66-1.21-10.68-3.83-14.45-1.73-2.48-3.88-4.72-6.17-6.29-1.63-1.12-3.41-1.86-4.68-3.61-1.82-2.48-2.16-5.6-.45-7.52.43-.49,1.86-1.64,2.83-1.16v.03c-1.97.49-2.96,2.8-1.58,4.65" fill="#293680"/><path d="M366.47,97.97c-17.97-.73-44.06-11.08-67.45-20.93-6.68-2.81-13.11-5.15-19.13-6.95-8.09-2.92-17.66-4.46-27.68-4.46s-19.55,1.53-27.54,4.42c-6.12,1.83-12.6,4.19-19.27,7-5.91,2.49-11.93,4.98-17.91,7.33.03.01.06.02.08.04,1.82.88,3.25,2.19,4.31,3.76,5.1-2.04,10.28-4.19,15.52-6.39,6.53-2.75,12.86-5.05,18.82-6.83l.14-.05c7.45-2.71,16.39-4.14,25.86-4.14s18.45,1.45,26,4.18l.14.05c5.86,1.75,12.15,4.03,18.68,6.78,23.68,9.97,48.04,19.62,66.52,21.15.46-.66.96-1.3,1.54-1.89.54-.42,1.08-.83,1.61-1.25-.11-.6-.19-1.2-.23-1.81" fill="#293680"/><path d="M363.78,92.61c-19.03-1.9-47.39-13.82-62.77-20.3-6.88-2.9-13.51-5.31-19.67-7.14-8.4-3.06-18.48-4.67-29.13-4.67s-20.8,1.64-29.31,4.73c-6.01,1.78-12.57,4.17-19.49,7.08-6.18,2.61-14.3,6.02-23.01,9.32.85.27,1.7.55,2.54.86,8-3.07,15.39-6.17,21.13-8.59,6.87-2.89,13.37-5.25,19.36-7.04,8.38-3.04,18.33-4.65,28.78-4.65s20.33,1.58,28.59,4.59c6.15,1.84,12.73,4.22,19.55,7.1,15.72,6.62,44.99,18.94,64.29,20.54v-.18c-.31-.53-.61-1.07-.86-1.65" fill="#293680"/><path d="M355.33,96.51c-16.45-3.27-36.81-11.36-56.06-19.47-6.67-2.81-13.16-5.16-19.27-7-7.99-2.89-17.51-4.42-27.54-4.42s-19.59,1.54-27.68,4.46c-6.02,1.8-12.45,4.14-19.13,6.95-23.39,9.85-49.48,20.2-67.45,20.93-.04.61-.12,1.22-.23,1.82.54.42,1.07.83,1.61,1.25.59.59,1.08,1.23,1.54,1.89,18.48-1.53,42.84-11.17,66.52-21.14,6.53-2.75,12.81-5.03,18.68-6.79l.14-.05c7.55-2.74,16.54-4.18,26-4.18s18.41,1.43,25.86,4.13l.14.05c5.96,1.79,12.29,4.08,18.82,6.83,22.13,9.32,43.38,17.7,60.42,20.47-.97-1.62-1.78-3.52-2.37-5.74" fill="#293680"/><path d="M354.55,91.1c-17.94-3.91-40.03-13.21-53.29-18.79-6.93-2.92-13.48-5.3-19.49-7.08-8.51-3.09-18.67-4.73-29.31-4.73s-20.73,1.62-29.13,4.67c-6.16,1.84-12.8,4.25-19.67,7.14-15.37,6.47-43.73,18.4-62.77,20.3-.25.57-.55,1.12-.87,1.65v.18c19.31-1.59,48.58-13.92,64.3-20.54,6.82-2.87,13.4-5.26,19.55-7.1,8.27-3.01,18.14-4.59,28.59-4.59s20.4,1.61,28.78,4.65c6,1.78,12.5,4.15,19.36,7.04,13.41,5.65,35.72,15.03,54.03,18.91-.05-.57-.07-1.13-.07-1.69" fill="#293680"/><path d="M373.95,342.07c-1.28-1.72-4.23-1.59-5.78.21-1.2,1.41-1.39,4.34.11,6.23,1.28,1.63,3.4,2.33,6.09,1.58.23-.09.47-.18.69-.27.55-.28,1.12-.63,1.55-1.01,1.69-1.53,2.52-3.65,2.51-6.18,0-2.19-1.09-4.55-1.1-4.59.91.17,2,.27,3.02.26,2.25-.01,5.52-.73,7.56-1.84,4.1-2.21,6.52-5.5,6.86-9.91.15-2-.31-4.88-1.47-6.83-.57-.96-1.33-1.78-2.12-2.39-1.38-1.07-3.08-1.55-5.2-1.39-3.82.3-6.53,4.97-4.2,8.21,1.55,2.15,4.78,3.18,6.87.43,1.63-2.16-.43-5.21-3.16-4.59v-.02c.59-.6,1.92-.64,2.59-.52,1.84.35,3.66,1.97,3.82,4.81.08,1.41-.06,2.73-.51,3.85-1.17,2.96-5.1,6.53-10.02,6.71-7.08.26-11.7-3-15.49-8.36-1.55-2.19-3.04-5.99-3.02-9.17.06-6.8,1.36-13.07,4.91-17.79,2.41-3.2,5.24-5.82,9.36-8.07,1.18-.65,2.51-1.05,3.82-1.64.29-.09.58-.17.87-.26-1.23.6-2.39,1.16-3.4,1.88-3,2.15-4.78,5.41-5.24,9.06-.1.81-.06,1.68-.01,2.55.05.89.65,3.49,1.54,5,1.64,2.78,4.03,4.37,7.46,4.17.87-.05,1.77-.45,2.38-.8,1.64-.95,2.6-2.29,2.85-4.05.35-2.57-1.58-4.78-3.24-5.39-.47-.17-1.03-.22-1.59-.2-5.1.13-4.36,7.61.39,6.28v.03c-3.94,2.52-7.38-2-6.87-6.29.67-5.72,5.99-10,13.76-10.14,7.55-.13,14.06,2.64,17.89,8.84,3.12,5.05,3.72,12.36.03,15.28-1.46,1.15-4.33,1.98-5.68.83-1.08-.93-.54-2.76-2.66-2.23-.57-1.75-3.13-2.01-4.38-.56-1.79,2.07.28,5.7,1.93,7.08,3,2.53,9.24,3.49,13.96.31,2.39-1.6,3.86-3.99,4.31-6.73.24-1.46.21-2.97.11-4.66-.2-3.14-1.71-6.66-2.97-8.96-4.25-7.76-10.65-11.43-18.68-12.72-1.21-.2-2.57-.35-4.02-.36.17-.01.33-.02.49-.03,2.35-.1,4.54-.05,6.61.28,6.22,1.01,10.88,5.18,15.25,9.34,2.31,2.2,4.85,4.61,6.53,7.77.55,1.05.75,2.41.85,3.52.04.47.28.98.58,1.05.28.12.63-.2.77-.33h.03c.13.98-.1,3.16.86,3.54.68.27,1.71-.32,2.15-.7,1.05-.92,2.08-3.15,1.62-4.9.28-.02.58.18.94-.03,1.1-.64-.27-2.85-.67-3.66,3.11,1.06,9.28.43,11.56-2.54.8-1.05,1.41-3.77.02-5.22-.2-.22-.4-.5-.7-.56-.63-.07-.77.62-1.03.85-.42.27-.84.54-1.26.82-1.72,1.05-4.5,1.97-6.7,1.98-4.26.02-7.07-1.73-10.22-3.53-1.5-.86-3.03-1.71-4.43-2.75-1.75-1.3-3.67-2.38-5.45-3.64-.19-.14-.38-.27-.57-.41-.42-.26-.85-.52-1.28-.77.65.31,1.31.62,1.96.94l1.82.88c2.95,1.29,5.83,2.68,8.86,3.84,1.89.73,3.74,1.45,5.87,1.8,3.18.52,7.51.34,10.88-1.84,3.5-2.27,5.88-5.17,6.98-8.84.33-1.1.38-2.32.32-3.64-.03-.73-.25-1.37-.18-1.98.42-3.45,2.64-7.65,7.67-7.97.85-.05,1.55-.11,2.24.1,2.14.64,2.67,3.77.69,4.92-1.53.88-2.24-1.27-3.4-.1-1.15-.94-3.09.58-2.36,2.15.55,1.17,1.72,1.7,2.75,2.08,1.37.51,3.29.15,4.61-.83,1.98-1.47,3.41-3.24,3.2-6.02-.11-1.42-.99-2.69-1.71-3.39-2.17-2.12-6.44-2.9-10.2-.74-1.94,1.12-3.47,2.63-4.54,4.28-.44.67-.74,1.34-1.06,2.2-.4-.39-.61-.75-1.2-1.19-1.17-.98-2.66-1.63-4.24-1.91-5.13-.9-9.47,2.72-9.07,7.17.23,2.59,2.87,4.3,4.61,4.61.57.1,1.41.23,2.23-.15.96-.44,1.63-1.19,1.76-2.11.21-1.51-1.24-1.79-2.5-1.26v-.03c.11-.34.57-.83.19-1.13-.35-.27-.88,0-1.32,0-.88,0-.97-.34-1.05-.4.16-.09.29-.26.48-.28.28-.03.49.31.81.31,1.19-.01,1.26-1.23,2.36-1.32,1.16-.09,2.2.51,2.83,1.32,1.22,1.57,1.32,4.19.93,5.71-.98,3.91-5.46,7.6-11.03,7.19-4.68-.35-8.3-2.39-12.42-3.63-1.69-.51-3.37-1.01-5.06-1.49-3.61-1.03-7.26-1.95-11.15-2.59-3.77-.9-8.27-1.21-13.01.17-.58.13-1.19.27-1.83.45-.09.03-.27.09-.53.17-2.07.7-9.13,3.3-13.82,8.18-5.47,5.69-8.01,11.69-8.64,20.22-.34,4.66,1.21,10.68,3.83,14.45,1.73,2.48,3.88,4.72,6.17,6.29,1.63,1.12,3.41,1.86,4.68,3.61,1.82,2.48,2.16,5.6.45,7.52-.43.49-1.86,1.64-2.83,1.16v-.03c1.97-.49,2.96-2.8,1.58-4.65" fill="#293680"/><path d="M131.42,342.07c1.28-1.72,4.23-1.59,5.78.21,1.2,1.41,1.39,4.34-.11,6.23-1.28,1.63-3.4,2.33-6.09,1.58-.23-.09-.47-.18-.69-.27-.55-.28-1.12-.63-1.55-1.01-1.69-1.53-2.52-3.65-2.51-6.18,0-2.19,1.09-4.55,1.1-4.59-.91.17-2,.27-3.02.26-2.25-.01-5.52-.73-7.56-1.84-4.1-2.21-6.52-5.5-6.86-9.91-.15-2,.31-4.88,1.47-6.83.57-.96,1.33-1.78,2.12-2.39,1.38-1.07,3.08-1.55,5.2-1.39,3.82.3,6.53,4.97,4.2,8.21-1.55,2.15-4.78,3.18-6.87.43-1.63-2.16.43-5.21,3.16-4.59v-.02c-.59-.6-1.92-.64-2.59-.52-1.84.35-3.66,1.97-3.82,4.81-.08,1.41.06,2.73.51,3.85,1.17,2.96,5.1,6.53,10.02,6.71,7.08.26,11.7-3,15.49-8.36,1.55-2.19,3.04-5.99,3.02-9.17-.06-6.8-1.36-13.07-4.91-17.79-2.41-3.2-5.24-5.82-9.36-8.07-1.18-.65-2.51-1.05-3.82-1.64-.29-.09-.58-.17-.87-.26,1.23.6,2.39,1.16,3.4,1.88,3,2.15,4.78,5.41,5.24,9.06.1.81.06,1.68.01,2.55-.05.89-.65,3.49-1.54,5-1.64,2.78-4.03,4.37-7.46,4.17-.87-.05-1.77-.45-2.38-.8-1.64-.95-2.6-2.29-2.85-4.05-.35-2.57,1.58-4.78,3.24-5.39.47-.17,1.03-.22,1.59-.2,5.1.13,4.36,7.61-.39,6.28v.03c3.94,2.52,7.38-2,6.87-6.29-.67-5.72-5.99-10-13.76-10.14-7.55-.13-14.06,2.64-17.89,8.84-3.12,5.05-3.72,12.36-.03,15.28,1.46,1.15,4.33,1.98,5.68.83,1.08-.93.54-2.76,2.66-2.23.57-1.75,3.13-2.01,4.38-.56,1.79,2.07-.28,5.7-1.93,7.08-3,2.53-9.24,3.49-13.96.31-2.39-1.6-3.86-3.99-4.31-6.73-.24-1.46-.21-2.97-.11-4.66.2-3.14,1.71-6.66,2.97-8.96,4.25-7.76,10.65-11.43,18.68-12.72,1.21-.2,2.57-.35,4.02-.36-.17-.01-.33-.02-.49-.03-2.35-.1-4.54-.05-6.61.28-6.22,1.01-10.88,5.18-15.25,9.34-2.31,2.2-4.85,4.61-6.53,7.77-.55,1.05-.75,2.41-.85,3.52-.04.47-.28.98-.58,1.05-.28.12-.63-.2-.77-.33h-.03c-.13.98.1,3.16-.86,3.54-.68.27-1.71-.32-2.15-.7-1.05-.92-2.08-3.15-1.62-4.9-.28-.02-.58.18-.94-.03-1.1-.64.27-2.85.67-3.66-3.11,1.06-9.28.43-11.56-2.54-.8-1.05-1.41-3.77-.02-5.22.2-.22.4-.5.7-.56.63-.07.77.62,1.03.85.42.27.84.54,1.26.82,1.72,1.05,4.5,1.97,6.7,1.98,4.26.02,7.07-1.73,10.22-3.53,1.5-.86,3.03-1.71,4.43-2.75,1.75-1.3,3.67-2.38,5.45-3.64.19-.14.38-.27.57-.41.42-.26.85-.52,1.28-.77-.65.31-1.3.62-1.96.94l-1.82.88c-2.95,1.29-5.83,2.68-8.86,3.84-1.89.73-3.74,1.45-5.87,1.8-3.18.52-7.51.34-10.88-1.84-3.5-2.27-5.88-5.17-6.98-8.84-.33-1.1-.38-2.32-.32-3.64.03-.73.25-1.37.18-1.98-.42-3.45-2.64-7.65-7.67-7.97-.85-.05-1.55-.11-2.24.1-2.14.64-2.67,3.77-.69,4.92,1.53.88,2.24-1.27,3.4-.1,1.15-.94,3.09.58,2.36,2.15-.55,1.17-1.72,1.7-2.75,2.08-1.37.51-3.29.15-4.61-.83-1.98-1.47-3.41-3.24-3.2-6.02.11-1.42.99-2.69,1.71-3.39,2.17-2.12,6.44-2.9,10.2-.74,1.94,1.12,3.47,2.63,4.54,4.28.44.67.74,1.34,1.06,2.2.4-.39.61-.75,1.2-1.19,1.17-.98,2.66-1.63,4.24-1.91,5.13-.9,9.47,2.72,9.07,7.17-.23,2.59-2.87,4.3-4.61,4.61-.57.1-1.41.23-2.23-.15-.96-.44-1.63-1.19-1.76-2.11-.21-1.51,1.24-1.79,2.5-1.26v-.03c-.11-.34-.57-.83-.19-1.13.35-.27.88,0,1.32,0,.88,0,.97-.34,1.05-.4-.16-.09-.29-.26-.48-.28-.28-.03-.49.31-.81.31-1.19-.01-1.26-1.23-2.36-1.32-1.16-.09-2.2.51-2.83,1.32-1.22,1.57-1.32,4.19-.93,5.71.98,3.91,5.46,7.6,11.03,7.19,4.68-.35,8.3-2.39,12.42-3.63,1.69-.51,3.37-1.01,5.06-1.49,3.61-1.03,7.26-1.95,11.15-2.59,3.77-.9,8.27-1.21,13.01.17.58.13,1.19.27,1.83.45.09.03.27.09.53.17,2.07.7,9.13,3.3,13.82,8.18,5.47,5.69,8.01,11.69,8.64,20.22.34,4.66-1.21,10.68-3.83,14.45-1.73,2.48-3.88,4.72-6.17,6.29-1.63,1.12-3.41,1.86-4.68,3.61-1.82,2.48-2.16,5.6-.45,7.52.43.49,1.86,1.64,2.83,1.16v-.03c-1.97-.49-2.96-2.8-1.58-4.65" fill="#293680"/><path d="M298.86,67.99c-18.76,35.79-73.08,35.57-92.44.08-.11-.21.04-.47.28-.47l12.35.13c.31,0,.49.15.56.45,2.47,11.59,13,19.85,24.17,22.24,17.13,3.68,37.88-3.76,42.08-22.37.06-.27.23-.41.51-.41l12.27-.03c.19,0,.31.21.22.37M245.37,101.07l.7-.7c.19-.19.33-.42.41-.68.37-1.12.92-1.59,2.18-1.58,2.97,0,5.94,0,8.92-.02.3,0,.49.13.59.41l.85,2.37c.11.32,0,.48-.34.48l-13.18.05c-.3,0-.34-.11-.13-.31M262.94,105.87v.03c0,.05-.04.1-.1.1l-20.63.18c-.05,0-.1-.05-.1-.1v-.03c0-1.26,2.02-2.31,4.54-2.33l11.72-.11c2.51-.02,4.56.99,4.57,2.25M223.89,67.92l57.45-.11c.9,0,1.2.43.92,1.28-5.32,15.94-25.31,22.05-39.96,17.35-9.17-2.95-15.39-8.48-19.26-17.23-.38-.86-.1-1.29.84-1.29M224.18,63.55c1.45-9.49,6.02-16.53,12.21-23.53,7.75-8.77,12.88-16.45,15.56-28.15.05-.21.35-.21.4,0,3.04,13.16,9.33,20.85,18.29,31.06,5.2,5.92,8.47,12.77,9.84,20.57.05.25-.06.37-.32.37l-20.81-.11c-1.95.23-3.88.12-5.78-.35-.41.36-.87.4-1.35.13-.25-.15-.48-.12-.7.05-.44.34-.9.34-1.37-.02l-3.26.19-3.9-.07c-6.24.35-12.41.43-18.51.22-.25,0-.34-.14-.31-.38M303.25,64.25l-19.18-.28c-.31,0-.48-.16-.53-.46-1.1-6.85-3.49-12.87-7.2-18.04-4.03-5.63-10.09-11.27-13.62-16.84-5.39-8.53-8.74-17.93-10.07-28.19-.05-.41-.57-.58-.84-.26-.12.14-.21.34-.26.61-2.02,10.55-4.46,19.8-10.44,28.8-3.07,4.61-8.21,9.56-11.69,14.06-4.4,5.69-7.14,12.39-8.24,20.08-.04.28-.2.41-.48.41-6.18.05-12.4-.44-18.57.07-.31.03-.42.2-.34.5,4.23,14.44,18.73,25.79,32.47,30.14,2.61.83,6.32,1.59,9.49,2.44.34.1.42.3.22.6l-6.81,10.22c-.21.31.01.71.38.71h30.07c.38,0,.47-.16.25-.48l-6.88-10.35c-.11-.16-.02-.38.17-.42,18.65-3.68,33.49-12.91,41.71-30.48.3-.65.54-1.46.72-2.44.05-.27-.07-.4-.34-.4" fill="#293680"/><path d="M224.48,63.93c6.11.21,12.28.13,18.51-.22-2.87-2.8-4.11-6.02-3.74-9.68.74-7.17,6.7-11.02,9.99-16.9,1.12-2.01,2.01-4.15,2.66-6.41.07-.24.41-.24.47,0,1.45,6.47,5.71,10.62,9.77,15.53,3.92,4.74,4.57,10.98.68,16.05-.48.63-1.03.96-1.65.98-.2,0-.39.05-.58.1l-1.25.39,20.81.11c.25,0,.36-.12.31-.38-1.36-7.79-4.64-14.64-9.84-20.57-8.96-10.21-15.25-17.9-18.29-31.06-.05-.21-.35-.21-.4,0-2.68,11.69-7.82,19.37-15.56,28.15-6.18,7-10.76,14.04-12.21,23.53-.04.24.06.37.31.38" fill="#f2eae2"/><path d="M261.17,63.28c.62-.02,1.17-.35,1.66-.98,3.88-5.07,3.23-11.31-.68-16.05-4.06-4.9-8.32-9.06-9.77-15.52-.05-.25-.4-.25-.47,0-.65,2.26-1.54,4.4-2.66,6.41-3.29,5.89-9.25,9.73-9.99,16.9-.38,3.66.87,6.88,3.74,9.68l3.9.07c.47-.76.47-1.38-.01-1.87-2.58-2.64-2.37-7.96-.75-11.04,1.3-2.46,2.87-4.74,4.71-6.84.18-.19.31-.41.39-.66l.46-1.33c.11-.31.27-.34.46-.06,3.25,4.64,9.94,12.94,6.71,19.02-.94,1.78-2.55,1.75-4.83-.1l-.47,2.52c1.89.47,3.82.58,5.78.35l1.25-.39c.18-.05.37-.09.57-.1" fill="#fdb933"/><path d="M251.82,58.67c1.59-.15,2.32.6,2.22,2.23,2.28,1.85,3.88,1.88,4.83.1,3.23-6.08-3.46-14.38-6.71-19.02-.19-.28-.34-.25-.46.06l-.46,1.33c-.08.25-.21.47-.39.66-1.85,2.1-3.42,4.37-4.71,6.83-1.62,3.08-1.83,8.41.75,11.04.48.49.48,1.11.02,1.87l3.26-.19.38-3.65c.09-.77.51-1.19,1.29-1.26" fill="#f2eae2"/><path d="M251.82,58.67c-.77.07-1.2.49-1.29,1.26l-.38,3.65c.47.36.92.37,1.36.02.22-.18.46-.2.7-.05.48.27.94.23,1.35-.13l.47-2.52c.11-1.63-.63-2.38-2.22-2.23" fill="#cc3d38"/><path d="M298.64,67.61l-12.27.03c-.28,0-.44.14-.51.41-4.21,18.6-24.95,26.04-42.08,22.37-11.17-2.39-21.7-10.65-24.17-22.24-.07-.3-.25-.45-.56-.45l-12.35-.13c-.25,0-.4.25-.28.47,19.35,35.49,73.68,35.72,92.44-.08.09-.17-.03-.38-.22-.38" fill="#f2eae2"/><path d="M227.34,70.49l50.88.02c.21,0,.26.08.13.26-1.39,1.88-2.87,4.05-4.34,5.61-13.6,14.32-36.81,11.21-46.81-5.63-.1-.18-.05-.26.15-.26M242.3,86.44c14.65,4.7,34.64-1.41,39.96-17.35.28-.85-.02-1.28-.92-1.28l-57.45.11c-.94,0-1.22.44-.84,1.29,3.87,8.74,10.08,14.27,19.26,17.22" fill="#f2eae2"/><path d="M274,76.39c1.48-1.56,2.95-3.72,4.35-5.61.13-.18.08-.26-.13-.26l-50.88-.02c-.2,0-.25.08-.15.26,10,16.84,33.21,19.95,46.81,5.63" fill="#293680"/><path d="M259.02,100.85l-.85-2.37c-.1-.28-.29-.41-.59-.41-2.98.02-5.95.03-8.92.02-1.26,0-1.81.46-2.18,1.58-.08.26-.22.49-.41.68l-.7.7c-.21.21-.17.31.13.31l13.18-.05c.34,0,.46-.16.34-.48" fill="#f2eae2"/><path d="M246.65,103.72c-2.51.02-4.54,1.07-4.54,2.33v.03c0,.05.05.1.1.1l20.63-.18c.06,0,.1-.05.1-.1v-.03c0-1.27-2.05-2.28-4.57-2.25l-11.72.11Z" fill="#f2eae2"/><path d="M293.56,115.6l-83.31-.15c-.46,0-.84.37-.84.83v.89c0,.47.37.83.83.84l83.31.15c.46,0,.84-.37.84-.83v-.89c0-.47-.37-.83-.83-.84" fill="#293680"/></g><path d="M170.44,134.35c-.32-.12-.7-.17-1.14-.17h-4.32c-.56,0-.85-.19-.85-.57,0-.26.1-.56.29-.9.19-.34.46-.77.82-1.29.13-.18.24-.28.31-.28.06,0,.13.1.2.29.06.2.18.33.36.4.18.07.4.1.67.1l2.98-.02c2.22-.01,3.33,1.29,3.33,3.92,0,.65-.1,1.31-.3,1.98s-.47,1.24-.8,1.73c-.33.48-.67.8-1.01.95-.05.02-.09.02-.13,0s-.06-.06-.06-.11c.01-.05.02-.09.04-.13.23-.36.42-.82.56-1.38.14-.56.21-1.1.21-1.62,0-.92-.11-1.6-.34-2.05-.23-.45-.5-.73-.82-.85ZM166.59,140.57s-.12.03-.2-.02c-.64-.63-.96-1.38-.96-2.26,0-.59.14-1.15.43-1.68.29-.53.67-.93,1.15-1.2.12-.06.2-.09.24-.09.07,0,.11.04.11.11,0,.05-.02.13-.07.26-.16.39-.24.85-.24,1.36,0,.38.06.72.17,1.03s.28.53.51.68c.06.06.09.12.09.17,0,.02-.01.06-.04.11-.16.27-.36.57-.62.89-.25.32-.44.54-.58.65ZM174.65,129.55c.09,0,.2.05.33.15.55.47.83,1.11.83,1.93,0,.66-.18,1.29-.55,1.88s-.86.99-1.49,1.2c-.1.04-.15.04-.15,0,0-.02.02-.06.06-.11.21-.27.37-.55.48-.85s.17-.58.17-.85c0-.31-.06-.57-.18-.79s-.29-.36-.51-.42c-.07-.02-.14-.05-.19-.07-.06-.02-.08-.06-.08-.11,0-.06.05-.18.15-.35l.77-1.29c.12-.21.25-.31.39-.31ZM177.41,129.55c.11,0,.22.06.33.17.28.22.49.5.63.84.14.34.21.7.21,1.09,0,.65-.18,1.27-.55,1.86s-.86.99-1.49,1.2c-.1.04-.15.04-.15,0,0-.02.02-.06.06-.11.21-.27.37-.55.48-.85s.17-.58.17-.85c0-.31-.06-.57-.18-.79s-.29-.36-.51-.42c-.07-.02-.14-.05-.19-.07-.06-.02-.08-.06-.08-.11,0-.06.05-.18.15-.35l.77-1.29c.13-.21.26-.31.37-.31ZM181.49,139.1c-.76.12-1.34.23-1.75.33-.48.07-.84.28-1.09.62-.25.34-.49.81-.73,1.43-.02.07-.04.13-.04.17,0,.11.05.17.15.17.05,0,.12-.03.2-.09.25-.22.47-.38.67-.49.2-.1.45-.18.74-.24.29-.06.77-.13,1.44-.21,1.48-.17,2.71-.61,3.67-1.32.96-.71,1.55-1.89,1.76-3.55.05-.42.07-.74.07-.96,0-1.23-.36-2.05-1.09-2.48-.15-.09-.29-.17-.41-.25-.13-.08-.24-.21-.34-.38-.07-.11-.14-.2-.2-.27-.06-.07-.11-.1-.15-.1-.06,0-.13.07-.2.22l-.75,1.36c-.12.21-.18.4-.18.59,0,.22.07.42.22.59s.37.37.66.59c.37.27.65.52.84.75.19.23.29.52.29.86,0,.89-.36,1.55-1.09,1.97-.6-.59-1.05-1.06-1.34-1.43s-.5-.7-.62-1.01-.17-.68-.17-1.09c0-.28.02-.61.06-.97.05-.49-.03-.84-.24-1.06-.21-.21-.51-.41-.9-.58-.22-.1-.39-.18-.51-.26s-.19-.17-.23-.28c-.11-.27-.21-.4-.31-.4-.07,0-.15.07-.22.2l-.74,1.43c-.12.23-.18.43-.18.59,0,.18.06.33.19.43s.33.22.62.34c.4.18.72.38.95.6.23.21.34.55.34,1.02,0,.4.04.72.12.95.08.23.21.44.4.63.18.19.53.49,1.03.89l.55.44c-.36.07-.85.16-1.47.26Z" fill="#293680"/><path d="M196.51,130.43c.25.06.66.09,1.23.09h2.42c1.18,0,2.09.45,2.71,1.34s.94,2,.94,3.33c0,.82-.13,1.64-.38,2.46-.25.82-.61,1.56-1.07,2.23-.14.22-.32.4-.53.54-.21.14-.38.22-.51.22-.14,0-.22-.06-.24-.17-.01-.06,0-.16.03-.31.04-.15.08-.29.12-.42.36-1.34.54-2.4.54-3.18,0-.88-.16-1.55-.49-2-.32-.45-.95-.69-1.87-.7l-4.32-.04c-.66,0-.99-.3-.99-.89,0-.39.13-.85.38-1.39s.56-1.07.92-1.59c.16-.22.28-.32.37-.32.07,0,.15.12.24.35.09.26.25.42.5.48ZM208.12,131.82c.26.34.39.81.39,1.42s-.2,1.25-.59,1.86-.84.97-1.33,1.1l-.22.04c-.14,0-.22-.06-.22-.19,0-.06,0-.1.02-.13.07-.2.14-.41.21-.63s.1-.4.1-.56c0-.27-.1-.5-.3-.69l-.58-.48c-.37-.29-.65-.53-.83-.73-.18-.2-.27-.42-.27-.65,0-.2.06-.39.17-.56l.97-1.64c.1-.19.19-.28.28-.28s.21.14.37.43c.07.12.18.23.31.35.14.12.28.23.42.35.48.33.84.67,1.1,1.01ZM209.16,136.67c0,.66.17,1.29.52,1.88-.22.1-.41.36-.57.77-.17.41-.25.78-.25,1.11,0,.25.06.37.17.37.06,0,.12-.03.19-.09.35-.26.86-.39,1.53-.39.37,0,.83.04,1.36.11l.43.04c.19,0,.34-.04.44-.12.11-.08.19-.23.25-.44l.24-.71.17-.5c.2-.5.3-.85.3-1.04,0-.2-.1-.3-.3-.3-1.04,0-1.78-.17-2.22-.51-.44-.34-.66-.73-.66-1.18,0-.25.05-.45.16-.63.11-.17.21-.22.29-.15.07.06.3.21.69.46.39.25.76.49,1.12.72l.52.35c1.3.85,2.29,1.57,2.98,2.16s1.04,1.13,1.04,1.62c0,.12.02.21.06.28s.1.11.17.11c.09,0,.17-.05.26-.15.72-.85,1.08-1.62,1.08-2.31,0-.75-.48-1.47-1.45-2.16.06-.13.14-.31.26-.53.12-.22.22-.36.3-.42.45-.33.79-.69,1.02-1.08.23-.39.35-.76.35-1.1,0-.37-.14-.67-.41-.89l-1.12-.82c-.4-.27-.68-.48-.82-.62-.14-.14-.22-.28-.22-.42,0-.26-.06-.39-.19-.39-.12,0-.26.09-.43.26-.88.94-1.32,1.71-1.32,2.33,0,.46.23.84.69,1.15.16.1.35.21.56.34.22.12.39.25.53.38.14.13.21.26.21.39,0,.16-.08.38-.24.67l-1.28-.89c-3.2-2.2-4.87-3.67-5.01-4.39-.03-.13-.07-.19-.13-.19-.04,0-.12.04-.24.13-.33.27-.6.59-.81.95-.21.36-.31.73-.31,1.1,0,.65.3,1.25.91,1.79-.27.58-.48,1.1-.63,1.57-.14.47-.22.93-.22,1.37ZM220.58,132.91c-.12-.14-.18-.32-.18-.52,0-.07.03-.19.1-.36.06-.17.13-.31.18-.42l.84-1.64c.09-.19.17-.28.26-.28.1,0,.23.14.39.43.12.22.39.42.82.61.43.2.76.42.98.66.22.24.34.62.34,1.13,0,.16-.02.38-.06.66l-.11.7c.58-.46,1.05-.9,1.42-1.33s.87-1.05,1.5-1.87l.26-.37c.13-.17.23-.3.31-.37s.16-.11.25-.11c.1,0,.21.05.32.15.12.1.27.27.48.5.78.92,1.37,1.73,1.76,2.41.4.68.65,1.27.77,1.76.12.49.17,1.02.17,1.6,0,.84-.17,1.58-.52,2.23s-.8,1.15-1.37,1.5c-.57.35-1.17.53-1.8.53h-4.8c-.5,0-.86,0-1.06.02-.2.01-.37.06-.52.13-.14.07-.25.11-.3.11-.1,0-.15-.05-.15-.15,0-.07.04-.19.11-.37.35-.78.67-1.4.97-1.86s.66-.69,1.06-.69l4.52-.04c.72-.01,1.24-.07,1.56-.17.32-.1.48-.34.48-.71,0-.52-.19-1.06-.58-1.61-.39-.55-.93-1.19-1.62-1.89-.25.33-.7.79-1.35,1.37-.66.58-1.35,1.13-2.08,1.64-.73.51-1.34.85-1.83,1.03-.07.03-.15.04-.24.04-.12,0-.17-.06-.17-.17s.09-.4.26-.86c.22-.59.32-.99.32-1.19,0-.35-.09-.63-.26-.86-.17-.23-.44-.49-.8-.78-.29-.24-.49-.44-.62-.58ZM249.75,137.72c-.34.96-.8,1.75-1.39,2.37-.23.26-.68.39-1.36.39l-6.12-.04c-.2,0-.43.02-.67.06-.25.04-.39.06-.43.06-.09,0-.14-.02-.17-.05s-.04-.1-.04-.21c0-.17.06-.52.19-1.04.35-1.33.52-2.42.52-3.29,0-.59-.07-1.14-.22-1.64-.14-.5-.37-1.01-.69-1.51-.29-.48-.43-.94-.43-1.38,0-.66.3-1.27.89-1.82.09-.09.16-.1.23-.05.06.05.11.15.14.29.04.27.2.45.48.52.27.07.71.11,1.3.11h4.65c1.22,0,2.14.41,2.75,1.22s.91,1.85.91,3.1c0,.98-.17,1.95-.51,2.91ZM242.19,137.54h5.51c.22,0,.41-.16.59-.49.18-.32.27-.69.27-1.09,0-.61-.22-1.12-.65-1.53s-1.12-.63-2.05-.63h-3.89c.19.68.28,1.28.28,1.82s-.09,1.02-.28,1.49c-.04.1-.06.19-.06.26,0,.12.09.17.28.17ZM254.45,131.82c.26.34.39.81.39,1.42s-.2,1.25-.59,1.86-.84.97-1.33,1.1l-.22.04c-.14,0-.22-.06-.22-.19,0-.06,0-.1.02-.13.07-.2.14-.41.21-.63s.1-.4.1-.56c0-.27-.1-.5-.3-.69l-.58-.48c-.37-.29-.65-.53-.83-.73-.18-.2-.27-.42-.27-.65,0-.2.06-.39.17-.56l.97-1.64c.1-.19.19-.28.28-.28s.21.14.37.43c.07.12.18.23.31.35.14.12.28.23.42.35.48.33.84.67,1.1,1.01ZM259.04,131.82c.26.34.39.81.39,1.42s-.2,1.25-.59,1.86c-.4.61-.84.97-1.33,1.1l-.22.04c-.14,0-.22-.06-.22-.19,0-.06,0-.1.02-.13.07-.2.14-.41.21-.63s.1-.4.1-.56c0-.27-.1-.5-.3-.69l-.58-.48c-.37-.29-.65-.53-.83-.73-.18-.2-.27-.42-.27-.65,0-.2.06-.39.17-.56l.97-1.64c.1-.19.19-.28.28-.28s.21.14.37.43c.07.12.18.23.31.35.14.12.28.23.42.35.48.33.84.67,1.1,1.01ZM260.31,131.72c0,.39.09.76.26,1.1.65,1.25.97,2.75.97,4.47,0,.86-.07,1.76-.22,2.68-.01.07-.02.17-.02.28,0,.23.06.35.19.35.1,0,.28-.09.54-.26.59-.42,1.03-1.02,1.31-1.8.28-.79.42-1.67.42-2.65,0-.72-.06-1.43-.19-2.12h2.68c.81,0,1.38.33,1.72.98.34.66.51,1.48.51,2.48,0,.88-.09,1.74-.28,2.59l-.04.39c0,.23.06.35.19.35s.25-.06.37-.17c.53-.5.99-1.3,1.36-2.38.37-1.08.56-2.15.56-3.22,0-1.27-.29-2.31-.88-3.11-.58-.81-1.51-1.21-2.78-1.21h-3.52c-.48,0-.81-.01-1.02-.03-.2-.02-.37-.09-.52-.22-.14-.12-.26-.33-.35-.62-.03-.13-.09-.19-.17-.19-.06,0-.17.06-.32.19-.19.19-.36.48-.53.89-.17.4-.25.81-.25,1.23Z" fill="#293680"/><path d="M282.49,131.98h1.01l1.54.02c.45,0,.85-.02,1.18-.06s.66-.11.97-.22l.15-.04c.13,0,.2.07.2.22,0,.06-.02.15-.06.26-.17.48-.31.83-.4,1.05-.1.22-.24.41-.43.56-.19.15-.45.23-.78.23.12.45.18.99.18,1.6,0,.71-.08,1.43-.23,2.17-.15.74-.39,1.37-.7,1.9-.31.53-.7.86-1.15.98-.05.02-.1.03-.16,0-.06-.02-.08-.05-.08-.1,0-.04.02-.09.06-.15.27-.47.48-1.03.62-1.7.14-.67.21-1.34.21-2.01,0-.76-.09-1.38-.26-1.86-.11-.29-.28-.48-.5-.56-.22-.08-.59-.12-1.1-.12l-3.62-.02c-.56,0-.85-.18-.85-.53,0-.23.09-.51.27-.82s.46-.74.84-1.3c.13-.18.24-.28.31-.28.06,0,.13.1.2.29.05.15.14.25.29.31.14.06.37.1.69.12.32.02.85.03,1.6.03ZM290.88,134.24h-.81c-.71,0-1.22-.15-1.52-.44s-.45-.81-.45-1.54c0-.45.06-1.11.18-1.97.12-.81.18-1.4.18-1.78,0-.42-.09-.73-.27-.94-.18-.21-.43-.4-.76-.59-.18-.11-.32-.2-.4-.28-.09-.07-.13-.17-.13-.29,0-.13.05-.28.15-.44l.83-1.4c.09-.16.17-.24.24-.24.04,0,.08.03.13.1.05.07.1.16.17.27.07.15.25.33.51.55.29.26.52.52.67.79.15.27.22.66.21,1.18-.01.6-.04,1.09-.08,1.48-.04.39-.11.81-.19,1.26l-.17,1.12c-.04.31-.02.52.06.64s.16.19.25.19c.09,0,.31,0,.66,0l2.96.02c.87.01,1.52.27,1.94.76.42.5.63,1.14.63,1.92,0,.93-.19,1.74-.57,2.44-.38.69-.91,1.3-1.58,1.81-.67.51-1.52,1.03-2.54,1.54-.12.06-.24.13-.35.19-.11.07-.18.1-.22.1-.05,0-.07-.04-.07-.13,0-.11.01-.21.04-.29l.11-.48c.12-.59.23-1,.32-1.22.09-.23.24-.36.43-.4.85-.18,1.51-.45,2-.81s.82-.72,1-1.09c.18-.37.27-.71.27-1.03s-.14-.56-.41-.75c-.28-.2-.61-.29-1-.29-1.25,0-2.06,0-2.43.02ZM299.29,133.07c.21.29.32.73.32,1.31,0,.45-.1.89-.29,1.32-.2.43-.5.78-.9,1.07-.1.06-.18.09-.24.09-.12,0-.18-.05-.18-.15,0-.04,0-.06.02-.07.09-.23.13-.44.15-.63.01-.18.01-.38,0-.59-.01-.28-.11-.51-.29-.69s-.45-.36-.79-.54c-.27-.16-.47-.3-.61-.41-.13-.12-.2-.26-.2-.43,0-.13.04-.27.13-.4l.83-1.4c.09-.16.17-.24.24-.24s.18.12.31.37c.06.1.15.2.27.29.12.1.24.19.36.28.38.26.68.53.89.83ZM306.53,134.35c-.32-.12-.7-.17-1.14-.17h-4.32c-.56,0-.85-.19-.85-.57,0-.26.1-.56.29-.9.19-.34.46-.77.82-1.29.13-.18.24-.28.31-.28.06,0,.13.1.2.29.06.2.18.33.36.4.18.07.4.1.67.1l2.98-.02c2.22-.01,3.33,1.29,3.33,3.92,0,.65-.1,1.31-.3,1.98-.2.67-.47,1.24-.8,1.73-.33.48-.67.8-1.01.95-.05.02-.09.02-.13,0-.04-.02-.06-.06-.06-.11.01-.05.02-.09.04-.13.23-.36.42-.82.56-1.38.14-.56.21-1.1.21-1.62,0-.92-.11-1.6-.34-2.05-.23-.45-.5-.73-.82-.85ZM302.69,140.57s-.12.03-.2-.02c-.64-.63-.96-1.38-.96-2.26,0-.59.14-1.15.43-1.68.29-.53.67-.93,1.15-1.2.12-.06.2-.09.24-.09.07,0,.11.04.11.11,0,.05-.02.13-.07.26-.16.39-.24.85-.24,1.36,0,.38.06.72.17,1.03s.28.53.51.68c.06.06.09.12.09.17,0,.02-.01.06-.04.11-.16.27-.36.57-.62.89s-.44.54-.58.65ZM316,139.5l.33-.18c.64-.37,1.06-.7,1.26-.99s.3-.67.3-1.14l-.02-.75c-.02-.27-.04-.5-.04-.68-.01-.4-.14-.72-.4-.94s-.6-.44-1.06-.66c-.32-.16-.55-.29-.7-.4-.15-.11-.22-.25-.22-.42,0-.12.04-.25.13-.39l.83-1.4c.09-.16.17-.24.24-.24s.18.12.31.37c.06.11.15.21.26.29.11.08.26.18.46.3.44.26.79.53,1.05.83s.39.72.4,1.29l.06,1.27c.04.53.06,1.02.06,1.47,0,.7-.09,1.3-.26,1.8-.17.49-.39.89-.64,1.19-.26.3-.52.53-.8.69-.28.16-.63.34-1.08.53-.47.18-.84.36-1.12.54-.28.18-.53.43-.74.74-.13.17-.25.26-.33.26s-.13-.07-.13-.22c.02-.43.1-.88.22-1.36.12-.48.26-.81.42-.99.11-.12.28-.25.51-.4.23-.14.46-.27.69-.4ZM320.91,129.55c.09,0,.2.05.33.15.55.47.83,1.11.83,1.93,0,.66-.18,1.29-.55,1.88s-.86.99-1.49,1.2c-.1.04-.15.04-.15,0,0-.02.02-.06.06-.11.21-.27.37-.55.48-.85.11-.29.17-.58.17-.85,0-.31-.06-.57-.18-.79s-.29-.36-.51-.42c-.07-.02-.14-.05-.19-.07-.06-.02-.08-.06-.08-.11,0-.06.05-.18.15-.35l.77-1.29c.12-.21.25-.31.39-.31ZM323.67,129.55c.11,0,.22.06.33.17.28.22.49.5.63.84.14.34.21.7.21,1.09,0,.65-.18,1.27-.55,1.86s-.86.99-1.49,1.2c-.1.04-.15.04-.15,0,0-.02.02-.06.06-.11.21-.27.37-.55.48-.85s.17-.58.17-.85c0-.31-.06-.57-.18-.79-.12-.22-.29-.36-.51-.42-.07-.02-.14-.05-.19-.07-.06-.02-.08-.06-.08-.11,0-.06.05-.18.15-.35l.77-1.29c.13-.21.26-.31.37-.31ZM327.75,139.1c-.76.12-1.34.23-1.75.33-.48.07-.84.28-1.09.62-.25.34-.49.81-.73,1.43-.02.07-.04.13-.04.17,0,.11.05.17.15.17.05,0,.12-.03.2-.09.25-.22.47-.38.67-.49.2-.1.45-.18.74-.24.29-.06.77-.13,1.44-.21,1.48-.17,2.71-.61,3.67-1.32.96-.71,1.55-1.89,1.76-3.55.05-.42.07-.74.07-.96,0-1.23-.36-2.05-1.09-2.48-.15-.09-.29-.17-.41-.25-.13-.08-.24-.21-.34-.38-.07-.11-.14-.2-.2-.27-.06-.07-.11-.1-.15-.1-.06,0-.13.07-.2.22l-.75,1.36c-.12.21-.18.4-.18.59,0,.22.07.42.22.59s.37.37.66.59c.37.27.65.52.84.75.19.23.29.52.29.86,0,.89-.36,1.55-1.09,1.97-.6-.59-1.05-1.06-1.34-1.43s-.5-.7-.62-1.01-.17-.68-.17-1.09c0-.28.02-.61.06-.97.05-.49-.03-.84-.24-1.06-.21-.21-.51-.41-.9-.58-.22-.1-.39-.18-.51-.26s-.19-.17-.23-.28c-.11-.27-.21-.4-.31-.4-.07,0-.15.07-.22.2l-.74,1.43c-.12.23-.18.43-.18.59,0,.18.06.33.19.43s.33.22.62.34c.4.18.72.38.95.6.23.21.34.55.34,1.02,0,.4.04.72.12.95.08.23.21.44.4.63.18.19.53.49,1.03.89l.55.44c-.36.07-.85.16-1.47.26ZM336.2,134.24h-.81c-.71,0-1.22-.15-1.52-.44s-.45-.81-.45-1.54c0-.45.06-1.11.18-1.97.12-.81.18-1.4.18-1.78,0-.42-.09-.73-.27-.94-.18-.21-.43-.4-.76-.59-.18-.11-.32-.2-.4-.28-.09-.07-.13-.17-.13-.29,0-.13.05-.28.15-.44l.83-1.4c.09-.16.17-.24.24-.24.04,0,.08.03.13.1.05.07.1.16.17.27.07.15.25.33.51.55.29.26.52.52.67.79.15.27.22.66.21,1.18-.01.6-.04,1.09-.08,1.48-.04.39-.11.81-.19,1.26l-.17,1.12c-.04.31-.02.52.06.64s.16.19.25.19c.09,0,.31,0,.66,0l2.96.02c.87.01,1.52.27,1.94.76.42.5.63,1.14.63,1.92,0,.93-.19,1.74-.57,2.44-.38.69-.91,1.3-1.58,1.81-.67.51-1.52,1.03-2.54,1.54-.12.06-.24.13-.35.19-.11.07-.18.1-.22.1-.05,0-.07-.04-.07-.13,0-.11.01-.21.04-.29l.11-.48c.12-.59.23-1,.32-1.22.09-.23.24-.36.43-.4.85-.18,1.51-.45,2-.81s.82-.72,1-1.09c.18-.37.27-.71.27-1.03s-.14-.56-.41-.75c-.28-.2-.61-.29-1-.29-1.25,0-2.06,0-2.43.02Z" fill="#293680"/><path d="M155.9,150.59c.22.26.34.65.37,1.17.02.66.04,1.13.04,1.42,0,1.37-.11,2.46-.32,3.26-.21.8-.55,1.33-1.02,1.59-.1.06-.17.09-.22.09s-.07-.04-.07-.13c.01-.06.02-.12.02-.18.15-.87.22-1.7.22-2.48,0-.47-.02-1.03-.07-1.69-.02-.22-.04-.37-.04-.46-.01-.47-.13-.81-.37-1.04s-.55-.43-.96-.62c-.23-.11-.4-.21-.51-.29-.11-.08-.17-.19-.17-.32,0-.1.05-.23.15-.4l.83-1.4c.09-.16.17-.24.24-.24s.18.12.31.37c.06.1.15.2.28.29.12.1.25.19.39.28.39.26.7.52.92.78ZM157.85,147.12c.09,0,.2.05.33.15.55.47.83,1.11.83,1.93,0,.66-.18,1.29-.55,1.88s-.86.99-1.49,1.2c-.1.04-.15.04-.15,0,0-.02.02-.06.06-.11.21-.27.37-.55.48-.85s.17-.58.17-.85c0-.31-.06-.57-.18-.79s-.29-.36-.51-.42c-.07-.02-.14-.05-.19-.07-.06-.02-.08-.06-.08-.11,0-.06.05-.18.15-.35l.77-1.29c.12-.21.25-.31.39-.31ZM160.61,147.12c.11,0,.22.06.33.17.28.22.49.5.63.84.14.34.21.7.21,1.09,0,.65-.18,1.27-.55,1.86s-.86.99-1.49,1.2c-.1.04-.15.04-.15,0,0-.02.02-.06.06-.11.21-.27.37-.55.48-.85s.17-.58.17-.85c0-.31-.06-.57-.18-.79s-.29-.36-.51-.42c-.07-.02-.14-.05-.19-.07-.06-.02-.08-.06-.08-.11,0-.06.05-.18.15-.35l.77-1.29c.13-.21.26-.31.37-.31ZM164.92,150.63c.21.29.32.73.32,1.31,0,.45-.1.89-.29,1.32s-.5.78-.9,1.07c-.1.06-.18.09-.24.09-.12,0-.18-.05-.18-.15,0-.04,0-.06.02-.07.09-.23.13-.44.15-.63.01-.18.01-.38,0-.59-.01-.28-.11-.51-.29-.69s-.45-.36-.79-.54c-.27-.16-.47-.3-.61-.41-.13-.12-.2-.26-.2-.43,0-.13.04-.27.13-.4l.83-1.4c.09-.16.17-.24.24-.24s.18.12.31.37c.06.1.15.2.27.29.12.1.24.19.36.28.38.26.68.53.89.83ZM172.16,151.91c-.32-.12-.7-.17-1.14-.17h-4.32c-.56,0-.85-.19-.85-.57,0-.26.1-.56.29-.9.19-.34.46-.77.82-1.29.13-.18.24-.28.31-.28.06,0,.13.1.2.29.06.2.18.33.36.4.18.07.4.1.67.1l2.98-.02c2.22-.01,3.33,1.29,3.33,3.92,0,.65-.1,1.31-.3,1.98s-.47,1.24-.8,1.73c-.33.48-.67.8-1.01.95-.05.02-.09.02-.13,0s-.06-.06-.06-.11c.01-.05.02-.09.04-.13.23-.36.42-.82.56-1.38.14-.56.21-1.1.21-1.62,0-.92-.11-1.6-.34-2.05-.23-.45-.5-.73-.82-.85ZM168.31,158.13s-.12.03-.2-.02c-.64-.63-.96-1.38-.96-2.26,0-.59.14-1.15.43-1.68.29-.53.67-.93,1.15-1.2.12-.06.2-.09.24-.09.07,0,.11.04.11.11,0,.05-.02.13-.07.26-.16.39-.24.85-.24,1.36,0,.38.06.72.17,1.03s.28.53.51.68c.06.06.09.12.09.17,0,.02-.01.06-.04.11-.16.27-.36.57-.62.89-.25.32-.44.54-.58.65ZM184.19,151.81h-.81c-.71,0-1.22-.15-1.52-.44s-.45-.81-.45-1.54c0-.45.06-1.11.18-1.97.12-.81.18-1.4.18-1.78,0-.42-.09-.73-.27-.94-.18-.21-.43-.4-.76-.59-.18-.11-.32-.2-.4-.28-.09-.07-.13-.17-.13-.29,0-.13.05-.28.15-.44l.83-1.4c.09-.16.17-.24.24-.24.04,0,.08.03.13.1.05.07.1.16.17.27.07.15.25.33.51.55.29.26.52.52.67.79.15.27.22.66.21,1.18-.01.6-.04,1.09-.08,1.48-.04.39-.11.81-.19,1.26l-.17,1.12c-.04.31-.02.52.06.64s.16.19.25.19c.09,0,.31,0,.66,0l2.96.02c.87.01,1.52.27,1.94.76.42.5.63,1.14.63,1.92,0,.93-.19,1.74-.57,2.44-.38.69-.91,1.3-1.58,1.81-.67.51-1.52,1.03-2.54,1.54-.12.06-.24.13-.35.19-.11.07-.18.1-.22.1-.05,0-.07-.04-.07-.13,0-.11.01-.21.04-.29l.11-.48c.12-.59.23-1,.32-1.22.09-.23.24-.36.43-.4.85-.18,1.51-.45,2-.81s.82-.72,1-1.09c.18-.37.27-.71.27-1.03s-.14-.56-.41-.75c-.28-.2-.61-.29-1-.29-1.25,0-2.06,0-2.43.02ZM190.28,157.3c-.19.28-.31.55-.36.82-.01.07,0,.13,0,.17.02.04.05.06.08.06.02,0,.04,0,.06-.02.36-.26.86-.39,1.53-.39.13,0,.34.01.61.04l.42.06c.21.04.36.06.46.06.09,0,.15-.02.2-.06.05-.04.09-.11.13-.21l.2-.55c.17-.49.26-.79.26-.9,0-.1-.04-.15-.13-.15-.38,0-.81-.1-1.28-.31s-.77-.57-.89-1.09c-.02-.07-.04-.18-.04-.33,0-.25.05-.48.16-.71.1-.23.23-.4.37-.51.14-.11.26-.13.36-.06.2.16.51.39.94.68,1.24.87,2.26,1.65,3.05,2.33.8.68,1.2,1.27,1.21,1.77,0,.12.03.18.09.18.02,0,.06-.02.11-.07.49-.64.74-1.2.74-1.69,0-.34-.12-.69-.36-1.03-.24-.34-.62-.7-1.13-1.09l.31-.63c.1-.2.17-.32.21-.37.04-.05.09-.09.16-.13.31-.18.55-.42.74-.7.19-.28.29-.55.29-.81,0-.2-.05-.35-.15-.46-.15-.2-.45-.5-.92-.9-.31-.26-.53-.47-.68-.63s-.22-.32-.22-.45c0-.02.01-.07.04-.15.04-.07.04-.13.02-.17-.02-.04-.07-.06-.13-.06-.09,0-.15.02-.2.07-.28.22-.57.56-.86,1.02-.29.46-.44.82-.44,1.08,0,.13.06.27.19.4.13.13.3.27.52.43.25.2.43.36.54.48s.17.25.17.39c0,.36-.09.71-.28,1.07-.13-.11-.44-.34-.92-.68-1.19-.88-2.15-1.65-2.88-2.31-.73-.66-1.14-1.23-1.22-1.72-.01-.05-.02-.1-.03-.15,0-.05-.03-.07-.06-.07-.02,0-.08.03-.17.09-.23.2-.44.46-.63.79-.18.33-.28.64-.28.92,0,.22.06.44.18.65s.27.43.45.63.27.32.27.35c0,.09-.02.19-.07.3-.05.12-.1.24-.17.36-.18.34-.33.68-.45,1.02-.12.34-.17.77-.17,1.3,0,.33.03.62.1.87.07.25.2.5.4.74-.12,0-.28.14-.47.41h0ZM202.43,150.59c.22.26.34.65.37,1.17.02.66.04,1.13.04,1.42,0,1.37-.11,2.46-.32,3.26-.21.8-.55,1.33-1.02,1.59-.1.06-.17.09-.22.09s-.07-.04-.07-.13c.01-.06.02-.12.02-.18.15-.87.22-1.7.22-2.48,0-.47-.02-1.03-.07-1.69-.02-.22-.04-.37-.04-.46-.01-.47-.13-.81-.37-1.04s-.55-.43-.96-.62c-.23-.11-.4-.21-.51-.29-.11-.08-.17-.19-.17-.32,0-.1.05-.23.15-.4l.83-1.4c.09-.16.17-.24.24-.24s.18.12.31.37c.06.1.15.2.28.29.12.1.25.19.39.28.39.26.7.52.92.78ZM203.7,151.34c-.11-.12-.17-.26-.17-.43,0-.13.04-.27.13-.4l.83-1.4c.09-.16.17-.24.24-.24s.18.12.31.37c.09.16.26.33.53.51.32.25.56.5.74.76.17.26.26.68.26,1.24s-.1,1.03-.29,1.47l.11-.11s.57-.69,1.71-2.11l1.31-1.6c.17-.16.3-.24.39-.24.06,0,.13.03.2.1.07.07.16.16.26.29.67.8,1.19,1.48,1.54,2.06.35.58.58,1.08.69,1.51s.17.88.17,1.34c0,.71-.15,1.34-.44,1.89s-.68.98-1.17,1.28c-.48.3-1,.45-1.54.45h-3.84c-.43,0-.73,0-.9.02s-.32.05-.44.11-.21.09-.26.09c-.09,0-.13-.04-.13-.13,0-.06.03-.17.09-.31.2-.43.43-.8.7-1.12s.53-.48.79-.48l3.84-.06c.44-.01.78-.03,1.02-.06s.44-.11.6-.25.24-.35.24-.64c0-.48-.18-1.08-.53-1.81s-.78-1.36-1.27-1.9l-.66.85c-.7.88-1.38,1.61-2.03,2.19-.66.58-1.24.96-1.74,1.14-.06.02-.13.04-.2.04-.1,0-.15-.05-.15-.15,0-.09.06-.32.17-.72.22-.77.33-1.36.33-1.77,0-.33-.08-.59-.24-.78-.16-.19-.39-.38-.68-.58-.22-.16-.39-.3-.5-.41ZM215.64,156.42c.86-.02,2.24-.25,4.14-.66,1.21-.27,2.07-.6,2.57-.99.5-.39.76-.96.77-1.71.01-.28-.1-.5-.33-.64-.23-.15-.56-.29-.99-.42-.28-.1-.49-.18-.63-.26-.13-.07-.2-.17-.2-.28l.04-.15.85-1.66c.17-.33.32-.5.44-.5.09,0,.15.06.2.17.13.22.28.39.43.51.15.12.36.25.63.41.25.12.44.24.57.36.13.12.25.29.33.51s.13.52.13.9c0,1.41-.36,2.52-1.07,3.33-.55.63-1.26,1.11-2.11,1.44s-1.99.68-3.4,1.02c-.91.23-1.62.43-2.14.58-.52.15-1.01.34-1.48.56-.09.04-.16.06-.22.06-.12,0-.18-.06-.18-.17,0-.09.04-.2.11-.33.2-.31.29-.77.29-1.4,0-.98-.28-2.3-.83-3.95-.16-.47-.24-.93-.24-1.38,0-.65.15-1.22.46-1.7.31-.48.7-.82,1.18-1,.06-.01.11,0,.16.02.04.02.06.07.06.13,0,.02,0,.06-.02.09-.11.34-.17.68-.17,1.01,0,.36.04.71.13,1.07.09.36.21.78.39,1.27.16.47.27.83.34,1.09s.1.52.1.78c0,.34-.08.66-.24.94.36-.13.73-.34,1.13-.63.4-.28.74-.62,1.02-1.02.28-.4.42-.82.42-1.28,0-.16-.06-.29-.19-.39s-.32-.2-.56-.29c-.23-.1-.41-.19-.52-.28s-.17-.2-.17-.35.06-.3.17-.46l.9-1.38c.11-.16.19-.24.24-.24.04,0,.08.03.14.09.06.06.11.14.17.24.06.11.15.2.27.28.12.07.27.16.45.26.34.16.6.33.78.52.18.19.27.48.27.87,0,1.08-.42,2.01-1.25,2.79-.83.78-1.94,1.52-3.33,2.22ZM231.61,157.3c-.19.28-.31.55-.36.82-.01.07,0,.13,0,.17.02.04.05.06.08.06.02,0,.04,0,.06-.02.36-.26.86-.39,1.53-.39.13,0,.34.01.61.04l.42.06c.21.04.36.06.46.06.09,0,.15-.02.2-.06.05-.04.09-.11.13-.21l.2-.55c.17-.49.26-.79.26-.9,0-.1-.04-.15-.13-.15-.38,0-.81-.1-1.28-.31-.47-.21-.77-.57-.89-1.09-.02-.07-.04-.18-.04-.33,0-.25.05-.48.16-.71.1-.23.23-.4.37-.51.14-.11.26-.13.36-.06.2.16.51.39.94.68,1.24.87,2.26,1.65,3.05,2.33.8.68,1.2,1.27,1.21,1.77,0,.12.03.18.09.18.02,0,.06-.02.11-.07.49-.64.74-1.2.74-1.69,0-.34-.12-.69-.36-1.03-.24-.34-.62-.7-1.13-1.09l.31-.63c.1-.2.17-.32.21-.37.04-.05.1-.09.16-.13.31-.18.55-.42.74-.7.19-.28.29-.55.29-.81,0-.2-.05-.35-.15-.46-.15-.2-.45-.5-.92-.9-.31-.26-.53-.47-.68-.63s-.22-.32-.22-.45c0-.02.01-.07.04-.15.04-.07.04-.13.02-.17-.02-.04-.07-.06-.13-.06-.09,0-.15.02-.2.07-.28.22-.57.56-.86,1.02-.29.46-.44.82-.44,1.08,0,.13.06.27.19.4.13.13.3.27.52.43.25.2.43.36.54.48.12.12.17.25.17.39,0,.36-.09.71-.28,1.07-.13-.11-.44-.34-.92-.68-1.19-.88-2.15-1.65-2.88-2.31-.73-.66-1.14-1.23-1.22-1.72-.01-.05-.02-.1-.03-.15,0-.05-.03-.07-.06-.07-.02,0-.08.03-.17.09-.23.2-.44.46-.63.79-.18.33-.28.64-.28.92,0,.22.06.44.18.65s.27.43.45.63c.18.21.27.32.27.35,0,.09-.02.19-.07.3-.05.12-.1.24-.17.36-.18.34-.33.68-.45,1.02s-.17.77-.17,1.3c0,.33.03.62.1.87.07.25.2.5.4.74-.12,0-.28.14-.47.41ZM244.64,152.93l-.07-1.18c-.02-.52-.14-.91-.34-1.18-.2-.27-.48-.53-.82-.77-.32-.22-.52-.41-.61-.57-.13-.25-.24-.37-.31-.37s-.15.08-.24.24l-.83,1.4c-.1.17-.15.31-.15.4,0,.13.06.25.17.34s.29.19.51.29c.4.2.72.4.95.63.23.22.35.56.38,1.01.02.37.04.65.04.85,0,.64-.08,1.15-.23,1.54-.15.39-.44.58-.86.58h-.97c-.22,0-.39.09-.51.28-.12.18-.28.5-.48.96l-.28.61c-.05.1-.07.18-.07.26,0,.06.03.09.09.09.05,0,.09,0,.14-.03s.08-.03.12-.05c.18-.05.41-.09.69-.11.28-.02.67-.05,1.19-.07.27-.01.48-.07.62-.18.14-.11.26-.29.36-.52s.23-.65.4-1.22l.37,1.77v.19c0,.07.02.1.06.1.06,0,.13-.04.22-.11.22-.16.38-.43.47-.8.09-.37.14-.87.14-1.5s-.04-1.59-.13-2.85ZM247.55,149.49c.21.05.56.07,1.05.07h2.06c1.01,0,1.77.39,2.31,1.18s.8,1.76.8,2.92c0,.7-.1,1.4-.3,2.1-.2.7-.49,1.31-.87,1.84-.22.31-.38.46-.48.46-.07,0-.11-.07-.11-.22,0-.1.03-.28.09-.55.23-.87.35-1.67.35-2.39,0-.91-.19-1.65-.57-2.22-.38-.57-.99-.86-1.84-.87l-3.68-.04c-.56,0-.85-.19-.85-.57,0-.23.09-.51.28-.84.18-.32.46-.76.83-1.3.13-.18.24-.28.31-.28.06,0,.13.1.2.29.07.22.21.36.42.4ZM256.96,156.42c.86-.02,2.24-.25,4.14-.66,1.21-.27,2.07-.6,2.57-.99.5-.39.76-.96.77-1.71.01-.28-.1-.5-.33-.64-.23-.15-.56-.29-.99-.42-.28-.1-.49-.18-.63-.26-.13-.07-.2-.17-.2-.28l.04-.15.85-1.66c.17-.33.32-.5.44-.5.09,0,.15.06.2.17.13.22.28.39.43.51.15.12.36.25.63.41.25.12.44.24.57.36.13.12.25.29.33.51s.13.52.13.9c0,1.41-.36,2.52-1.07,3.33-.55.63-1.26,1.11-2.11,1.44s-1.99.68-3.4,1.02c-.91.23-1.62.43-2.14.58-.52.15-1.01.34-1.48.56-.09.04-.16.06-.22.06-.12,0-.18-.06-.18-.17,0-.09.04-.2.11-.33.2-.31.29-.77.29-1.4,0-.98-.28-2.3-.83-3.95-.16-.47-.24-.93-.24-1.38,0-.65.15-1.22.46-1.7.31-.48.7-.82,1.18-1,.06-.01.11,0,.16.02.04.02.06.07.06.13,0,.02,0,.06-.02.09-.11.34-.17.68-.17,1.01,0,.36.04.71.13,1.07.09.36.21.78.39,1.27.16.47.27.83.34,1.09s.1.52.1.78c0,.34-.08.66-.24.94.36-.13.73-.34,1.13-.63.4-.28.74-.62,1.02-1.02.28-.4.42-.82.42-1.28,0-.16-.06-.29-.19-.39s-.32-.2-.56-.29c-.23-.1-.41-.19-.52-.28s-.17-.2-.17-.35.06-.3.17-.46l.9-1.38c.11-.16.19-.24.24-.24.04,0,.08.03.14.09.06.06.11.14.17.24.06.11.15.2.27.28.12.07.27.16.45.26.34.16.6.33.78.52.18.19.27.48.27.87,0,1.08-.42,2.01-1.25,2.79-.83.78-1.94,1.52-3.33,2.22ZM273.5,147.12c.09,0,.2.05.33.15.55.47.83,1.11.83,1.93,0,.66-.18,1.29-.55,1.88s-.86.99-1.49,1.2c-.1.04-.15.04-.15,0,0-.02.02-.06.06-.11.21-.27.37-.55.48-.85.11-.29.17-.58.17-.85,0-.31-.06-.57-.18-.79s-.29-.36-.51-.42c-.07-.02-.14-.05-.19-.07-.06-.02-.08-.06-.08-.11,0-.06.05-.18.15-.35l.77-1.29c.12-.21.25-.31.39-.31ZM277.08,149.49c.21.05.56.07,1.05.07h2.06c1.01,0,1.77.39,2.31,1.18s.8,1.76.8,2.92c0,.7-.1,1.4-.3,2.1-.2.7-.49,1.31-.87,1.84-.22.31-.38.46-.48.46-.07,0-.11-.07-.11-.22,0-.1.03-.28.09-.55.23-.87.35-1.67.35-2.39,0-.91-.19-1.65-.57-2.22-.38-.57-.99-.86-1.84-.87l-3.68-.04c-.56,0-.85-.19-.85-.57,0-.23.09-.51.28-.84.18-.32.46-.76.83-1.3.13-.18.24-.28.31-.28.06,0,.13.1.2.29.07.22.21.36.42.4ZM290.34,157.3c-.19.28-.31.55-.36.82-.01.07,0,.13,0,.17.02.04.05.06.08.06.02,0,.04,0,.06-.02.36-.26.86-.39,1.53-.39.13,0,.34.01.61.04l.42.06c.21.04.36.06.46.06.09,0,.15-.02.2-.06.05-.04.09-.11.13-.21l.2-.55c.17-.49.26-.79.26-.9,0-.1-.04-.15-.13-.15-.38,0-.81-.1-1.28-.31-.47-.21-.77-.57-.89-1.09-.02-.07-.04-.18-.04-.33,0-.25.05-.48.16-.71.1-.23.23-.4.37-.51.14-.11.26-.13.36-.06.2.16.51.39.94.68,1.24.87,2.26,1.65,3.05,2.33.8.68,1.2,1.27,1.21,1.77,0,.12.03.18.09.18.02,0,.06-.02.11-.07.49-.64.74-1.2.74-1.69,0-.34-.12-.69-.36-1.03-.24-.34-.62-.7-1.13-1.09l.31-.63c.1-.2.17-.32.21-.37.04-.05.1-.09.16-.13.31-.18.55-.42.74-.7.19-.28.29-.55.29-.81,0-.2-.05-.35-.15-.46-.15-.2-.45-.5-.92-.9-.31-.26-.53-.47-.68-.63s-.22-.32-.22-.45c0-.02.01-.07.04-.15.04-.07.04-.13.02-.17-.02-.04-.07-.06-.13-.06-.09,0-.15.02-.2.07-.28.22-.57.56-.86,1.02-.29.46-.44.82-.44,1.08,0,.13.06.27.19.4.13.13.3.27.52.43.25.2.43.36.54.48.12.12.17.25.17.39,0,.36-.09.71-.28,1.07-.13-.11-.44-.34-.92-.68-1.19-.88-2.15-1.65-2.88-2.31-.73-.66-1.14-1.23-1.22-1.72-.01-.05-.02-.1-.03-.15,0-.05-.03-.07-.06-.07-.02,0-.08.03-.17.09-.23.2-.44.46-.63.79-.18.33-.28.64-.28.92,0,.22.06.44.18.65s.27.43.45.63c.18.21.27.32.27.35,0,.09-.02.19-.07.3-.05.12-.1.24-.17.36-.18.34-.33.68-.45,1.02s-.17.77-.17,1.3c0,.33.03.62.1.87.07.25.2.5.4.74-.12,0-.28.14-.47.41ZM300.5,147.12c.09,0,.2.05.33.15.55.47.83,1.11.83,1.93,0,.66-.18,1.29-.55,1.88s-.86.99-1.49,1.2c-.1.04-.15.04-.15,0,0-.02.02-.06.06-.11.21-.27.37-.55.48-.85.11-.29.17-.58.17-.85,0-.31-.06-.57-.18-.79s-.29-.36-.51-.42c-.07-.02-.14-.05-.19-.07-.06-.02-.08-.06-.08-.11,0-.06.05-.18.15-.35l.77-1.29c.12-.21.25-.31.39-.31ZM303.26,147.12c.11,0,.22.06.33.17.28.22.49.5.63.84.14.34.21.7.21,1.09,0,.65-.18,1.27-.55,1.86s-.86.99-1.49,1.2c-.1.04-.15.04-.15,0,0-.02.02-.06.06-.11.21-.27.37-.55.48-.85s.17-.58.17-.85c0-.31-.06-.57-.18-.79-.12-.22-.29-.36-.51-.42-.07-.02-.14-.05-.19-.07-.06-.02-.08-.06-.08-.11,0-.06.05-.18.15-.35l.77-1.29c.13-.21.26-.31.37-.31ZM306.84,148.98l-.02.13c-.13.39-.2.8-.2,1.23,0,.32.03.63.08.92.06.29.14.7.27,1.21.12.48.21.88.28,1.2s.09.65.09.98c0,.56-.11,1.1-.33,1.62.97-.17,1.8-.37,2.49-.59s1.3-.59,1.82-1.11c.52-.52.75-1.22.69-2.11-.02-.23-.1-.42-.22-.57-.12-.15-.29-.23-.51-.24l-1.75-.04c-.44-.02-.66-.18-.66-.48,0-.13.03-.26.09-.39.12-.29.33-.7.62-1.23.29-.53.49-.79.62-.79.07,0,.13.07.17.21.04.14.08.24.1.29.05.1.13.17.24.2s.26.06.44.06c.58,0,.94,0,1.1.03.16.02.35.15.56.4.21.25.35.67.4,1.29.1,1.37-.17,2.68-.82,3.92s-1.82,2.11-3.54,2.61c-1.58.45-2.62.68-3.11.68-.27,0-.36-.07-.28-.22.21-.34.31-.82.31-1.42,0-.5-.06-1.08-.19-1.72-.13-.64-.35-1.64-.65-2.99-.06-.27-.09-.53-.09-.79,0-.53.14-1.01.43-1.44.29-.44.76-.76,1.43-.98.1-.04.15,0,.15.13ZM313.92,150.34c0,.36.1.75.31,1.2.51,1.03.77,2.3.77,3.81,0,.81-.07,1.74-.22,2.8-.01.05,0,.09.02.11.02.02.06.04.09.04l.06-.02c.5-.15.88-.67,1.14-1.58.26-.91.39-1.93.39-3.07,0-.67-.05-1.29-.15-1.86h2.74c.85,0,1.45.28,1.8.83.36.55.53,1.28.53,2.19s-.15,1.96-.46,3.16c-.01.04,0,.07.03.1s.06.05.08.05c.04,0,.07-.01.09-.04.51-.51.92-1.18,1.2-2,.29-.82.43-1.65.43-2.51,0-1.15-.26-2.11-.78-2.89-.52-.77-1.29-1.16-2.31-1.16h-3.14c-.39,0-.68-.01-.86-.04-.18-.02-.33-.09-.45-.19-.12-.1-.22-.28-.29-.52-.02-.1-.08-.15-.17-.15-.05,0-.12.04-.2.13-.44.53-.66,1.07-.66,1.62ZM325.86,151.81h-.81c-.71,0-1.22-.15-1.52-.44-.3-.29-.45-.81-.45-1.54,0-.45.06-1.11.18-1.97.12-.81.18-1.4.18-1.78,0-.42-.09-.73-.27-.94-.18-.21-.43-.4-.76-.59-.18-.11-.32-.2-.4-.28-.09-.07-.13-.17-.13-.29,0-.13.05-.28.15-.44l.83-1.4c.09-.16.17-.24.24-.24.04,0,.08.03.13.1.05.07.1.16.17.27.07.15.25.33.51.55.29.26.52.52.67.79.15.27.22.66.21,1.18-.01.6-.04,1.09-.08,1.48s-.11.81-.19,1.26l-.17,1.12c-.04.31-.02.52.06.64.08.12.16.19.25.19.09,0,.31,0,.66,0l2.96.02c.87.01,1.52.27,1.94.76.42.5.63,1.14.63,1.92,0,.93-.19,1.74-.57,2.44-.38.69-.91,1.3-1.58,1.81-.67.51-1.52,1.03-2.54,1.54-.12.06-.24.13-.35.19-.11.07-.18.1-.22.1-.05,0-.07-.04-.07-.13,0-.11.01-.21.04-.29l.11-.48c.12-.59.23-1,.32-1.22.09-.23.24-.36.43-.4.85-.18,1.51-.45,2-.81s.82-.72,1-1.09.27-.71.27-1.03-.14-.56-.41-.75c-.28-.2-.61-.29-1-.29-1.25,0-2.06,0-2.43.02ZM331.49,151.22c0,.37.28.55.85.55l4.05.02c.61,0,1.06.17,1.35.5.29.33.43.75.43,1.25,0,.39-.08.79-.25,1.2s-.38.74-.64,1.01c-.26.27-.54.4-.84.4l-3.42.04c-.37.01-.65.12-.84.31s-.39.51-.6.96l-.18.37c-.07.15-.11.26-.11.35s.04.13.13.13l.13-.04c.09-.02.19-.05.31-.08s.26-.05.4-.05c3.03,0,4.93-.01,5.7-.04.42-.01.73-.06.95-.15.21-.09.4-.25.56-.49s.35-.63.57-1.19c.05-.18,0-.28-.13-.28-.07,0-.16.02-.26.06-.28.07-.74.1-1.36.09.33-.43.6-.98.81-1.66s.31-1.34.31-2c0-.88-.2-1.61-.59-2.18-.39-.57-1-.86-1.82-.86h-2.24c-.58,0-.97-.02-1.2-.06s-.37-.19-.46-.43c-.07-.2-.14-.29-.2-.29-.07,0-.18.09-.31.28-.74,1.08-1.1,1.84-1.1,2.28ZM342.95,150.63c.21.29.32.73.32,1.31,0,.45-.1.89-.29,1.32-.2.43-.5.78-.9,1.07-.1.06-.18.09-.24.09-.12,0-.18-.05-.18-.15,0-.04,0-.06.02-.07.09-.23.13-.44.15-.63.01-.18.01-.38,0-.59-.01-.28-.11-.51-.29-.69s-.45-.36-.79-.54c-.27-.16-.47-.3-.61-.41-.13-.12-.2-.26-.2-.43,0-.13.04-.27.13-.4l.83-1.4c.09-.16.17-.24.24-.24s.18.12.31.37c.06.1.15.2.27.29.12.1.24.19.36.28.38.26.68.53.89.83ZM343.9,151.22c0,.37.28.55.85.55l4.05.02c.61,0,1.06.17,1.35.5.29.33.43.75.43,1.25,0,.39-.08.79-.25,1.2s-.38.74-.64,1.01c-.26.27-.54.4-.84.4l-3.42.04c-.37.01-.65.12-.84.31s-.39.51-.6.96l-.18.37c-.07.15-.11.26-.11.35s.04.13.13.13l.13-.04c.09-.02.19-.05.31-.08s.26-.05.4-.05c3.03,0,4.93-.01,5.7-.04.42-.01.73-.06.95-.15.21-.09.4-.25.56-.49s.35-.63.57-1.19c.05-.18,0-.28-.13-.28-.07,0-.16.02-.26.06-.28.07-.74.1-1.36.09.33-.43.6-.98.81-1.66s.31-1.34.31-2c0-.88-.2-1.61-.59-2.18-.39-.57-1-.86-1.82-.86h-2.24c-.58,0-.97-.02-1.2-.06s-.37-.19-.46-.43c-.07-.2-.14-.29-.2-.29-.07,0-.18.09-.31.28-.74,1.08-1.1,1.84-1.1,2.28Z" fill="#293680"/><path d="M166.72,346.66l-.02-.03c-.09-.11-.06-.22.08-.33l.11-.07c.13-.05.36-.21.69-.46.6-.45,1.52-1.22,2.78-2.32,1.34-1.16,2.32-1.98,2.93-2.45.28-.21.49-.35.61-.42.09-.05.17-.09.23-.14.23-.18.27-.37.12-.57l-3.75-4.94c-.31-.41-.43-.84-.37-1.29.06-.45.26-.8.6-1.05.38-.29.87-.48,1.47-.56.51-.07.81-.04.9.08.05.07.04.17-.02.31-.06.14-.11.33-.14.57,0,.25.07.46.21.65l3.86,5.09c.46.62.58,1.24.36,1.86-.19.52-.45.91-.81,1.18-.08.06-.16.11-.25.16-.46.28-.98.24-1.56-.11-.15,0-.31.04-.45.15l-.03.02c-2.25,2.09-3.71,3.4-4.38,3.91-.29.22-.52.37-.67.43-.27.11-.71.23-1.34.36-.63.13-1.02.12-1.16-.03Z" fill="#293680"/><path d="M171.18,352.2c-.73-.76-1.02-1.37-.87-1.81s.79-1.35,1.92-2.72c.96-1.17,1.68-2,2.17-2.48.55-.54,1.16-.9,1.83-1.1l1.14-.32-.26-.27c-.2-.36-.26-.71-.19-1.06.05-.28.19-.53.42-.76.36-.35.88-.62,1.54-.81.48-.15.77-.16.88-.05.06.06.06.16.02.31-.05.14-.07.34-.07.58.03.24.12.45.28.62l3.87,3.98c.99,1.15.71,2.72-.83,4.71-.8,1.01-1.56,1.87-2.3,2.59l-.11.11c-.77.74-1.93,1.21-3.48,1.42-1.55.21-3.54-.77-5.97-2.93ZM172.87,349.57c.04.1.17.26.38.49.36.37.98.93,1.86,1.67,1.39,1.17,2.32,1.85,2.8,2.05.47.2.79.3.94.31.09.01.21-.04.34-.17.08-.08.17-.19.27-.33,1.61-1.91,2.49-3.16,2.66-3.76.16-.59.09-1.05-.21-1.37l-3.8-3.91c-.25-.22-.67-.14-1.29.23-.29.17-.63.45-1.03.84-.43.42-.93.97-1.48,1.64-1.05,1.29-1.53,2.07-1.44,2.33h0Z" fill="#293680"/><path d="M185.42,364.68l-.03-.02c-.11-.09-.12-.2,0-.34l.09-.09c.11-.09.29-.29.55-.63.46-.59,1.15-1.58,2.08-2.96.99-1.47,1.72-2.52,2.19-3.13.22-.28.38-.47.48-.56.07-.07.14-.13.18-.19.18-.23.17-.43-.03-.58l-4.91-3.8c-.22-.15-.44-.07-.66.22-.06.07-.16.19-.3.37-.37.48-1,1.33-1.89,2.57-.72.99-1.26,1.72-1.62,2.18-.26.34-.43.54-.5.61-.52.48-1.15.81-1.88,1-.26.08-.44.09-.53.02-.07-.06-.07-.18,0-.36.17-.37,1.13-1.71,2.89-4.02l.06-.08c.72-.93,1.42-1.6,2.1-2.02.68-.41,1.28-.72,1.79-.92l-.42-.32c-.3-.33-.43-.67-.38-1.03.03-.27.13-.52.32-.77.32-.42.8-.77,1.44-1.07.45-.21.74-.27.87-.17.07.05.09.15.06.3-.03.15-.02.35.02.59.06.24.18.43.37.57l5.55,4.29c1.08.86,1.17,1.86.28,3.02-.44.57-.99.76-1.65.55-.15.03-.28.12-.4.27l-.02.03c-1.27,2.15-2.32,3.76-3.15,4.84-.27.35-.47.57-.6.67-.23.17-.63.4-1.2.69s-.95.38-1.13.27Z" fill="#293680"/><path d="M191.73,368.97c-.13-.1-.12-.31.05-.62l4.22-6.66.08-.1c.17-.27.15-.53-.06-.77-.97-1-1.46-1.79-1.49-2.36-.02-.4.08-.79.32-1.16.09-.15.21-.3.36-.45.47-.5.94-.83,1.41-.98.18-.05.31-.06.37-.02.07.04.09.14.05.28-.12.47.02,1.02.41,1.63.4.54.66.96.77,1.24.11.29.09.64-.08,1.06-.17.42-.4.9-.71,1.44-.31.54-.85,1.45-1.62,2.73l-.87,1.4c-.44.7-.77,1.19-.99,1.46-.32.41-.73.84-1.23,1.29-.5.45-.83.64-.98.57Z" fill="#293680"/><path d="M199.98,373.72c-.13.02-.22.01-.28-.02-.08-.04-.1-.12-.04-.24l.03-.06c.52-1.27.92-2.22,1.21-2.85.16-.34.28-.59.37-.75l.11-.28c.51-1.12,1.39-2.01,2.65-2.67.09,0,.16.02.22.04.1.05.12.13.06.26l-.06.11-.24.53c-.26.58-.59,1.33-.97,2.26-.27.67-.48,1.19-.65,1.55-.14.31-.25.51-.31.59-.13.19-.83.7-2.09,1.53h0ZM209.29,377.11c-.53.38-.88.54-1.03.47-.1-.05-.12-.19-.06-.43.18-.41.83-1.91,1.95-4.51,1.12-2.6,1.67-3.99,1.67-4.17.02-.18-.08-.34-.29-.48l-6.77-3.07c-.47-.21-.78-.53-.93-.96-.16-.43-.15-.83.02-1.21.2-.44.54-.83,1.03-1.19.41-.3.69-.42.83-.36.08.03.12.13.13.28,0,.15.06.34.15.57.11.22.28.37.49.47l6.96,3.16c.7.33,1.1.82,1.2,1.47.08.53.05.95-.09,1.26-.16.36-.62.73-1.38,1.12-.18.09-.32.23-.42.43-1.12,3.1-1.8,4.92-2.05,5.46-.17.37-.31.63-.44.78-.22.27-.55.57-.98.9h0Z" fill="#293680"/><path d="M216.02,379.81c-.39.29-.78.37-1.18.25l-1.74-.52c-.6-.2-.88-.36-.84-.5.01-.05.06-.09.14-.13.58-.09.92-.31,1.02-.64.06-.2.07-.49.04-.85-.03-.56.04-1.15.22-1.76.18-.6.48-1.2.91-1.79.43-.59,1.1-1.33,2.03-2.22-.3-.54-.5-.9-.57-1.08-.25-.62-.3-1.25-.16-1.9l.04-.12c.18-.61.67-1.28,1.48-2.02.13-.09.23-.13.3-.11.06.02.08.12.05.29-.04.08-.07.15-.09.22-.1.35-.06.69.14,1.04l3.8,6.53c.96-.26,1.51-.63,1.66-1.12.05-.15.05-.32,0-.51l-.7-1.73c-.12-.36-.13-.7-.04-1.01.05-.17.18-.4.4-.69.22-.29.77-.57,1.66-.83.22-.01.39,0,.52.03.18.05.24.16.19.32l-.06.14c-.07.38-.03.78.11,1.19l.55,1.37c.13.31.15.61.06.91-.09.29-.28.57-.58.85-.58.55-1.08.83-1.5.84-.41,0-1.02.27-1.83.8l1.01,1.68c.53.8.8,1.46.83,1.98.02.47-.07,1.02-.25,1.65l-.06.19c-.22.71-.59,1.25-1.13,1.64-.12.04-.21.04-.27.02-.11-.03-.15-.15-.12-.35.16-.82-.22-1.9-1.16-3.23-1.82-2.92-3.1-5-3.84-6.22h-.05c-.24-.09-.51.08-.79.49-.23.33-.41.7-.52,1.11-.04.13-.07.25-.1.38-.11.55.08,1.23.57,2.02.49.79.68,1.49.58,2.08-.02.12-.04.23-.07.33-.13.43-.35.75-.67.98h0Z" fill="#293680"/><path d="M229.24,383.82c-.16-.05-.22-.25-.18-.6l1.54-7.73.04-.12c.06-.31-.05-.54-.34-.7-1.26-.58-2.01-1.14-2.24-1.66-.17-.37-.21-.76-.12-1.19.03-.17.09-.35.17-.54.25-.63.58-1.11.96-1.43.15-.12.26-.17.34-.15.08.02.13.1.14.25.06.48.38.94.97,1.37.57.36.96.66,1.17.88.21.23.31.56.3,1.02,0,.45-.05.99-.15,1.6-.09.62-.27,1.66-.53,3.13l-.31,1.62c-.16.82-.29,1.39-.39,1.72-.15.5-.38,1.05-.68,1.65-.3.6-.54.89-.71.89Z" fill="#293680"/><path d="M232.8,384.49c-.72-.09-1.07-.25-1.05-.46l.02-.07c.55-.95.99-1.55,1.3-1.82.31-.27.85-.37,1.6-.3l6.01.64c.33.04.53-.14.58-.56v-.02c.16-2.49.16-4.14,0-4.98-.16-.83-.44-1.28-.83-1.35l-4.84-.87c-.47.19-.73.48-.78.86-.01.09-.01.19,0,.3.03.27.1.43.21.5s.34.13.69.19l.69.09c.35.04.61.14.79.28.18.14.24.37.2.69-.12.97-.6,1.41-1.42,1.3l-.15-.02c-.75-.09-1.21-.11-1.37-.06-.16.05-.42.25-.77.61-.2-.03-.29-.14-.26-.35.12-.17.19-.31.2-.41,0-.07-.08-.32-.26-.76-.1-.26-.14-.51-.11-.76.04-.32.29-.85.75-1.61.32-.51.65-.95.99-1.32h.01c-.17-.38-.23-.76-.19-1.11,0-.07.05-.24.11-.51.06-.26.25-.61.57-1.06.28-.41.5-.61.66-.59.08.01.15.09.21.23.05.14.16.31.31.5.17.17.38.28.61.31l3.04.67c.92.15,1.51.57,1.77,1.26.26.69.38,1.45.37,2.29,0,1.63-.07,3.01-.21,4.14-.04.28-.08.55-.13.81-.23,1.24-.48,1.99-.77,2.25h0c-.02.16-.27.48-.75.95-.48.48-1,.7-1.56.67l-6.24-.54Z" fill="#293680"/><path d="M252.02,385.93c-.17-.02-.26-.2-.28-.56.1-.7.16-1.44.16-2.23,0-.62-.06-2.54-.2-5.77-.06-1-.42-1.52-1.07-1.55l-5.5-.06c-.45,0-.79-.17-1-.5-.2-.3-.29-.63-.29-1.01,0-.52.16-1.06.46-1.61.23-.44.43-.66.59-.66.08,0,.16.07.23.2.07.14.19.29.37.46.19.15.4.23.64.23l3.93.05c.89.06,1.55.27,1.98.61.43.35.72.96.88,1.84.28,1.81.41,3.71.39,5.7,0,.53-.02,1.07-.06,1.61,0,.74-.17,1.46-.49,2.16-.32.7-.56,1.06-.73,1.09Z" fill="#293680"/><path d="M267.28,371.7c.53-.06.92.01,1.17.21.25.2.53.58.83,1.15.3.57.57,1.31.83,2.22.26.92.25,1.67-.02,2.25-.27.58-.89,1.61-1.86,3.08-.94,1.36-1.27,2.44-.97,3.25.07.63-.18.98-.76,1.08-.58.09-.83-.16-.75-.77.05-.54.2-1.06.46-1.57.26-.51.65-1.16,1.17-1.96.52-.8.86-1.38,1.02-1.74.16-.36.28-.69.35-.97.07-.28-.06-.9-.42-1.87-.35-.97-.81-1.43-1.37-1.39l-4.77.61c-1.13.05-1.82-.11-2.08-.5-.23-.26-.45-.66-.67-1.2-.22-.54-.32-1.16-.31-1.85.01-.7.2-1.24.57-1.63.36-.39.89-.66,1.59-.81.7-.15,1.42-.14,2.17.02.17.04.41.1.73.19.32.09.58.02.78-.22l.35-.53c.15-.33.46-.54.93-.61.47-.07.96.12,1.48.58.4.2.43.39.1.57-.33.1-.56.3-.71.59-.26.47-.54.74-.84.81-.3.06-.59.06-.87,0-.28-.07-.59-.18-.92-.33-.33-.15-.78-.26-1.33-.31s-1.07,0-1.54.17c-.47.17-.71.6-.7,1.28,0,.68.22,1,.64.95l5.73-.73Z" fill="#293680"/><path d="M277.65,368.53c.24-.3.47-.31.69-.03.14.48.47.85.99,1.13.65.27,1.12.59,1.41.96.29.36.44.77.43,1.23,0,.46-.13.98-.37,1.58-.24.6-.46,1.45-.68,2.57-.21,1.12-.37,2.17-.47,3.17-.1,1-.2,1.87-.28,2.62-.08.75-.38,1.39-.88,1.93-1.7,1.7-2.83,2.77-3.38,3.2-.55.44-1.16.97-1.83,1.6-.33.29-.53.26-.6-.1-.06-.36-.08-.84-.05-1.45.03-.61.06-1.06.1-1.35.04-.29.21-.58.49-.89.89-.69,1.63-1.28,2.21-1.78.07-.14.08-.27.02-.39-.79-1.59-1.39-2.93-1.79-4.01-.4-1.08-.5-2.49-.3-4.25.05-.15,0-.23-.14-.25l-.61-.02c-.45,0-.8-.16-1.06-.47-.25-.3-.42-.81-.51-1.52-.09-.71-.06-1.24.1-1.59.08-.38.27-.49.57-.32.31.36.76.55,1.33.55l1.36.05c.34.03.58.17.73.42.15.25.29.56.41.94.12.38.18.78.17,1.2,0,.42-.2.69-.58.81l-.71-.02c-.21-.03-.33.34-.36,1.12-.03.78.04,1.43.2,1.95.17.52.9,1.9,2.19,4.16.17.24.35.3.53.17,1.16-1,1.78-1.74,1.86-2.19.08-.46.32-2.23.72-5.32.05-.46-.12-.78-.52-.96-.39-.18-.76-.35-1.1-.52-.34-.17-.64-.39-.93-.65-.28-.27-.4-.57-.36-.92.04-.34.17-.74.37-1.2.2-.46.4-.84.61-1.16h0Z" fill="#293680"/><path d="M285.83,380.59c-.68.26-1.06.28-1.14.08v-.08c.03-1.09.13-1.83.29-2.22.15-.38.58-.72,1.28-1.01l5.62-2.23c.31-.12.4-.37.25-.77v-.02c-1.03-2.27-1.8-3.74-2.34-4.4-.53-.66-.99-.93-1.36-.81l-4.69,1.48c-.33.39-.43.77-.29,1.13.03.09.08.18.14.27.15.22.29.33.42.34.12,0,.36-.04.7-.15l.65-.24c.33-.12.61-.16.83-.12.22.04.39.21.5.51.34.92.13,1.53-.65,1.82l-.14.05c-.7.27-1.12.47-1.24.58-.12.12-.25.42-.4.9-.19.07-.32,0-.39-.19.03-.21.03-.36,0-.45-.02-.06-.22-.25-.58-.55-.21-.18-.36-.39-.45-.63-.11-.3-.14-.89-.08-1.77.05-.6.13-1.14.26-1.63h.01c-.33-.27-.56-.57-.69-.9-.03-.07-.07-.24-.14-.5-.07-.26-.06-.66.02-1.2.06-.5.16-.77.31-.83.08-.03.17,0,.29.11.11.1.28.2.51.29.23.07.46.07.68-.01l3-.82c.88-.29,1.6-.2,2.15.29.55.49,1.01,1.11,1.39,1.85.76,1.44,1.34,2.7,1.74,3.76.1.27.19.53.26.78.38,1.2.5,1.99.37,2.35h0c.05.15-.02.55-.23,1.19-.21.65-.56,1.09-1.07,1.32l-5.78,2.42Z" fill="#293680"/><path d="M304.1,367.52c.35.77.52,1.39.49,1.87,0,.47-.07,1.16-.22,2.08-.15.92-.44,1.43-.85,1.54l-4.4,2.25c-.78.41-1.19.46-1.22.17.15-1.21.27-2.01.38-2.41.11-.4.49-.78,1.15-1.15l4.16-2.12c.32-.12.4-.31.24-.59-.19-.54-.67-1.36-1.45-2.46-.78-1.1-1.66-1.77-2.65-2-.98-.23-1.98-.1-3,.39-.87.77-1.47,1.58-1.81,2.46-.33.87-.39,1.93-.17,3.17.22,1.24.84,2.87,1.87,4.88,0,.53-.05.88-.18,1.05-.13.16-.34,0-.65-.51-.41-.82-.86-2.1-1.34-3.84-.48-1.74-.55-3.37-.2-4.89-1.24.47-2.1.51-2.59.13-.49-.39-.83-.84-1.02-1.36-.19-.52-.24-1.09-.14-1.72.02-.53.25-.61.7-.24.29.28.62.39.99.36l.76-.12c.77-.26,1.4.29,1.9,1.65.32-.31.52-.87.6-1.67.08-.8.11-1.34.09-1.61-.02-.28.04-.44.18-.5.52-.27,1.28-.37,2.28-.31.99.06,1.86.33,2.59.8.73.47,1.41,1.18,2.04,2.14.63.96,1.12,1.82,1.48,2.58Z" fill="#293680"/><path d="M311.96,362.52c-.03.11-.07.19-.12.22-.09.06-.23-.04-.41-.3-.17-.25-.26-.5-.27-.76-.4-1.35-.71-2.17-.92-2.48-.05-.08-.1-.12-.14-.13-.2-.07-.76-.08-1.68-.03-1.09.05-1.8-.14-2.13-.56l-.07-.1c-.28-.4-.43-.93-.46-1.6-.02-.91.1-1.45.36-1.64.1-.07.2-.04.3.1l.04.06c.16.23.44.37.86.43.41-.02,1.06.02,1.93.14.64.01,1.12.23,1.42.67l.13.21c.3.57.58,1.34.82,2.33.24.99.36,2.13.34,3.43h0Z" fill="#293680"/><path d="M310.5,349.88l1.29-1.24c.62,1.62,1.56,3.81,2.6,5.62l-1.7,1.71c-.77-1.57-1.81-4.28-2.19-6.1ZM314.26,346.82l1.31-1.26c.6,1.64,1.56,3.81,2.6,5.62l-1.72,1.73c-.77-1.57-1.81-4.28-2.19-6.1Z" fill="#293680"/><path d="M318.99,344.4c.05-.38.25-.51.58-.38.36.34.84.5,1.43.47.7-.09,1.26-.06,1.7.11.44.16.77.45.99.84.22.4.39.91.48,1.55.1.63.34,1.48.72,2.55.38,1.07.79,2.06,1.21,2.97.42.91.78,1.71,1.09,2.4.31.69.38,1.39.22,2.11-.6,2.33-1.02,3.82-1.28,4.48-.26.66-.51,1.43-.76,2.31-.14.42-.33.49-.56.22-.23-.28-.5-.68-.79-1.22-.29-.54-.49-.94-.6-1.21-.11-.27-.12-.61-.03-1.02.42-1.05.75-1.93,1-2.65-.01-.15-.07-.27-.18-.35-1.49-.97-2.69-1.82-3.58-2.54-.9-.72-1.7-1.89-2.42-3.5-.03-.15-.12-.2-.25-.14l-.54.3c-.39.22-.78.27-1.15.14-.37-.13-.77-.48-1.21-1.05-.44-.57-.68-1.04-.73-1.42-.13-.37-.02-.56.33-.57.46.15.93.09,1.43-.2l1.2-.65c.3-.15.58-.15.84-.01.26.14.53.34.83.6.3.27.55.58.76.95.21.37.18.7-.09.99l-.62.34c-.2.08-.11.46.26,1.15.37.69.76,1.21,1.17,1.57.41.36,1.74,1.18,4,2.47.27.12.45.08.54-.13.49-1.46.65-2.4.49-2.84-.16-.43-.86-2.08-2.09-4.94-.19-.42-.5-.61-.93-.57-.43.05-.83.08-1.21.11-.37.03-.75,0-1.13-.09-.38-.09-.64-.29-.77-.61-.14-.32-.23-.72-.3-1.22-.06-.49-.08-.93-.07-1.31h0Z" fill="#293680"/><path d="M335.41,346.52c-.53.91-1.17,1.85-1.91,2.83-.26.35-.54.7-.83,1.05l-.05.07c-.16.21-.34.25-.52.11-2.21-1.19-3.74-2.11-4.58-2.75-.58-.44-.95-.81-1.11-1.11-.2-.36-.42-.83-.66-1.4-.18-.46-.35-.75-.51-.87-.04-.03-.08-.05-.12-.06l-.75.33c-.41.15-.87.02-1.38-.37l-.1-.08c-.58-.72-.97-1.34-1.17-1.84-.12-.29-.14-.48-.06-.58.06-.08.18-.11.36-.08.32.05.64.03.94-.06l1-.54c.52-.25,1-.21,1.45.13l.11.1c.97,1.14,1.33,1.87,1.11,2.17l-.55.35c-.1.13-.04.45.18.96.16.37.47.72.93,1.07.67.51,1.87,1.16,3.61,1.95.13.04.22.02.3-.08.07-.09.11-.26.12-.49-1.2-2.3-2.23-4.44-3.11-6.42-.07-.13-.14-.24-.23-.3-.11-.09-.25-.12-.41-.09-.42.04-.78-.02-1.09-.16l-.13-.08c-.25-.19-.48-.54-.69-1.06-.24-.63-.33-1.24-.26-1.84.03-.23.09-.4.17-.52.09-.11.21-.17.36-.17.47.26.91.33,1.32.21.57-.21,1.11-.12,1.62.26.58.44,1.01,1.05,1.27,1.82.17.43.2.72.08.87-.13.17-.5.29-1.13.38-.24.02-.41.08-.49.19l-.02.02,3.07,6.25.06.05c.16.12.3.11.41-.04l.04-.05c1.27-1.87,1.97-2.96,2.1-3.28.13-.32.14-.78.04-1.39-.1-.61-.33-1.46-.69-2.56-.36-1.1-.64-1.84-.86-2.22-.1-.18-.23-.33-.38-.44-.15-.12-.34-.2-.55-.24-1.03-.04-1.85-.3-2.46-.76l-.2-.17c-.62-.59-.74-1.58-.35-2.97l.07-.12c.11-.14.22-.16.34-.07l.17.15c.14.11.3.18.47.23.22.07.55.12,1,.14.41.03.84.21,1.3.56.54.41.89,1.13,1.07,2.17.18,1.04.51,2.3.99,3.77.48,1.48,1.02,2.75,1.6,3.82.59,1.07.48,2.15-.31,3.26h0Z" fill="#293680"/><path d="M172.02,280.45c1.03.01,1.79.39,2.27,1.13.48.74.66,1.51.56,2.29-.11.79-.45,1.54-1.02,2.26-.17.2-.26.46-.27.76.22,2.39.38,4.24.46,5.53.08,1.29.07,2.16-.05,2.61-.12.45-.35.99-.69,1.63-.34.64-.69,1.01-1.03,1.12-.34.11-.54-.05-.6-.46,0-.58-.04-2.63-.13-6.14-.08-3.51-.17-5.37-.26-5.6-.09-.22-.3-.37-.62-.42h-9.56c-.72.02-1.3-.19-1.74-.65-.44-.46-.65-1.13-.62-2.04.03-.9.23-1.68.58-2.32.35-.64.64-.94.87-.89.11.03.2.14.28.31.07.17.23.36.48.56.25.2.53.3.86.3h10.23ZM162.09,294.71c-.07.33-.25.75-.54,1.28-.29.53-.79,1.09-1.5,1.69-.4.22-.58.15-.54-.22-.1-2.85-.12-4.61-.07-5.26-.11-1.79.58-3.49,2.07-5.12.38-.17.54-.04.49.39-.03.92-.01,2.28.07,4.07.08,1.79.08,2.85.02,3.18ZM187.53,280.45c1.03.01,1.79.39,2.27,1.13.48.74.67,1.62.58,2.63-.09,1.01-.55,1.67-1.38,1.99-.16.17-.22.39-.2.66.29,2.42.48,4.27.56,5.56.08,1.29.08,2.12-.03,2.49-.1.37-.39.94-.88,1.72-.48.78-.87,1.18-1.15,1.21-.28.03-.39-.14-.32-.51.11-.52.06-2.36-.16-5.52-.22-3.16-.28-5.06-.18-5.69.1-.63-.06-.94-.47-.94h-7.91c-.72.02-1.3-.19-1.74-.65-.44-.46-.65-1.13-.62-2.04.03-.9.23-1.68.58-2.32.35-.64.64-.94.87-.89.11.03.2.14.28.31.07.17.23.36.48.56.25.2.53.3.86.3h8.55ZM194.44,291.76c-.33.28-.5.18-.53-.3-.03-.48.07-.89.29-1.23.62-1.65.84-2.59.67-2.82-.17-.23-.72-.68-1.65-1.34-1.24-.79-1.87-1.67-1.91-2.65-.04-.98.2-1.88.73-2.7.53-.81.97-1.29,1.33-1.42.39-.19.58-.09.56.3-.02.39.19.78.62,1.16.47.29,1.14.84,2.01,1.64.8.58,1.14,1.31,1.03,2.17-.11.86-.42,1.92-.91,3.19-.49,1.26-1.24,2.6-2.24,4.02ZM205.37,293.11c.54-.02.74-.16.62-.41-.13-.25-.85-.64-2.15-1.17-1.47-.6-2.12-1.47-1.93-2.62.19-1.15.28-1.92.28-2.31s-.16-.64-.49-.75l-1.01-.37c-1.57-.42-2.25-1.28-2.02-2.58.12-1.34.5-2.51,1.13-3.51.21-.2.39-.19.52.05.17.44.47.74.89.91l1.23.42c1.11.34,1.47,1.4,1.06,3.2-.19.97-.32,1.84-.39,2.62-.07.78.04,1.29.33,1.52.29.23.6.44.94.62.34.18.71.36,1.13.54.21.13.37,0,.47-.42.53-3.22,1.17-6.17,1.94-8.85l.29-.59c.21-.27.41-.25.59.07-.01.72.73,1.27,2.22,1.65,1.06.39,1.39,1.4,1.01,3.02-.37,1.53-1.08,2.19-2.14,1.97l-1.06-.25c-.54-.22-.9-.2-1.1.08-.52,1.29-.87,2.45-1.06,3.47-.03.25.06.46.29.62,1.3.66,2.14,1.36,2.51,2.09.37.73.52,1.49.46,2.28s-.39,1.55-.98,2.27c-.58.72-1.33,1.09-2.24,1.11h-6.59c-1.18.01-1.7-.17-1.55-.54.91-1.91,1.55-3.07,1.92-3.48.37-.41,1.06-.63,2.07-.67h2.81ZM219.19,294.14c-.07.7-.28,1.48-.64,2.34-.36.87-.65,1.31-.86,1.35-.24-.02-.37-.27-.39-.74v-9.71c.04-.53-.16-.86-.61-.99-1.58-.44-2.6-1.11-3.03-2.01-.44-.9-.57-1.81-.4-2.71.17-.9.47-1.62.9-2.13.31-.37.53-.37.66,0,.19.62.74,1.14,1.63,1.55.83.33,1.42.61,1.75.85.34.24.56.66.67,1.26.11.6.18,1.32.23,2.17.04.85.09,2.35.13,4.51.04,2.16.03,3.58-.04,4.28ZM230.71,287.34c-.93,1.38-1.33,2.78-1.2,4.21l.42,6.47c.11,1.02.04,1.89-.22,2.61-.26.72-.55,1.26-.88,1.61-.33.35-.62.53-.86.51-.24-.01-.32-.37-.24-1.06-.33-6.19-.44-9.46-.34-9.81-.06-1.74.71-3.33,2.29-4.77-1.98-.98-3.08-2.13-3.3-3.45-.22-1.32.24-2.73,1.37-4.24.35-.34.56-.28.62.19.18.62.87,1.27,2.07,1.96.94.47,1.46,1.21,1.53,2.21.08,1-.35,2.19-1.28,3.56ZM238.94,294.14c-.07.7-.28,1.48-.64,2.34-.36.87-.65,1.31-.86,1.35-.24-.02-.37-.27-.39-.74v-9.71c.04-.53-.16-.86-.61-.99-1.58-.44-2.6-1.11-3.03-2.01-.44-.9-.57-1.81-.4-2.71.17-.9.47-1.62.9-2.13.31-.37.53-.37.66,0,.19.62.74,1.14,1.63,1.55.83.33,1.42.61,1.75.85.34.24.56.66.67,1.26.11.6.18,1.32.23,2.17.04.85.09,2.35.13,4.51.04,2.16.03,3.58-.04,4.28ZM244.23,281.55c.93.63,1.44,1.31,1.52,2.06.08.74-.05,1.6-.38,2.57-.33.97-.67,1.36-1,1.15l-.91-.61c-.29-.15-.52-.11-.69.12-.17.24-.29.72-.35,1.45-.07.73.12,1.73.56,3.01.44,1.28.64,2.36.61,3.26-.03.9-.43,1.73-1.19,2.48-.76.75-1.13.92-1.11.5.02-.42-.01-.86-.08-1.31-.07-.46-.24-1.42-.51-2.88s-.31-2.69-.11-3.67c.2-.98.65-1.95,1.37-2.91.22-.29.23-.59.02-.89-.94-.49-1.53-1.31-1.77-2.44-.24-1.13.21-2.46,1.33-3.98.34-.34.54-.28.62.19.18.61.88,1.25,2.09,1.92h0ZM261.93,291.62c-.05,1.13-.23,1.97-.56,2.52-.28.56-.79,1.34-1.53,2.34-.74,1-1.39,1.44-1.96,1.31h-6.61c-1.18.01-1.7-.17-1.55-.54.91-1.91,1.55-3.07,1.92-3.48.37-.41,1.06-.63,2.07-.67h5.73c.45,0,.66-.21.64-.64.1-.75.02-1.74-.24-2.97-.26-1.23-.82-2.27-1.68-3.11-.86-.84-2.04-1.28-3.55-1.31-1.51-.18-2.69.11-3.55.87-.86.76-1.56,1.74-2.1,2.94-.54,1.2-.71,3.58-.51,7.15-.47.97-.86,1.54-1.15,1.71-.3.17-.47-.02-.53-.58.01-1.45.14-3.03.39-4.73.25-1.7.58-2.99.99-3.85.42-.87.83-1.62,1.25-2.26-1.2-.19-1.97-.67-2.32-1.42-.34-.76-.47-1.65-.39-2.66.08-1.02.38-1.87.88-2.55.35-.62.67-.57.98.13.18.51.5.85.96,1.03l1.31.32c1.08.16,1.5,1.14,1.26,2.95.46-.07.95-.55,1.47-1.46.52-.9.86-1.53,1-1.87.15-.34.32-.5.52-.48.79,0,1.75.34,2.9,1.02,1.15.68,2.01,1.52,2.6,2.53.58,1.01.96,2.27,1.13,3.79.17,1.52.23,2.85.19,3.98ZM273.53,285.17c-.49.26-.89.99-1.19,2.2-.3,1.21-.21,2.34.28,3.4.48,1.06.83,1.93,1.05,2.61.21.68.29,1.25.23,1.72-.06.47-.32,1.05-.77,1.74-.45.7-1.28,1.02-2.48.98h-.76c-.6,0-1-.15-1.22-.46-.22-.3-.25-1.04-.1-2.21.15-1.17.56-1.81,1.22-1.93.66-.12,1.03-.28,1.11-.5.08-.21-.02-.76-.29-1.63-.28-.88-.31-1.64-.11-2.3s.46-1.28.78-1.87c.31-.59.5-1.02.56-1.29.06-.27.06-.44,0-.51-.4-.08-.72-.29-.94-.62-.31-.46-.45-1.14-.4-2.04.05-.9.24-1.67.57-2.31.33-.64.61-.94.83-.89.11.03.2.14.28.31.07.17.23.36.48.56.25.2.53.3.86.3h6.78c1.19.07,2.08.33,2.65.79.58.46.98,1.28,1.21,2.44.49,3.06.68,6.32.56,9.78-.01,1-.28,1.97-.81,2.91-.53.94-.9,1.42-1.11,1.46-.24-.02-.37-.27-.39-.74.17-1.29.22-2.72.15-4.29-.07-1.57-.17-3.42-.32-5.57-.11-1.34-.6-2.02-1.45-2.06h-7.25ZM287.14,285.17c-.52-.15-.92-.42-1.21-.81-.29-.39-.39-1.03-.3-1.91.08-.88.29-1.64.62-2.28.33-.64.61-.94.83-.89.11.03.2.14.28.31.07.17.23.36.48.56.25.2.53.3.86.3h6.25c.94.07,1.74.51,2.39,1.31.65.81,1.1,2.1,1.34,3.89.24,1.78.35,3.43.34,4.96-.02,1.52-.48,2.8-1.39,3.82-.38.46-1.4.93-3.05,1.4s-3.04,1.05-4.16,1.72c-.8.46-.93.18-.39-.84,1.09-1.79,2.41-3.06,3.97-3.83,1.56-.76,2.45-1.21,2.67-1.32.22-.12.41-.24.56-.38.15-.13.17-.49.08-1.06-.33-1.89-.64-3.18-.95-3.88-.31-.7-.82-1.05-1.53-1.06h-7.7ZM287.89,287.24c.36,0,.49.19.38.56-.11.37-.21,1.39-.31,3.05l.29,7.01c.08,1.02-.02,1.92-.3,2.68-.28.76-.65,1.34-1.12,1.74-.47.39-.78.54-.94.46-.16-.09-.2-.26-.13-.52.07-.26.13-.73.16-1.42v-8.97c-.01-1.7.65-3.22,1.97-4.58h0ZM302.76,279.24c-.1.83.15,1.24.76,1.21h7.5c.71.01,1.21.17,1.52.48.3.31.6.87.9,1.67.3.8.54,1.83.72,3.09.19,1.26.05,2.25-.4,2.98-.46.73-1.45,1.99-2.99,3.78-1.48,1.64-2.1,3.02-1.84,4.15-.01.84-.47,1.28-1.37,1.3-.9.02-1.24-.36-1.03-1.15.16-.71.51-1.38,1.05-2.01.54-.63,1.22-1.43,2.05-2.4.83-.97,1.38-1.69,1.65-2.14.28-.46.43-.86.46-1.22.03-.36-.1-1.07-.4-2.13-.3-1.06-.83-1.62-1.58-1.66h-6.1c-1.51-.12-2.4-.49-2.69-1.09-.29-.6-.52-1.35-.7-2.25-.18-.9-.2-1.81-.07-2.73.13-.92.48-1.61,1.03-2.07.55-.46,1.3-.76,2.25-.89.95-.13,1.9-.03,2.87.3s1.58.55,1.85.62l.62-.91c.44-.51.95-.73,1.55-.68.6.05,1.35.45,2.26,1.21.55.46.56.71.02.76-.34.16-.71.52-1.13,1.1-.45.42-.94.6-1.47.54-.53-.06-.99-.17-1.37-.33-.38-.16-.93-.39-1.65-.68-.72-.29-1.58-.38-2.59-.26-1.01.12-1.56.59-1.66,1.42ZM327.64,280.45c1.03.01,1.79.39,2.27,1.13.48.74.67,1.62.58,2.63-.09,1.01-.55,1.67-1.38,1.99-.16.17-.22.39-.2.66.29,2.42.48,4.27.56,5.56.08,1.29.08,2.12-.03,2.49-.1.37-.39.94-.88,1.72-.48.78-.87,1.18-1.15,1.21-.28.03-.39-.14-.32-.51.11-.52.06-2.36-.16-5.52-.22-3.16-.28-5.06-.18-5.69.1-.63-.06-.94-.47-.94h-7.64c-.35.03-.52.29-.52.78-.03.47,0,1.97.08,4.49.08,2.52.1,3.95.03,4.27-.06.33-.23.72-.51,1.18-.28.46-.61.93-1,1.42-.43.58-.7.61-.83.08-.12-.53-.2-2.74-.24-6.63-.02-1.07.16-2.11.55-3.12s.78-1.83,1.17-2.46h-.71c-.6-.09-1.02-.35-1.26-.77-.25-.42-.33-1.07-.24-1.96.08-.88.29-1.64.62-2.28.33-.64.61-.94.83-.89.11.03.2.14.28.31.07.17.23.36.48.56.25.2.53.3.86.3h9.39ZM346.63,291.62c-.05,1.13-.23,1.97-.56,2.52-.28.56-.79,1.34-1.53,2.34-.74,1-1.39,1.44-1.96,1.31h-6.61c-1.18.01-1.7-.17-1.55-.54.91-1.91,1.55-3.07,1.92-3.48.37-.41,1.06-.63,2.07-.67h5.73c.45,0,.66-.21.64-.64.1-.75.02-1.74-.24-2.97-.26-1.23-.82-2.27-1.68-3.11-.86-.84-2.04-1.28-3.55-1.31-1.51-.18-2.69.11-3.55.87-.86.76-1.56,1.74-2.1,2.94-.54,1.2-.71,3.58-.51,7.15-.47.97-.86,1.54-1.15,1.71-.3.17-.47-.02-.53-.58.01-1.45.14-3.03.39-4.73.25-1.7.58-2.99.99-3.85.42-.87.83-1.62,1.25-2.26-1.2-.19-1.97-.67-2.32-1.42-.34-.76-.47-1.65-.39-2.66.08-1.02.38-1.87.88-2.55.35-.62.67-.57.98.13.18.51.5.85.96,1.03l1.31.32c1.08.16,1.5,1.14,1.26,2.95.46-.07.95-.55,1.47-1.46.52-.9.86-1.53,1-1.87.15-.34.32-.5.52-.48.79,0,1.75.34,2.9,1.02,1.15.68,2.01,1.52,2.6,2.53.58,1.01.96,2.27,1.13,3.79.17,1.52.23,2.85.19,3.98Z" fill="#b17b2b"/><path d="M216.83,307.42c.43,0,.73.1.92.29.18.19.37.52.55,1.01.18.49.33,1.11.44,1.87.11.76.03,1.36-.24,1.81-.28.44-.88,1.2-1.81,2.29-.9.99-1.27,1.83-1.11,2.51,0,.51-.25.77-.72.79-.48.01-.65-.22-.52-.69.1-.43.27-.83.53-1.21.26-.38.64-.87,1.14-1.45.5-.59.83-1.02,1-1.3.17-.28.29-.52.38-.74.09-.22.04-.73-.14-1.55-.18-.81-.5-1.23-.96-1.26h-3.9c-.91-.07-1.45-.28-1.62-.61-.16-.23-.29-.57-.41-1.03-.12-.46-.14-.96-.06-1.52.08-.56.29-.98.62-1.26.33-.28.79-.44,1.36-.49.57-.05,1.15.03,1.74.23.13.05.32.12.57.23.25.11.46.07.65-.1l.34-.39c.16-.25.43-.38.81-.39.38-.01.76.2,1.13.62.3.2.31.36.02.47-.27.05-.48.18-.63.4-.26.35-.51.54-.76.56-.24.02-.48-.01-.7-.1-.22-.08-.46-.21-.71-.36-.25-.16-.6-.29-1.04-.39-.44-.1-.86-.11-1.26-.02-.4.09-.63.41-.69.95-.06.55.07.82.41.83h4.68ZM222.58,317.46c-.24.31-.52.47-.86.47h-1.47c-.51-.01-.77-.08-.77-.19,0-.04.03-.08.08-.13.43-.2.64-.45.64-.73,0-.17-.05-.39-.16-.67-.16-.43-.23-.9-.23-1.42s.1-1.04.3-1.6c.2-.56.55-1.29,1.06-2.19-.36-.35-.59-.58-.69-.7-.33-.42-.52-.9-.56-1.44v-.1c0-.52.23-1.15.68-1.91.08-.1.15-.15.2-.15s.09.07.1.21c-.01.07-.02.13-.02.19,0,.29.12.55.35.78l4.46,4.19c.69-.42,1.03-.84,1.03-1.26,0-.13-.04-.26-.11-.4l-.94-1.18c-.18-.25-.27-.51-.27-.78,0-.14.05-.35.15-.63.1-.28.47-.62,1.1-1.03.17-.06.31-.09.41-.09.15,0,.22.07.22.2v.12c.02.31.14.61.35.9l.74.94c.17.21.26.44.26.69s-.09.51-.26.8c-.33.56-.65.9-.97.99-.32.1-.73.45-1.23,1.05l1.17,1.07c.59.5.96.95,1.1,1.35.12.36.18.81.18,1.34v.16c0,.6-.17,1.11-.5,1.53-.08.05-.15.08-.2.08-.1,0-.15-.08-.17-.24-.06-.67-.61-1.42-1.64-2.24-2.09-1.85-3.56-3.17-4.42-3.95h-.04c-.2,0-.37.19-.5.57-.1.31-.15.64-.15.98,0,.11,0,.21.01.32.04.46.34.94.91,1.44.56.5.87,1,.93,1.48.01.1.02.19.02.28,0,.36-.1.67-.3.92h0ZM236.86,317.94c-.14-.01-.21-.16-.23-.45.07-.56.11-1.17.11-1.81,0-.5-.07-2.06-.21-4.67-.06-.81-.35-1.22-.88-1.24h-4.46c-.37,0-.64-.13-.82-.4-.16-.24-.24-.51-.24-.82,0-.42.12-.86.36-1.31.18-.36.34-.54.47-.54.07,0,.13.05.19.16.06.11.16.23.3.37.16.12.33.18.52.18h3.18c.72.04,1.26.2,1.61.48.35.28.59.77.73,1.48.24,1.46.37,3,.37,4.61,0,.43-.01.86-.03,1.31,0,.6-.13,1.18-.38,1.76-.25.57-.45.87-.58.89ZM243.51,317.84c-.84.1-1.77.15-2.77.15-.35,0-.71,0-1.08-.02h-.07c-.22,0-.33-.1-.33-.29-.31-2.01-.47-3.45-.47-4.31,0-.58.06-1.01.17-1.27.14-.31.33-.68.58-1.11.21-.34.32-.59.32-.76,0-.04,0-.07-.02-.1l-.58-.33c-.29-.19-.44-.55-.44-1.07v-.1c.18-.73.39-1.28.61-1.65.13-.22.24-.33.35-.33.08,0,.16.06.22.19.13.23.3.43.5.58l.84.38c.41.21.62.54.62,1v.12c-.28,1.18-.56,1.78-.87,1.78l-.5-.18c-.14,0-.31.19-.53.58-.16.29-.23.66-.23,1.12,0,.68.17,1.78.51,3.29.03.1.1.15.19.15s.22-.05.38-.16c.9-1.9,1.77-3.62,2.62-5.15.05-.11.08-.21.08-.3,0-.12-.05-.22-.14-.31-.23-.25-.37-.51-.43-.79v-.12c-.01-.25.11-.57.34-.97.29-.46.64-.82,1.06-1.07.16-.1.3-.14.42-.14s.21.05.29.15c.06.43.23.75.51.96.41.27.62.66.62,1.17,0,.59-.18,1.16-.55,1.71-.19.32-.36.48-.52.48-.17,0-.44-.18-.8-.54-.13-.15-.25-.22-.37-.22h-.02l-2.53,5.04v.06c0,.16.07.24.22.24h.05c1.83-.1,2.88-.18,3.15-.25.27-.07.57-.29.91-.65.34-.36.78-.93,1.31-1.7.53-.77.87-1.32,1.02-1.64.07-.16.1-.31.1-.46s-.04-.31-.11-.47c-.48-.69-.71-1.34-.71-1.96v-.21c.08-.69.67-1.25,1.76-1.68h.11c.14-.01.21.05.21.17v.18c-.01.14.02.28.07.42.06.18.19.42.4.71.18.28.28.65.28,1.11,0,.54-.29,1.13-.87,1.76-.58.63-1.23,1.46-1.95,2.49-.72,1.03-1.28,2-1.68,2.9-.4.9-1.15,1.37-2.26,1.39h0ZM252.48,314.26c-.07.06-.14.09-.18.09-.09,0-.13-.13-.13-.39,0-.24.06-.46.17-.63.36-1.08.54-1.77.54-2.07,0-.07-.01-.13-.03-.15-.1-.14-.47-.4-1.1-.81-.75-.48-1.13-.93-1.15-1.36v-.1c0-.39.15-.82.44-1.28.41-.61.74-.92,1-.92.1,0,.15.07.15.2v.06c0,.22.12.45.37.68.29.18.69.51,1.21.99.42.31.63.67.63,1.1v.2c-.07.52-.25,1.16-.55,1.93-.3.77-.76,1.58-1.37,2.44h0ZM260.65,314.26c-.07.06-.14.09-.18.09-.09,0-.13-.13-.13-.39,0-.24.06-.46.17-.63.36-1.08.54-1.77.54-2.07,0-.07-.01-.13-.03-.15-.1-.14-.47-.4-1.1-.81-.75-.48-1.13-.93-1.15-1.36v-.1c0-.39.15-.82.44-1.28.41-.61.74-.92,1-.92.1,0,.15.07.15.2v.06c0,.22.12.45.37.68.29.18.69.51,1.21.99.42.31.63.67.63,1.1v.2c-.07.52-.25,1.16-.55,1.93-.3.77-.76,1.58-1.37,2.44h0ZM269.63,307.42c.43,0,.73.1.92.29.18.19.37.52.55,1.01.18.49.33,1.11.44,1.87.11.76.03,1.36-.24,1.81-.28.44-.88,1.2-1.81,2.29-.9.99-1.27,1.83-1.11,2.51,0,.51-.25.77-.72.79-.48.01-.65-.22-.52-.69.1-.43.27-.83.53-1.21.26-.38.64-.87,1.14-1.45.5-.59.83-1.02,1-1.3.17-.28.29-.52.38-.74.09-.22.04-.73-.14-1.55-.18-.81-.5-1.23-.96-1.26h-3.9c-.91-.07-1.45-.28-1.62-.61-.16-.23-.29-.57-.41-1.03-.12-.46-.14-.96-.06-1.52.08-.56.29-.98.62-1.26.33-.28.79-.44,1.36-.49.57-.05,1.15.03,1.74.23.13.05.32.12.57.23.25.11.46.07.65-.1l.34-.39c.16-.25.43-.38.81-.39.38-.01.76.2,1.13.62.3.2.31.36.02.47-.27.05-.48.18-.63.4-.26.35-.51.54-.76.56-.24.02-.48-.01-.7-.1-.22-.08-.46-.21-.71-.36-.25-.16-.6-.29-1.04-.39-.44-.1-.86-.11-1.26-.02-.4.09-.63.41-.69.95-.06.55.07.82.41.83h4.68ZM275.01,317.94c-.14-.01-.21-.16-.23-.45v-6.49c.01-.26-.12-.43-.37-.5-1.1-.27-1.78-.59-2.04-.97-.19-.27-.29-.57-.29-.93,0-.14.02-.3.05-.46.1-.54.28-.97.54-1.29.1-.12.18-.17.24-.17.07,0,.12.06.15.17.12.37.45.69.99.94.51.2.87.37,1.07.52.2.15.33.4.4.76.07.36.11.79.14,1.3.02.5.05,1.36.08,2.57v1.34c.01.67,0,1.15-.03,1.43-.04.42-.13.89-.28,1.42-.15.52-.29.8-.42.82ZM284.09,317.95h-.03c-.12,0-.17-.07-.17-.21v-.1c.04-.11.05-.33.05-.67,0-.61-.04-1.58-.13-2.93-.1-1.44-.14-2.47-.14-3.09,0-.29.01-.49.03-.6.01-.08.02-.15.02-.21,0-.24-.1-.36-.31-.36h-5.03c-.21.01-.32.17-.32.47,0,.07-.01.2-.01.39,0,.49.02,1.35.06,2.58.03.99.04,1.73.04,2.2,0,.35,0,.56-.02.64-.1.56-.33,1.09-.71,1.57-.13.18-.24.28-.33.28-.07,0-.13-.08-.17-.23-.07-.32-.12-1.66-.14-4.01v-.08c0-.95.12-1.73.35-2.33.23-.6.46-1.09.69-1.47h-.43c-.35-.06-.61-.22-.76-.47-.12-.18-.17-.4-.17-.65,0-.43.13-.89.4-1.4.18-.36.34-.54.47-.54.07,0,.13.05.19.16.06.11.16.23.3.37.16.12.33.18.52.18h5.68c1.12.01,1.67.61,1.67,1.8,0,.59-.26.98-.79,1.17-.08.1-.12.22-.12.37v.03c.25,2.01.38,3.56.38,4.66,0,.35-.02.6-.05.72-.06.22-.2.57-.43,1.04-.22.47-.42.71-.59.73ZM293.12,307.42c.43,0,.73.1.92.29.18.19.37.52.55,1.01.18.49.33,1.11.44,1.87.11.76.03,1.36-.24,1.81-.28.44-.88,1.2-1.81,2.29-.9.99-1.27,1.83-1.11,2.51,0,.51-.25.77-.72.79-.48.01-.65-.22-.52-.69.1-.43.27-.83.53-1.21.26-.38.64-.87,1.14-1.45.5-.59.83-1.02,1-1.3.17-.28.29-.52.38-.74.09-.22.04-.73-.14-1.55-.18-.81-.5-1.23-.96-1.26h-3.9c-.91-.07-1.45-.28-1.62-.61-.16-.23-.29-.57-.41-1.03-.12-.46-.14-.96-.06-1.52.08-.56.29-.98.62-1.26.33-.28.79-.44,1.36-.49.57-.05,1.15.03,1.74.23.13.05.32.12.57.23.25.11.46.07.65-.1l.34-.39c.16-.25.43-.38.81-.39.38-.01.76.2,1.13.62.3.2.31.36.02.47-.27.05-.48.18-.63.4-.26.35-.51.54-.76.56-.24.02-.48-.01-.7-.1-.22-.08-.46-.21-.71-.36-.25-.16-.6-.29-1.04-.39-.44-.1-.86-.11-1.26-.02-.4.09-.63.41-.69.95-.06.55.07.82.41.83h4.68Z" fill="#b17b2b"/><path d="M196.67,334.39c-.07.06-.14.09-.18.09-.09,0-.13-.13-.13-.39,0-.24.06-.46.17-.63.36-1.08.54-1.77.54-2.07,0-.07-.01-.13-.03-.15-.1-.14-.47-.4-1.1-.81-.75-.48-1.13-.93-1.15-1.36v-.1c0-.39.15-.82.44-1.28.41-.61.74-.92,1-.92.1,0,.15.07.15.2v.06c0,.22.12.45.37.68.29.18.69.51,1.21.99.42.31.63.67.63,1.1v.2c-.07.52-.25,1.16-.55,1.93-.3.77-.76,1.58-1.37,2.44h0ZM199.16,329.44c.4-.52.63-1.01.69-1.47.06-.47.02-.92-.11-1.35-.13-.44.03-.82.47-1.16.45-.34.75-.28.91.18.16.46.09,1.07-.2,1.84-.29.76-.8,1.44-1.54,2.02-.14.14-.21.12-.22-.05h0ZM201.14,329.44c.4-.52.63-1.01.69-1.47.06-.47.02-.92-.11-1.35-.13-.44.03-.82.47-1.16.45-.34.75-.28.91.18.16.46.09,1.07-.2,1.84-.29.76-.8,1.44-1.54,2.02-.14.14-.21.12-.22-.05h0ZM210.01,326.84c.24-.19.43-.15.55.11.01.4.2.76.56,1.08.46.34.76.68.92,1.03.16.34.19.69.1,1.05-.1.36-.29.75-.6,1.17-.3.42-.65,1.05-1.03,1.89-.38.84-.71,1.64-.99,2.4s-.52,1.43-.73,2.01c-.21.57-.57,1.02-1.07,1.35-1.67,1.01-2.76,1.63-3.28,1.86-.52.23-1.1.54-1.75.9-.32.16-.47.1-.45-.19.02-.29.1-.68.24-1.15.14-.48.25-.82.34-1.04.09-.22.28-.42.56-.6.84-.37,1.53-.69,2.08-.97.08-.1.11-.2.09-.31-.31-1.41-.52-2.57-.63-3.5-.11-.93.09-2.06.59-3.4.07-.11.05-.18-.06-.22l-.48-.13c-.35-.1-.6-.29-.74-.57-.14-.29-.18-.72-.11-1.3.07-.58.2-.99.39-1.23.14-.29.31-.33.51-.14.18.35.49.58.94.69l1.06.31c.26.09.42.24.49.47.07.22.12.5.14.82.02.32-.01.65-.1.98-.09.33-.29.51-.61.53l-.55-.15c-.16-.07-.32.2-.5.81-.18.61-.25,1.13-.22,1.57.03.44.34,1.67.91,3.7.09.22.22.3.39.23,1.11-.56,1.74-1.02,1.89-1.36.15-.34.69-1.69,1.6-4.05.13-.35.06-.64-.22-.86-.28-.22-.53-.43-.76-.62-.23-.2-.43-.43-.6-.69-.17-.27-.2-.53-.1-.79.1-.26.28-.55.52-.87.24-.32.48-.58.7-.8h0ZM221.44,337.36c-.27.46-.47.69-.6.69-.09,0-.15-.1-.18-.3,0-.36-.02-1.69-.07-3.98-.05-2.29-.1-3.5-.16-3.63-.05-.14-.17-.22-.38-.26h-6.02c-.42,0-.75-.13-1.01-.39-.26-.26-.39-.56-.39-.9,0-.39.12-.8.36-1.22.2-.36.37-.54.49-.54.07,0,.13.05.19.16.06.11.16.23.3.37.16.12.33.18.52.18h6.19c.63,0,1.08.23,1.38.68.24.37.36.69.36.96,0,.32-.21.75-.64,1.29-.1.12-.16.28-.16.46.21,2.66.32,4.23.32,4.71,0,.33-.02.57-.06.72-.07.27-.21.6-.42.99h0ZM213.43,337.98c-.09.05-.16.08-.21.08-.07,0-.11-.05-.11-.16v-.05c-.04-1.11-.06-1.95-.06-2.51,0-.31,0-.53.02-.67v-.24c-.01-.99.34-1.95,1.05-2.86.07-.03.13-.04.17-.04.09,0,.13.06.13.17v.1s-.01.47-.01.47c0,.52.01,1.18.04,1.99.03.59.04,1.04.04,1.36,0,.28-.01.46-.03.54-.03.18-.38.79-1.03,1.83h0ZM234.35,338.05h-6.14c-.46-.03-.76-.55-.9-1.56-.06-.49-.09-1.11-.09-1.87s.03-1.72.1-2.81v-.04c0-.19.12-.51.35-.97.24-.48.4-.79.48-.91h-.31c-.32-.09-.56-.25-.72-.49-.14-.18-.2-.41-.2-.67,0-.41.13-.86.4-1.36.18-.36.34-.54.47-.54.07,0,.13.05.19.16.06.11.16.23.3.37.16.12.33.18.52.18h4.91c.57.04,1.03.26,1.38.67.35.4.55,1.19.61,2.35.04.93.06,1.82.06,2.67v.63c-.02,1.04-.04,1.69-.06,1.95-.02.26-.1.64-.25,1.14-.15.5-.31.8-.51.91-.19.11-.38.16-.58.17ZM234.64,335.72c.26,0,.39-.11.39-.34v-.58c0-1.56-.08-2.76-.24-3.6-.2-.86-.72-1.3-1.56-1.31h-4.42c-.26.01-.42.31-.49.88-.05.38-.07.9-.07,1.57,0,.33,0,.7.02,1.11.04,1.22.09,1.91.15,2.05.06.14.34.21.85.21h5.38ZM245.35,337.36c-.27.46-.47.69-.6.69-.09,0-.15-.1-.18-.3,0-.36-.02-1.69-.07-3.98-.05-2.29-.1-3.5-.16-3.63-.05-.14-.17-.22-.38-.26h-6.02c-.42,0-.75-.13-1.01-.39-.26-.26-.39-.56-.39-.9,0-.39.12-.8.36-1.22.2-.36.37-.54.49-.54.07,0,.13.05.19.16.06.11.16.23.3.37.16.12.33.18.52.18h6.19c.63,0,1.08.23,1.38.68.24.37.36.69.36.96,0,.32-.21.75-.64,1.29-.1.12-.16.28-.16.46.21,2.66.32,4.23.32,4.71,0,.33-.02.57-.06.72-.07.27-.21.6-.42.99h0ZM237.34,337.98c-.09.05-.16.08-.21.08-.07,0-.11-.05-.11-.16v-.05c-.04-1.11-.06-1.95-.06-2.51,0-.31,0-.53.02-.67v-.24c-.01-.99.34-1.95,1.05-2.86.07-.03.13-.04.17-.04.09,0,.13.06.13.17v.1s-.01.47-.01.47c0,.52.01,1.18.04,1.99.03.59.04,1.04.04,1.36,0,.28-.01.46-.03.54-.03.18-.38.79-1.03,1.83h0ZM249.2,334.39c-.07.06-.14.09-.18.09-.09,0-.13-.13-.13-.39,0-.24.06-.46.17-.63.36-1.08.54-1.77.54-2.07,0-.07-.01-.13-.03-.15-.1-.14-.47-.4-1.1-.81-.75-.48-1.13-.93-1.15-1.36v-.1c0-.39.15-.82.44-1.28.41-.61.74-.92,1-.92.1,0,.15.07.15.2v.06c0,.22.12.45.37.68.29.18.69.51,1.21.99.42.31.63.67.63,1.1v.2c-.07.52-.25,1.16-.55,1.93-.3.77-.76,1.58-1.37,2.44h0ZM254.64,329.89c-.3.16-.54.69-.72,1.59-.18.9-.12,1.76.17,2.57.29.81.5,1.43.63,1.84.13.41.18.71.15.89-.03.18-.15.45-.36.8-.21.35-.68.52-1.41.49h-.46c-.36,0-.61-.09-.74-.28-.13-.18-.15-.54-.06-1.08.09-.54.34-.84.74-.91.4-.07.63-.17.67-.3.05-.13-.01-.54-.18-1.24-.17-.7-.19-1.33-.07-1.9.12-.57.26-1.05.42-1.44.16-.39.32-.74.48-1.03-.31-.05-.54-.17-.67-.38-.19-.28-.27-.61-.24-.98.03-.37.15-.76.35-1.14.2-.39.37-.57.51-.54.07.02.12.08.17.19.04.11.14.22.29.34.15.12.32.18.52.18h4.1c.72.04,1.26.2,1.61.48.35.28.59.77.73,1.48.3,1.85.41,3.82.34,5.92,0,.61-.14,1.19-.39,1.76-.25.57-.44.86-.57.88-.14-.01-.22-.16-.23-.45.1-.78.13-1.65.09-2.6-.04-.95-.11-2.24-.19-3.88-.07-.81-.36-1.22-.88-1.24h-4.8ZM264.98,338.07c-.14-.01-.21-.16-.23-.45v-6.49c.01-.26-.12-.43-.37-.5-1.1-.27-1.78-.59-2.04-.97-.19-.27-.29-.57-.29-.93,0-.14.02-.3.05-.46.1-.54.28-.97.54-1.29.1-.12.18-.17.24-.17.07,0,.12.06.15.17.12.37.45.69.99.94.51.2.87.37,1.07.52.2.15.33.4.4.76.07.36.11.79.14,1.3.02.5.05,1.36.08,2.57v1.34c.01.67,0,1.15-.03,1.43-.04.42-.13.89-.28,1.42-.15.52-.29.8-.42.82ZM274.05,338.08h-.03c-.12,0-.17-.07-.17-.21v-.1c.04-.11.05-.33.05-.67,0-.61-.04-1.58-.13-2.93-.1-1.44-.14-2.47-.14-3.09,0-.29.01-.49.03-.6.01-.08.02-.15.02-.21,0-.24-.1-.36-.31-.36h-5.03c-.21.01-.32.17-.32.47,0,.07-.01.2-.01.39,0,.49.02,1.35.06,2.58.03.99.04,1.73.04,2.2,0,.35,0,.56-.02.64-.1.56-.33,1.09-.71,1.57-.13.18-.24.28-.33.28-.07,0-.13-.08-.17-.23-.07-.32-.12-1.66-.14-4.01v-.08c0-.95.12-1.73.35-2.33.23-.6.46-1.09.69-1.47h-.43c-.35-.06-.61-.22-.76-.47-.12-.18-.17-.4-.17-.65,0-.43.13-.89.4-1.4.18-.36.34-.54.47-.54.07,0,.13.05.19.16.06.11.16.23.3.37.16.12.33.18.52.18h5.68c1.12.01,1.67.61,1.67,1.8,0,.59-.26.98-.79,1.17-.08.1-.12.22-.12.37v.03c.25,2.01.38,3.56.38,4.66,0,.35-.02.6-.05.72-.06.22-.2.57-.43,1.04-.22.47-.42.71-.59.73ZM277.19,338.05c-.59,0-.89-.09-.89-.27v-.06c.36-.82.64-1.35.87-1.6.22-.25.64-.38,1.26-.4l4.9-.1c.27,0,.41-.17.41-.51v-.02c-.13-2.01-.3-3.35-.52-4-.22-.65-.49-.99-.81-1l-3.98-.2c-.36.2-.54.46-.54.78,0,.07.01.16.03.24.05.21.13.34.22.38.09.04.28.07.58.08h.56c.29,0,.51.05.66.14.16.1.23.27.23.53,0,.8-.34,1.19-1.01,1.19h-.12c-.61,0-.98.04-1.11.09-.13.05-.31.24-.56.57-.16,0-.24-.08-.24-.26.08-.15.12-.27.12-.35,0-.05-.1-.25-.29-.58-.11-.2-.16-.4-.16-.6,0-.26.15-.71.44-1.37.2-.44.43-.83.66-1.16h.01c-.18-.29-.27-.58-.27-.88,0-.06.01-.2.04-.42.02-.22.14-.52.35-.91.18-.36.34-.54.47-.54.07,0,.13.05.19.16.06.11.16.23.3.37.16.12.33.18.52.18l2.51.22c.76.03,1.27.3,1.55.83.28.53.46,1.13.53,1.8.17,1.31.26,2.43.26,3.35,0,.23,0,.45-.02.66-.05,1.02-.18,1.65-.39,1.89h0c0,.13-.17.41-.51.84-.34.43-.73.66-1.18.7l-5.07.2ZM290.1,337.97c-.84.1-1.77.15-2.77.15-.35,0-.71,0-1.08-.02h-.07c-.22,0-.33-.1-.33-.29-.31-2.01-.47-3.45-.47-4.31,0-.58.06-1.01.17-1.27.14-.31.33-.68.58-1.11.21-.34.32-.59.32-.76,0-.04,0-.07-.02-.1l-.58-.33c-.29-.19-.44-.55-.44-1.07v-.1c.18-.73.39-1.28.61-1.65.13-.22.24-.33.35-.33.08,0,.16.06.22.19.13.23.3.43.5.58l.84.38c.41.21.62.54.62,1v.12c-.28,1.18-.56,1.78-.87,1.78l-.5-.18c-.14,0-.31.19-.53.58-.16.29-.23.66-.23,1.12,0,.68.17,1.78.51,3.29.03.1.1.15.19.15s.22-.05.38-.16c.9-1.9,1.77-3.62,2.62-5.15.05-.11.08-.21.08-.3,0-.12-.05-.22-.14-.31-.23-.25-.37-.51-.43-.79v-.12c-.01-.25.11-.57.34-.97.29-.46.64-.82,1.06-1.07.16-.1.3-.14.42-.14s.21.05.29.15c.06.43.23.75.51.96.41.27.62.66.62,1.17,0,.59-.18,1.16-.55,1.71-.19.32-.36.48-.52.48-.17,0-.44-.18-.8-.54-.13-.15-.25-.22-.37-.22h-.02l-2.53,5.04v.06c0,.16.07.24.22.24h.05c1.83-.1,2.88-.18,3.15-.25.27-.07.57-.29.91-.65.34-.36.78-.93,1.31-1.7.53-.77.87-1.32,1.02-1.64.07-.16.1-.31.1-.46s-.04-.31-.11-.47c-.48-.69-.71-1.34-.71-1.96v-.21c.08-.69.67-1.25,1.76-1.68h.11c.14-.01.21.05.21.17v.18c-.01.14.02.28.07.42.06.18.19.42.4.71.18.28.28.65.28,1.11,0,.54-.29,1.13-.87,1.76-.58.63-1.23,1.46-1.95,2.49-.72,1.03-1.28,2-1.68,2.9-.4.9-1.15,1.37-2.26,1.39h0ZM306.29,334.31c-.03.68-.14,1.19-.34,1.53-.17.34-.48.81-.93,1.42-.45.61-.84.87-1.18.8h-4c-.71,0-1.03-.1-.94-.33.55-.82.94-1.35,1.16-1.6.22-.25.64-.38,1.26-.4h3.79c.27.03.4-.08.39-.34.06-.46.01-1.23-.14-2.31-.16-1.08-.55-1.89-1.17-2.42-.63-.53-1.39-.8-2.31-.82-.91.23-1.65.6-2.21,1.11-.56.51-.99,1.25-1.29,2.22-.3.98-.45,2.38-.45,4.21-.19.39-.36.62-.52.69-.15.07-.25-.13-.28-.61,0-.74.16-1.83.45-3.27.29-1.44.84-2.64,1.65-3.6-1.07-.12-1.71-.4-1.91-.86-.21-.46-.29-.91-.23-1.36.05-.45.23-.88.54-1.29.21-.37.41-.35.59.08.11.31.3.51.58.62l.59.19c.65.1.91.72.77,1.89.35-.11.7-.44,1.05-.98.35-.55.57-.93.66-1.13.09-.21.19-.3.32-.29.48,0,1.06.21,1.76.62.69.41,1.22.92,1.57,1.53.35.61.58,1.37.68,2.3.1.92.14,1.72.11,2.41ZM309.79,338.07c-.14-.01-.21-.16-.23-.45v-6.49c.01-.26-.12-.43-.37-.5-1.1-.27-1.78-.59-2.04-.97-.19-.27-.29-.57-.29-.93,0-.14.02-.3.05-.46.1-.54.28-.97.54-1.29.1-.12.18-.17.24-.17.07,0,.12.06.15.17.12.37.45.69.99.94.51.2.87.37,1.07.52.2.15.33.4.4.76.07.36.11.79.14,1.3.02.5.05,1.36.08,2.57v1.34c.01.67,0,1.15-.03,1.43-.04.42-.13.89-.28,1.42-.15.52-.29.8-.42.82Z" fill="#b17b2b"/><path d="M100.44,195.75c2-.18,3.88-.54,5.63-1.11.56-.21.98-.32,1.26-.32.77,0,1.16.46,1.16,1.37,0,.84-.32,2.11-.95,3.79-1.12,3.3-2,5.62-2.63,6.95s-1.4,2.33-2.32,3c-.91.67-2.32,1.18-4.21,1.53,1.05,2.6,1.58,5.69,1.58,9.27,0,4-.6,8.06-1.79,12.16-1.19,4.11-2.81,7.51-4.84,10.22-2.04,2.7-4.28,4.05-6.74,4.05-.77,0-1.32-.05-1.63-.16-.32-.11-.47-.33-.47-.68,0-.28.18-.77.53-1.47l1.16-2.32c2.18-4.99,3.26-10.5,3.26-16.54,0-4.28-.53-7.83-1.58-10.64-.42-1.19-1.09-1.91-2-2.16-.91-.25-2.84-.4-5.79-.47l-18.75-.21c-4.56,0-6.85-1.4-6.85-4.21,0-1.19.35-2.56,1.05-4.11s1.86-3.72,3.48-6.53l1.69-3.16c.7-1.26,1.33-1.9,1.9-1.9.35,0,.67.21.95.63s.6,1.05.95,1.9c.28.63.9,1.04,1.84,1.21.95.18,2.76.26,5.42.26l12.53-.11h6.95c4.14,0,7.21-.09,9.22-.26ZM113.66,192.86c-1.76,4.07-2.63,8.14-2.63,12.22,0,2.18.23,4.25.68,6.21s1.14,4.46,2.05,7.48c.98,3.3,1.7,5.99,2.16,8.06.46,2.07.68,4.37.68,6.9,0,2.81-.32,5.48-.95,8l-.21,1.58c0,1.26.67,1.9,2,1.9.49,0,1.14-.09,1.95-.26.81-.18,1.56-.3,2.26-.37,9.76-.84,18.29-3.58,25.59-8.22,7.3-4.63,10.95-12.32,10.95-23.07,0-5.55-.91-9.87-2.74-12.95s-5.44-4.6-10.85-4.53l-20.43.11c-2.46,0-4.25-.16-5.37-.47-1.12-.32-1.9-1.14-2.32-2.48-.35-1.12-.81-1.69-1.37-1.69-.42,0-.91.53-1.47,1.58ZM149.42,212.71c.53.39.79,1.21.79,2.48,0,3.65-1.51,6.64-4.53,8.95s-6.46,3.97-10.32,4.95-7.06,1.47-9.58,1.47c-1.05,0-1.58-.11-1.58-.32.28-1.12.42-2.35.42-3.69,0-.91-.09-1.9-.26-2.95s-.33-2.07-.47-3.05c-.14-.7-.26-1.42-.37-2.16-.11-.74-.16-1.42-.16-2.05,0-1.33.28-2.33.84-3,.56-.67,1.58-1,3.05-1l15.17-.11,4.11-.11c1.4,0,2.37.19,2.9.58ZM164.59,196.44c.81-1.97,1.67-3.41,2.58-4.32.77-.63,1.3-.95,1.58-.95.42,0,.7.32.84.95.42,1.4.98,2.4,1.69,3,.7.6,1.54.95,2.53,1.05.98.11,2.63.16,4.95.16h17.17c6.18,0,10.69,1.97,13.53,5.9,2.84,3.93,4.27,8.99,4.27,15.17,0,5.2-.91,10.43-2.74,15.69s-4.04,9.13-6.64,11.59c-.56.56-1.16.84-1.79.84s-.95-.56-.95-1.69l.21-1.9c.91-4.14,1.37-8.36,1.37-12.64,0-4.84-.83-8.86-2.48-12.06-1.65-3.19-4.44-4.79-8.37-4.79h-13.06c.63,3.37.95,6.81.95,10.32,0,4.77-.68,9.08-2.05,12.9-1.37,3.83-3.49,6.76-6.37,8.79-1.26.84-2.14,1.26-2.63,1.26-.63,0-.95-.56-.95-1.69,0-.56.04-1.02.11-1.37.7-4.49,1.05-8.85,1.05-13.06,0-8.43-1.58-15.69-4.74-21.8-.84-1.69-1.26-3.48-1.26-5.37,0-2.04.4-4.04,1.21-6ZM234.99,235.2c-1.26,4.63-3.51,8-6.74,10.11-.91.63-1.61.95-2.11.95s-.74-.42-.74-1.26c0-.63.11-1.47.32-2.53.21-3.93.32-7.9.32-11.9s-.11-8.11-.32-11.9c-.07-2.04-.54-3.65-1.42-4.84-.88-1.19-2.16-2.25-3.84-3.16s-2.93-1.74-3.74-2.48c-.81-.74-1.21-1.63-1.21-2.69,0-.84.39-1.93,1.16-3.26l4.74-8c.91-1.26,1.54-1.9,1.9-1.9.56,0,1.19.74,1.9,2.21.35.77.79,1.37,1.32,1.79.53.42,1.42,1.05,2.69,1.9,2.39,1.47,4.25,3.05,5.58,4.74s2.04,4.18,2.11,7.48v4c0,9.2-.63,16.11-1.9,20.75ZM314.3,217.5c0-6.11-1.47-11.15-4.42-15.11-2.95-3.97-7.41-5.95-13.38-5.95h-22.64c-2.88,0-4.99-.18-6.32-.53s-2.11-1.19-2.32-2.53c-.14-.7-.37-1.18-.68-1.42-.32-.25-.68-.16-1.11.26-2.88,2.67-4.32,5.62-4.32,8.85,0,2.18.7,4.42,2.11,6.74,1.54,2.46,2.67,4.92,3.37,7.37s1.05,5.13,1.05,8c0,4.21-.84,9.55-2.53,16.01-.63,2.53-.95,4.21-.95,5.06,0,.49.07.83.21,1,.14.18.42.26.84.26.21,0,.91-.11,2.11-.32s2.28-.32,3.26-.32l29.81.21c3.3,0,5.51-.63,6.64-1.9,2.88-3.02,5.14-6.86,6.79-11.53,1.65-4.67,2.48-9.39,2.48-14.17ZM273.65,229.93c0-.35.11-.77.32-1.26.91-2.32,1.37-4.74,1.37-7.27s-.46-5.55-1.37-8.85h18.96c4.56,0,7.9,1.02,10.01,3.05s3.16,4.53,3.16,7.48c0,1.97-.44,3.74-1.32,5.32-.88,1.58-1.84,2.37-2.9,2.37h-26.86c-.91,0-1.37-.28-1.37-.84ZM327.68,210.87l5.06-8.43c.42-.84.63-1.4.63-1.69,0-.84-.67-1.54-2-2.11-2.18-1.05-3.26-2.95-3.26-5.69s.98-5.3,2.95-8.11c.28-.49.42-.88.42-1.16,0-.49-.32-.67-.95-.53-4.42,1.33-7.92,3.6-10.48,6.79-2.56,3.19-3.84,6.58-3.84,10.16,0,2.39.61,4.62,1.84,6.69,1.23,2.07,3.07,3.74,5.53,5,.84.49,1.51.74,2,.74.7,0,1.4-.56,2.11-1.69ZM346.32,210.87l5.06-8.43c.42-.84.63-1.4.63-1.69,0-.84-.67-1.54-2-2.11-2.18-1.05-3.26-2.95-3.26-5.69s.98-5.3,2.95-8.11c.28-.49.42-.88.42-1.16,0-.49-.32-.67-.95-.53-4.42,1.33-7.92,3.6-10.48,6.79-2.56,3.19-3.84,6.58-3.84,10.16,0,2.39.61,4.62,1.84,6.69,1.23,2.07,3.07,3.74,5.53,5,.84.49,1.51.74,2,.74.7,0,1.4-.56,2.11-1.69ZM365.91,198.02c-.7-.56-1.39-1.12-2.05-1.69-.67-.56-1.18-1.12-1.53-1.69-.77-1.4-1.37-2.11-1.79-2.11s-.88.46-1.37,1.37l-4.74,8c-.56.84-.84,1.76-.84,2.74,0,1.12.44,2.18,1.32,3.16.88.98,2.23,2.18,4.05,3.58l2.84,2.32c.98.91,1.47,2.04,1.47,3.37,0,.77-.16,1.69-.47,2.74-.32,1.05-.65,2.07-1,3.05-.07.14-.11.35-.11.63,0,.63.35.95,1.05.95l1.05-.21c2.39-.63,4.55-2.42,6.48-5.37,1.93-2.95,2.9-5.97,2.9-9.06s-.63-5.25-1.9-6.9c-1.26-1.65-3.05-3.28-5.37-4.9ZM388.24,198.02c-.7-.56-1.39-1.12-2.05-1.69-.67-.56-1.18-1.12-1.53-1.69-.77-1.4-1.37-2.11-1.79-2.11s-.88.46-1.37,1.37l-4.74,8c-.56.84-.84,1.76-.84,2.74,0,1.12.44,2.18,1.32,3.16.88.98,2.23,2.18,4.05,3.58l2.84,2.32c.98.91,1.47,2.04,1.47,3.37,0,.77-.16,1.69-.47,2.74-.32,1.05-.65,2.07-1,3.05-.07.14-.11.35-.11.63,0,.63.35.95,1.05.95l1.05-.21c2.39-.63,4.55-2.42,6.48-5.37,1.93-2.95,2.9-5.97,2.9-9.06s-.63-5.25-1.9-6.9c-1.26-1.65-3.05-3.28-5.37-4.9ZM401.04,196.44c.81-1.97,1.67-3.41,2.58-4.32.77-.63,1.3-.95,1.58-.95.42,0,.7.32.84.95.42,1.4.98,2.4,1.69,3,.7.6,1.54.95,2.53,1.05.98.11,2.63.16,4.95.16h17.17c6.18,0,10.69,1.97,13.53,5.9,2.84,3.93,4.27,8.99,4.27,15.17,0,5.2-.91,10.43-2.74,15.69s-4.04,9.13-6.64,11.59c-.56.56-1.16.84-1.79.84s-.95-.56-.95-1.69l.21-1.9c.91-4.14,1.37-8.36,1.37-12.64,0-4.84-.83-8.86-2.48-12.06-1.65-3.19-4.44-4.79-8.37-4.79h-13.06c.63,3.37.95,6.81.95,10.32,0,4.77-.68,9.08-2.05,12.9-1.37,3.83-3.49,6.76-6.37,8.79-1.26.84-2.14,1.26-2.63,1.26-.63,0-.95-.56-.95-1.69,0-.56.04-1.02.11-1.37.7-4.49,1.05-8.85,1.05-13.06,0-8.43-1.58-15.69-4.74-21.8-.84-1.69-1.26-3.48-1.26-5.37,0-2.04.4-4.04,1.21-6Z" fill="#fff"/><g clip-path="url(#d)"><path d="M116.34,205.05s-2.11,26.42,4.23,29.59c6.34,3.17,10.57,3.17,17.97-1.06,7.4-4.23,12.68-3.17,14.8-9.51s8.46-12.68-1.06-15.85-4.23-4.23-12.68-5.28c-8.46-1.06-23.25,2.11-23.25,2.11" fill="#fff"/><path d="M146.54,224.22c-.92.96-5.06,5.09-11.87,5.09s-12.26-6.79-12.26-12.5c0-3.4,1.96-5.19,5.63-5.19,4.71,0,5.93,4.14,5.93,4.14h.87s1.31-4.23,5.93-4.23c4.01,0,5.63,1.39,5.63,4.49,0,4.3-6.19,7.99-12,7.49-3.57-.31-6.98-3.1-8.73-5.61l-.7,2.01c1.36,3.58,5.86,6.62,9.42,7.07,6.37.81,12.87-4.19,12.87-10.96,0-5.15-2.23-7.98-6.5-7.98-3.49,0-5.54,3.62-6.37,5.54-.83-1.88-2.84-5.45-6.37-5.45-3.97,0-6.5,3.49-6.5,8.68,0,9.25,6.61,15.99,13.13,15.99,4.45,0,9.52-3.04,12.48-6.22l-.61-2.36Z" fill="#b17b2b"/></g></g></svg>