<?xml version="1.0" encoding="UTF-8"?><svg id="a" xmlns="http://www.w3.org/2000/svg" viewBox="0 0 605.76 348.68"><path d="M11.41,261.47v13.14c0,1.96-1.09,3.04-3.04,3.04H3.04c-1.96,0-3.04-1.09-3.04-3.04v-40.19c0-1.96,1.09-3.04,3.04-3.04,3.04-.11,8.04-.11,12.6-.11,11.62,0,19.66,4.02,19.66,14.56,0,6.84-3.8,11.19-8.36,13.14l4.56,6.3c1.74,2.39,3.37,3.58,5.54,4.13,1.85.54,2.82,1.41,2.82,3.26v2.17c0,3.04-2.5,3.26-4.89,3.26-5.87,0-9.67-2.17-12.27-5.97l-7.39-10.64h-3.91ZM19.12,253.11c.98-.54,4.45-2.72,4.45-6.84,0-4.45-3.48-6.19-7.49-6.19h-4.67v13.03h7.71Z" fill="#ea0029"/><path d="M74.51,268.42c1.96,0,3.04,1.09,3.04,3.04v3.15c0,1.96-1.09,3.04-3.04,3.04h-26.5c-1.96,0-3.04-1.09-3.04-3.04v-40.19c0-1.96,1.09-3.04,3.04-3.04h25.64c1.96,0,3.04,1.09,3.04,3.04v3.04c0,1.96-1.09,3.04-3.04,3.04h-17.27v9.12h14.34c1.96,0,3.04,1.09,3.04,3.04v2.93c0,1.96-1.09,3.04-3.04,3.04h-14.34v9.78h18.14Z" fill="#ea0029"/><path d="M88.42,277.66c-1.96,0-3.04-1.09-3.04-3.04v-40.19c0-1.96,1.09-3.04,3.04-3.04h25.85c1.96,0,3.04,1.09,3.04,3.04v3.04c0,1.96-1.09,3.04-3.04,3.04h-17.49v11.41h14.56c1.96,0,3.04,1.09,3.04,3.04v3.15c0,1.96-1.09,3.04-3.04,3.04h-14.56v13.47c0,1.96-1.09,3.04-3.04,3.04h-5.32Z" fill="#ea0029"/><path d="M160.54,231.38c1.96,0,3.04,1.09,3.04,3.04v21.62c0,1.85,0,4.13-.11,6.19-.65,10.43-8.58,16.29-20.31,16.29-10.65,0-18.47-5.54-19.44-15.97-.22-2.06-.22-4.45-.22-6.41v-21.72c0-1.96,1.09-3.04,3.04-3.04h5.32c1.96,0,3.04,1.09,3.04,3.04v24.22c0,6.52,2.28,10.1,8.69,10.1,5.65,0,8.47-3.37,8.47-9.88v-24.44c0-1.96,1.09-3.04,3.04-3.04h5.43Z" fill="#ea0029"/><path d="M211.48,274.18c.76,2.06-.22,3.48-2.39,3.48h-6.19c-1.74,0-2.93-.76-3.48-2.39l-2.82-7.82h-15.53l-2.5,7.71c-.54,1.74-1.63,2.5-3.37,2.5h-5.97c-2.28,0-3.15-1.41-2.39-3.48l15.64-40.73c.65-1.63,1.85-2.39,3.58-2.39h6.63c1.74,0,2.82.76,3.48,2.39l15.32,40.73ZM189.32,242.79h-.54l-5.21,16.29h10.75l-5-16.29Z" fill="#ea0029"/><path d="M224.62,231.38c1.96,0,3.04,1.09,3.04,3.04v15.21h17.71v-15.21c0-1.96,1.09-3.04,3.04-3.04h5.54c1.96,0,3.04,1.09,3.04,3.04v40.19c0,1.96-1.09,3.04-3.04,3.04h-5.54c-1.96,0-3.04-1.09-3.04-3.04v-15.32h-17.71v15.32c0,1.96-1.09,3.04-3.04,3.04h-5.32c-1.96,0-3.04-1.09-3.04-3.04v-40.19c0-1.96,1.09-3.04,3.04-3.04h5.32Z" fill="#ea0029"/><path d="M305,264.73h.33l9.89-30.85c.54-1.74,1.63-2.5,3.37-2.5h5.87c2.28,0,3.15,1.41,2.39,3.48l-15.64,40.52c-.65,1.63-1.74,2.39-3.58,2.39h-5.43c-1.85,0-2.93-.76-3.58-2.39l-15.86-40.52c-.87-2.06.11-3.48,2.39-3.48h6.3c1.74,0,2.93.76,3.48,2.5l10.1,30.85Z" fill="#ea0029"/><path d="M331.72,230.62c-.11-2.06.87-3.15,2.93-3.15h5.76c2.06,0,3.15,1.09,2.93,3.15l-1.41,16.62c-.22,1.96-1.19,2.93-3.15,2.93h-2.93c-1.96,0-3.04-.98-3.15-2.93l-.98-16.62Z" fill="#ea0029"/><path d="M374.41,269.08c3.48,0,6.52-.65,8.69-1.3,2.17-.65,3.37,0,3.48,2.28l.11,3.37c.11,1.74-.65,2.93-2.28,3.48-2.39.87-6.3,1.85-11.84,1.85-13.79,0-22.59-8.04-22.59-23.57s9.23-24.55,23.68-24.55c4.02,0,8.15.65,9.99,1.19,1.74.54,2.5,1.63,2.39,3.48l-.22,3.26c-.11,2.17-1.41,2.93-3.48,2.39-2.06-.43-4.89-.98-8.15-.98-8.15,0-12.49,4.89-12.49,14.56,0,10.43,5,14.56,12.71,14.56Z" fill="#ea0029"/><path d="M402.54,231.38c1.96,0,3.04,1.09,3.04,3.04v15.21h17.71v-15.21c0-1.96,1.09-3.04,3.04-3.04h5.54c1.96,0,3.04,1.09,3.04,3.04v40.19c0,1.96-1.09,3.04-3.04,3.04h-5.54c-1.96,0-3.04-1.09-3.04-3.04v-15.32h-17.71v15.32c0,1.96-1.09,3.04-3.04,3.04h-5.32c-1.96,0-3.04-1.09-3.04-3.04v-40.19c0-1.96,1.09-3.04,3.04-3.04h5.32Z" fill="#ea0029"/><path d="M473.57,268.42c1.96,0,3.04,1.09,3.04,3.04v3.15c0,1.96-1.09,3.04-3.04,3.04h-26.5c-1.96,0-3.04-1.09-3.04-3.04v-40.19c0-1.96,1.09-3.04,3.04-3.04h25.64c1.96,0,3.04,1.09,3.04,3.04v3.04c0,1.96-1.09,3.04-3.04,3.04h-17.27v9.12h14.34c1.96,0,3.04,1.09,3.04,3.04v2.93c0,1.96-1.09,3.04-3.04,3.04h-14.34v9.78h18.14Z" fill="#ea0029"/><path d="M513.98,238.88c-.11,2.17-1.41,3.04-3.48,2.39-2.39-.65-5.76-1.41-9.12-1.41-3.58,0-5.43,1.52-5.43,4.02,0,6.52,20.31,5,20.31,19.66,0,9.99-7.82,14.77-18.25,14.77-4.89,0-9.56-.98-11.51-1.63-1.85-.65-2.61-1.63-2.5-3.48l.22-3.69c.11-2.17,1.41-2.93,3.58-2.28,2.61.76,6.19,1.63,10.32,1.63s6.19-1.52,6.19-4.56c0-7.5-20.1-5.65-20.1-19.77,0-7.71,5.87-13.8,17.38-13.8,4.35,0,7.82.65,9.99,1.19,1.74.43,2.5,1.63,2.5,3.37l-.11,3.58Z" fill="#ea0029"/><path d="M553.41,268.42c1.96,0,3.04,1.09,3.04,3.04v3.15c0,1.96-1.09,3.04-3.04,3.04h-26.5c-1.96,0-3.04-1.09-3.04-3.04v-40.19c0-1.96,1.09-3.04,3.04-3.04h25.63c1.96,0,3.04,1.09,3.04,3.04v3.04c0,1.96-1.09,3.04-3.04,3.04h-17.27v9.12h14.34c1.96,0,3.04,1.09,3.04,3.04v2.93c0,1.96-1.09,3.04-3.04,3.04h-14.34v9.78h18.14Z" fill="#ea0029"/><path d="M564.27,234.43c0-1.96,1.09-3.04,3.04-3.04,3.37-.11,8.8-.11,13.58-.11,15.32,0,24.87,7.28,24.87,22.92,0,17.92-12.06,23.57-25.42,23.57-4.56,0-9.78-.11-13.04-.11-1.96-.11-3.04-1.19-3.04-3.15v-40.08ZM575.68,268.53c1.19.11,2.82.11,5.21.11,8.69,0,13.04-4.78,13.04-14.12,0-10.1-4.89-14.01-13.69-14.01h-4.56v28.02Z" fill="#ea0029"/><path d="M123.03,304.98v2.95c0,1.97-1.09,3.06-3.06,3.06h-4.59v33.54c0,1.97-1.09,3.06-3.06,3.06h-5.35c-1.97,0-3.06-1.09-3.06-3.06v-33.54h-21.41c-1.97,0-3.06-1.09-3.06-3.06v-2.95c0-1.97,1.09-3.06,3.06-3.06h37.47c1.97,0,3.06,1.09,3.06,3.06Z" fill="#ea0029"/><path d="M181.5,325.41c0,14.86-7.65,23.27-21.3,23.27s-21.09-7.76-21.09-21.52c0-7.43,2.84-13.22,7.76-16.17h-11.03c-1.97,0-3.06-1.09-3.06-3.06v-2.95c0-1.97,1.09-3.06,3.06-3.06h21.41c15.51,0,24.25,8.41,24.25,23.49ZM169.7,325.74c0-8.74-3.06-12.89-9.5-12.89s-9.28,4.15-9.28,12.89,2.95,13.22,9.28,13.22,9.5-4.26,9.5-13.22Z" fill="#ea0029"/><path d="M232.05,324.42v20.1c0,1.97-1.09,3.06-3.06,3.06h-5.35c-1.97,0-3.06-1.09-3.06-3.06v-23.05c0-7.21-4.04-10.6-14.2-10.6-1.09,0-2.18,0-3.28.11v33.54c0,1.97-1.09,3.06-3.06,3.06h-5.13c-1.97,0-3.06-1.09-3.06-3.06v-38.02c-.11-1.75.76-2.95,2.51-3.5,4.04-1.2,9.4-1.86,14.75-1.86,16.06,0,22.94,8.52,22.94,23.27Z" fill="#ea0029"/><path d="M249.24,301.92h5.35c1.97,0,3.06,1.09,3.06,3.06v39.55c0,1.97-1.09,3.06-3.06,3.06h-5.35c-1.97,0-3.06-1.09-3.06-3.06v-39.55c0-1.97,1.09-3.06,3.06-3.06Z" fill="#ea0029"/><path d="M302.52,310.45c-3.72,0-7.76.33-11.03.98-2.18.44-3.28-.44-3.39-2.62l-.11-2.73c-.11-1.75.76-2.95,2.51-3.5,4.04-1.2,9.4-1.86,14.75-1.86,16.06,0,22.94,8.52,22.94,23.27v20.1c0,1.97-1.09,3.06-3.06,3.06h-5.35c-1.97,0-3.06-1.09-3.06-3.06v-23.05c0-7.21-4.04-10.6-14.2-10.6ZM291.05,319.19h5.13c1.97,0,3.06,1.09,3.06,3.06v21.85c0,1.97-1.09,3.06-3.06,3.06h-5.13c-1.97,0-3.06-1.09-3.06-3.06v-21.85c0-1.97,1.09-3.06,3.06-3.06Z" fill="#ea0029"/><path d="M379.86,344.32l-4.15,2.84c-1.64,1.09-3.17.87-4.48-.66l-15.62-18.79c-3.71,1.42-5.79,6.34-5.79,13.87v2.51c0,1.97-1.09,3.06-3.06,3.06h-5.9c-1.97,0-3.06-1.09-3.06-3.06v-2.51c0-10.6,4.48-17.7,12.56-20.32l-10.71-12.89c-1.31-1.53-1.09-3.06.54-4.15l4.15-2.95c1.64-1.09,3.17-.87,4.48.65l15.4,18.68c3.28-1.75,4.81-6.12,4.81-13.55v-2.51c0-1.97,1.09-3.06,3.06-3.06h5.9c1.97,0,3.06,1.09,3.06,3.06v2.51c0,10.38-4.15,16.93-11.8,19.56l11.14,13.55c1.31,1.53,1.09,3.06-.54,4.15Z" fill="#ea0029"/><path d="M394.06,301.5h5.35c1.97,0,3.06,1.09,3.06,3.06v39.55c0,1.97-1.09,3.06-3.06,3.06h-5.35c-1.97,0-3.06-1.09-3.06-3.06v-39.55c0-1.97,1.09-3.06,3.06-3.06Z" fill="#ea0029"/><path d="M443.24,322.69c0-9.61-2.84-13.11-8.19-13.11-6.01,0-9.07,3.93-9.07,9.72,0,2.29,1.42,3.06,3.6,3.06,1.64,0,3.06.54,3.06,2.84v2.08c0,1.86-.76,2.95-2.4,3.5-1.42.44-3.39.77-5.79.77-7.21,0-9.94-3.5-9.94-9.72,0-12.67,7.43-21.09,20.98-21.09,11.91,0,19.77,6.23,19.77,22.94s-6.88,24.47-22.18,24.47c-6.12,0-10.71-1.09-13.33-1.86-1.75-.55-2.62-1.75-2.51-3.5l.11-2.73c.11-2.18,1.2-3.06,3.39-2.62,2.29.44,5.68.98,9.28.98,9.5,0,13.22-4.26,13.22-15.73Z" fill="#ea0029"/><path d="M475.13,310.45c-3.72,0-7.76.33-11.03.98-2.18.44-3.28-.44-3.39-2.62l-.11-2.73c-.11-1.75.76-2.95,2.51-3.5,4.04-1.2,9.4-1.86,14.75-1.86,16.06,0,22.94,8.52,22.94,23.27v20.1c0,1.97-1.09,3.06-3.06,3.06h-5.35c-1.97,0-3.06-1.09-3.06-3.06v-23.05c0-7.21-4.04-10.6-14.2-10.6Z" fill="#ea0029"/><path d="M393.73,121.15c-6.86,7.18-37.88,38.09-88.89,38.09s-91.76-50.83-91.76-93.6c0-25.47,14.69-38.86,42.13-38.86,35.27,0,44.41,31.02,44.41,31.02h6.53s9.8-31.68,44.41-31.68c30.04,0,42.13,10.45,42.13,33.63,0,32.16-46.36,59.78-89.8,56.05-26.68-2.29-52.26-23.24-65.31-42.01l-5.22,15.02c10.15,26.81,43.85,49.56,70.53,52.94,47.71,6.04,96.33-31.32,96.33-82,0-38.53-16.65-59.76-48.66-59.76-26.12,0-41.47,27.1-47.68,41.47-6.2-14.04-21.23-40.82-47.68-40.82-29.72,0-48.66,26.12-48.66,64.98,0,69.23,49.44,119.73,98.29,119.73,33.31,0,71.25-22.74,93.46-46.58l-4.57-17.63Z" fill="#ea0029"/></svg>