<?xml version="1.0" encoding="UTF-8"?><svg id="a" xmlns="http://www.w3.org/2000/svg" viewBox="0 0 606.01 379.8"><path d="M470.34,253.34c.51.33,1.41.68,2.27.68,1.25,0,1.84-.62,1.84-1.41,0-.82-.49-1.27-1.76-1.74-1.7-.61-2.5-1.54-2.5-2.68,0-1.52,1.23-2.77,3.26-2.77.96,0,1.8.27,2.32.59l-.43,1.25c-.37-.23-1.05-.55-1.93-.55-1.02,0-1.58.59-1.58,1.29,0,.78.57,1.13,1.8,1.6,1.64.62,2.48,1.45,2.48,2.85,0,1.66-1.29,2.83-3.53,2.83-1.03,0-1.99-.25-2.66-.64l.43-1.31Z" fill="#36ac4a"/><path d="M478.3,248.74c0-1.21-.04-2.19-.08-3.09h1.54l.08,1.62h.04c.7-1.15,1.82-1.84,3.36-1.84,2.28,0,4,1.93,4,4.8,0,3.4-2.07,5.08-4.3,5.08-1.25,0-2.34-.55-2.91-1.48h-.04v5.14h-1.7v-10.23ZM480,251.25c0,.25.04.49.08.7.31,1.19,1.35,2.01,2.58,2.01,1.82,0,2.87-1.48,2.87-3.65,0-1.89-1-3.52-2.81-3.52-1.17,0-2.27.84-2.6,2.13-.06.21-.12.47-.12.7v1.62Z" fill="#36ac4a"/><path d="M489.42,248.6c0-1.11-.02-2.07-.08-2.95h1.5l.06,1.86h.08c.43-1.27,1.46-2.07,2.62-2.07.2,0,.33.02.49.06v1.62c-.18-.04-.35-.06-.59-.06-1.21,0-2.07.92-2.3,2.21-.04.23-.08.51-.08.8v5.04h-1.7v-6.5Z" fill="#36ac4a"/><path d="M496.56,250.69c.04,2.32,1.52,3.28,3.24,3.28,1.23,0,1.97-.21,2.62-.49l.29,1.23c-.61.27-1.64.59-3.14.59-2.91,0-4.65-1.91-4.65-4.76s1.68-5.1,4.43-5.1c3.09,0,3.91,2.71,3.91,4.45,0,.35-.04.62-.06.8h-6.64ZM501.6,249.46c.02-1.09-.45-2.79-2.38-2.79-1.74,0-2.5,1.6-2.64,2.79h5.02Z" fill="#36ac4a"/><path d="M510.62,255.1l-.14-1.19h-.06c-.53.74-1.54,1.41-2.89,1.41-1.91,0-2.89-1.35-2.89-2.71,0-2.28,2.03-3.53,5.68-3.51v-.2c0-.78-.21-2.19-2.15-2.19-.88,0-1.8.27-2.46.7l-.39-1.13c.78-.51,1.91-.84,3.1-.84,2.89,0,3.59,1.97,3.59,3.87v3.54c0,.82.04,1.62.16,2.27h-1.56ZM510.37,250.28c-1.87-.04-4,.29-4,2.13,0,1.11.74,1.64,1.62,1.64,1.23,0,2.01-.78,2.28-1.58.06-.18.1-.37.1-.55v-1.64Z" fill="#36ac4a"/><path d="M522.97,241.24v11.43c0,.84.02,1.8.08,2.44h-1.54l-.08-1.64h-.04c-.53,1.05-1.68,1.86-3.22,1.86-2.28,0-4.04-1.93-4.04-4.8-.02-3.14,1.93-5.08,4.24-5.08,1.45,0,2.42.68,2.85,1.45h.04v-5.64h1.72ZM521.25,249.5c0-.21-.02-.51-.08-.72-.25-1.09-1.19-1.99-2.48-1.99-1.78,0-2.83,1.56-2.83,3.65,0,1.91.94,3.5,2.79,3.5,1.15,0,2.21-.76,2.52-2.05.06-.23.08-.47.08-.74v-1.64Z" fill="#36ac4a"/><path d="M527.73,242.99c.02.59-.41,1.05-1.09,1.05-.61,0-1.03-.47-1.03-1.05s.45-1.07,1.07-1.07,1.05.47,1.05,1.07ZM525.82,255.1v-9.45h1.72v9.45h-1.72Z" fill="#36ac4a"/><path d="M530.39,248.21c0-.98-.02-1.78-.08-2.56h1.52l.1,1.56h.04c.47-.9,1.56-1.78,3.12-1.78,1.31,0,3.34.78,3.34,4.02v5.64h-1.72v-5.45c0-1.52-.57-2.79-2.19-2.79-1.13,0-2.01.8-2.3,1.76-.08.21-.12.51-.12.8v5.68h-1.72v-6.89Z" fill="#36ac4a"/><path d="M549.37,245.65c-.04.68-.08,1.45-.08,2.6v5.49c0,2.17-.43,3.5-1.35,4.32-.92.86-2.25,1.13-3.44,1.13s-2.38-.27-3.14-.78l.43-1.31c.62.39,1.6.74,2.77.74,1.76,0,3.05-.92,3.05-3.3v-1.05h-.04c-.53.88-1.54,1.58-3.01,1.58-2.34,0-4.02-1.99-4.02-4.61,0-3.2,2.09-5.02,4.26-5.02,1.64,0,2.54.86,2.95,1.64h.04l.08-1.43h1.5ZM547.59,249.38c0-.29-.02-.55-.1-.78-.31-1-1.15-1.82-2.4-1.82-1.64,0-2.81,1.39-2.81,3.57,0,1.86.94,3.4,2.79,3.4,1.05,0,2.01-.66,2.38-1.76.1-.29.14-.62.14-.92v-1.7Z" fill="#36ac4a"/><path d="M556.05,253.34c.51.33,1.41.68,2.27.68,1.25,0,1.84-.62,1.84-1.41,0-.82-.49-1.27-1.76-1.74-1.7-.61-2.5-1.54-2.5-2.68,0-1.52,1.23-2.77,3.26-2.77.96,0,1.8.27,2.32.59l-.43,1.25c-.37-.23-1.05-.55-1.93-.55-1.02,0-1.58.59-1.58,1.29,0,.78.57,1.13,1.8,1.6,1.64.62,2.48,1.45,2.48,2.85,0,1.66-1.29,2.83-3.53,2.83-1.03,0-1.99-.25-2.66-.64l.43-1.31Z" fill="#36ac4a"/><path d="M564.02,248.21c0-.98-.02-1.78-.08-2.56h1.5l.08,1.52h.06c.53-.9,1.41-1.74,2.97-1.74,1.29,0,2.27.78,2.68,1.89h.04c.29-.53.66-.94,1.05-1.23.57-.43,1.19-.66,2.09-.66,1.25,0,3.1.82,3.1,4.1v5.57h-1.68v-5.35c0-1.82-.66-2.91-2.05-2.91-.98,0-1.74.72-2.03,1.56-.08.23-.14.55-.14.86v5.84h-1.68v-5.66c0-1.5-.66-2.6-1.97-2.6-1.07,0-1.86.86-2.13,1.72-.1.25-.14.55-.14.84v5.7h-1.68v-6.89Z" fill="#36ac4a"/><path d="M582.22,242.99c.02.59-.41,1.05-1.09,1.05-.61,0-1.03-.47-1.03-1.05s.45-1.07,1.07-1.07,1.05.47,1.05,1.07ZM580.3,255.1v-9.45h1.72v9.45h-1.72Z" fill="#36ac4a"/><path d="M584.87,241.24h1.72v13.87h-1.72v-13.87Z" fill="#36ac4a"/><path d="M590.44,250.69c.04,2.32,1.52,3.28,3.24,3.28,1.23,0,1.97-.21,2.62-.49l.29,1.23c-.61.27-1.64.59-3.14.59-2.91,0-4.65-1.91-4.65-4.76s1.68-5.1,4.43-5.1c3.09,0,3.91,2.71,3.91,4.45,0,.35-.04.62-.06.8h-6.64ZM595.48,249.46c.02-1.09-.45-2.79-2.38-2.79-1.74,0-2.5,1.6-2.64,2.79h5.02Z" fill="#36ac4a"/><path d="M599.03,253.34c.51.33,1.41.68,2.27.68,1.25,0,1.84-.62,1.84-1.41,0-.82-.49-1.27-1.76-1.74-1.7-.61-2.5-1.54-2.5-2.68,0-1.52,1.23-2.77,3.26-2.77.96,0,1.8.27,2.32.59l-.43,1.25c-.37-.23-1.05-.55-1.93-.55-1.02,0-1.58.59-1.58,1.29,0,.78.57,1.13,1.8,1.6,1.64.62,2.48,1.45,2.48,2.85,0,1.66-1.29,2.83-3.53,2.83-1.03,0-1.99-.25-2.66-.64l.43-1.31Z" fill="#36ac4a"/><path d="M258.81,168.33l-1.65,7.33h-28.57v-16.7c0-3.58.85-6.14,3.41-11.3-2.9-.51-5.34-1.59-5.91-2.16.74-2.61,2.56-6.87,4.03-8.52l2.27.4,1.14,2.9c1.08.4,1.87.28,2.9.28h14.88c4.15,0,6.93,3.07,6.93,7.44v10.28c0,3.35,0,6.7.57,10.06ZM250.4,168.33c-.57-3.24-.63-6.42-.63-9.66v-8.46c0-1.19-.62-2.27-1.82-2.27h-10.22c-.4,1.31-.68,3.92-.68,7.33v13.07h13.35Z" fill="#36ac4a"/><path d="M278.01,155.95c-1.88,4.03-4.49,6.93-5.57,6.14l-4.03-3.07c1.59-2.39,3.18-6.59,3.18-10.62v-.06c-4.54-.4-7.61-2.16-8.29-2.84.74-2.61,2.56-6.87,4.03-8.52l2.22.4,1.19,2.9c1.14.4,2.73.8,4.26,1.19l3.69.68c1.14.23,1.31.97,1.36,1.87l.06,3.24c.06,2.9-.85,6.02-2.1,8.69Z" fill="#36ac4a"/><path d="M318.46,145.1l-.28,2.22-2.21.34c-.34,1.48-.63,4.15-.63,7.61v8.24c0,3.12,0,7.38.57,10.45l-7.44,2.27c-1.65.51-1.59-7.16-1.59-10.17v-7.04c0-3.52.45-7.67,1.65-11.13h-12.04c-.4,1.31-.68,3.92-.68,7.38v8.24c0,3.12,0,7.38.57,10.45l-7.44,2.27c-1.65.51-1.59-7.16-1.59-10.17v-7.04c0-3.64.85-6.19,3.41-11.36-2.95-.45-5.45-1.59-6.02-2.16.74-2.61,2.56-6.87,4.03-8.52l2.27.4,1.14,2.9c1.02.34,1.76.28,2.73.28h23.29c.57,0,.68,1.36.28,4.54Z" fill="#36ac4a"/><path d="M328.62,137.37l.4,2.44c.91,1.14,4.09,3.75,6.19,4.49,3.81-3.69,6.59-5.51,7.38-5.51h.51c4.49,0,11.65,5.17,11.65,10.45v1.87c0,6.99.06,13.46,1.14,17.21-.68,3.01-1.76,7.33-2.73,7.33h-14.14l1.7-7.33h7.16c-1.36-5.11-1.42-12.16-1.53-15.34l-.06-1.14c-.17-3.01-3.69-5.45-5.91-5.45h-.57c-.74.63-3.3,2.61-4.37,7.9-1.19,5.51,1.65,45.11,2.99,50.74-2.39,1.19-7.61,3.19-9.09,3.59,1.2-7.05-4.01-47.52-1.91-54,.34-1.08,1.48-3.52,3.52-5.11-3.81-1.02-6.76-2.84-7.95-5.06.28-1.59,1.99-5.62,3.35-7.5l2.27.4Z" fill="#36ac4a"/><path d="M402.59,144.3c-1.36,6.53-5.28,17.61-6.02,19.6-1.42,3.69-3.07,5.74-5.17,7.84-3.75,3.75-5.79,3.92-9.71,3.92h-13.92c-1.87-8.01-4.94-18.58-4.94-20.56,0-2.78,1.02-4.26,2.73-7.5l.06-.11c-2.56-.51-4.66-1.48-5.17-1.99.74-2.61,2.56-6.87,4.03-8.52l2.22.4,1.19,2.9c.97.34,1.7.28,2.61.28h3.41c.57,0,.79,1.36.17,4.54l-.34,1.76-3.41.91c-.28,1.25-.17,3.3.28,5.74.97,4.43,2.44,10.51,3.3,14.83h2.21c-.74-6.19-.45-7.5.06-9.37,1.14-5.57,2.21-8.81,3.12-11.87-1.7-.51-3.07-1.19-3.47-1.59.74-2.61,2.56-6.87,4.03-8.52l2.22.4,1.19,2.9c1.19.23,2.33.28,3.18.28h1.25c1.02.17,1.02,2.22.23,5.45l-1.99,1.65c-1.36,4.54-4.15,15.56-5.79,20.68h3.12c3.01,0,3.98-1.08,5.34-4.37,2.33-5.62,4.26-12.27,5.4-16.53-2.22-.63-3.69-1.48-4.15-1.93.74-2.61,2.56-6.87,4.03-8.52l2.21.4,1.19,2.9c1.14.4,2.44.63,3.86.85l.45.11c.91.28,1.31,1.36.97,3.07Z" fill="#36ac4a"/><path d="M412.98,137.37l.4,2.44c.91,1.14,4.09,3.75,6.19,4.49,3.81-3.69,6.59-5.51,7.39-5.51h.51c4.49,0,11.65,5.17,11.65,10.45v1.87c0,6.99.06,13.46,1.14,17.21-.68,3.01-1.76,7.33-2.73,7.33h-14.15l1.7-7.33h7.16c-1.36-5.11-1.42-12.16-1.53-15.34l-.06-1.14c-.17-3.01-3.69-5.45-5.91-5.45h-.57c-.74.63-3.3,2.61-4.37,7.9-1.19,5.51-2.33,13.86-2.33,19.31-2.39,1.19-7.16,2.56-8.63,2.95,0-5.96.85-15.45,2.95-21.93.34-1.08,1.48-3.52,3.52-5.11-3.81-1.02-6.76-2.84-7.95-5.06.28-1.59,1.99-5.62,3.35-7.5l2.27.4Z" fill="#36ac4a"/><path d="M334.29,214.34c-.64,2.3-1.54,5.78-2.69,10.43-.27,1.61-.53,3.21-.79,4.8-.58,2.02-1.66,3.03-3.22,3.03-.98,0-1.76-.33-2.33-1-.48-.57-.73-1.24-.73-2.03,0-2.3.49-5.11,1.47-8.43,1.47-4.96,2.26-7.72,2.37-8.26.41-2.19.83-4.38,1.26-6.57.64-3.01,1.33-5.02,2.08-6.03s1.69-1.5,2.83-1.5c1.3,0,2.25.66,2.86,1.96.57,1.24,1.18,3.77,1.83,7.6.63,3.71,1.56,7.71,2.8,11.99,1.62-4.22,3.13-8.86,4.52-13.91l1.19-4.91c.77-2.03,1.96-3.05,3.56-3.05s2.7,1.18,3.46,3.54c.31.95.65,2.73,1,5.33.83,6.06,1.86,11.25,3.12,15.58,1.27,4.4,1.9,6.78,1.9,7.17,0,.84-.33,1.54-1,2.11-.63.51-1.33.77-2.11.77-1.55,0-2.7-1.11-3.46-3.33l-1.19-5.16c-.68-2.56-1.42-6.24-2.22-11.03-.64,1.91-1.7,4.9-3.18,8.98l-1.28,3.93c-.53,1.55-1.07,2.82-1.64,3.82-.75,1.32-1.81,1.98-3.16,1.98s-2.36-.79-3.07-2.37l-1.19-3.97c-1.11-3.64-2.11-7.47-2.99-11.48Z" fill="#36ac4a"/><path d="M384.5,203.84c-.28,0-.58-.04-.9-.13-2.3-.63-4.54-.94-6.72-.94-1.07,0-2.21.09-3.44.26s-2.52.43-3.9.77c0,1.89-.06,4.7-.19,8.43.8-.06,3.58-.32,8.34-.79,2.72-.27,4.44-.41,5.16-.41.84,0,1.56.27,2.15.8s.9,1.24.9,2.12c0,1.69-.9,2.65-2.71,2.88-1.14.09-2.84.23-5.1.43-2.02.23-5.06.51-9.13.83-.1,1.81-.15,3.26-.15,4.37,0,2.79.16,4.37.49,4.76.16.19,1.05.28,2.69.28.88,0,2.21-.02,3.99-.06s3.11-.06,3.99-.06c.28,0,.7-.04,1.26-.13s.97-.13,1.24-.13c.83,0,1.53.23,2.11.7.67.53,1,1.27,1,2.22,0,1.59-.83,2.55-2.5,2.86-1.42.27-4.37.41-8.85.41s-7.66-.63-9.07-1.88c-1.55-1.38-2.33-4.37-2.33-8.96,0-1.91.14-4.77.42-8.59s.42-6.67.42-8.57c0-.5-.07-1.23-.21-2.21s-.21-1.71-.21-2.21c0-2.16,1-3.24,2.99-3.24.63,0,1.2.18,1.73.53,1.65-.41,3.22-.72,4.7-.93s2.89-.31,4.21-.31c3.58,0,6.45.41,8.6,1.24,1.31.5,1.96,1.4,1.96,2.71,0,.74-.26,1.39-.77,1.96-.57.66-1.3.98-2.18.98Z" fill="#36ac4a"/><path d="M399.56,232.49c-3.61,0-6.46-.8-8.53-2.41-1.75-1.34-2.62-2.88-2.62-4.63,0-.9.27-1.64.81-2.23s1.29-.89,2.24-.89c1.28,0,2.22.66,2.82,1.96.81,1.75,2.65,2.62,5.5,2.62,2.45,0,4.82-.53,7.1-1.6,2.37-1.09,3.56-2.3,3.56-3.61,0-1.79-.74-2.97-2.22-3.54-1.05-.41-3.16-.66-6.34-.73-2.46-.06-4.67-.52-6.61-1.39-2.63-1.18-3.93-2.87-3.88-5.08.04-2.77,1.52-5.32,4.44-7.63s6.13-3.47,9.64-3.47c1.39,0,3.12.32,5.16.96,2.55.8,3.82,1.71,3.82,2.75,0,.74-.26,1.39-.77,1.96-.57.64-1.3.96-2.2.96-.67,0-1.67-.14-3-.43s-2.34-.43-3.02-.43c-1.83.01-3.58.45-5.23,1.32-1.71.88-2.56,1.84-2.56,2.88,0,.54.26.99.78,1.33s1.3.59,2.34.74c1.82.1,3.63.2,5.44.3,3.16.24,5.65,1.13,7.49,2.67,2.02,1.71,3.03,4.07,3.03,7.08,0,3.67-2.09,6.45-6.27,8.34-3.19,1.44-6.83,2.15-10.92,2.15Z" fill="#36ac4a"/><path d="M443.61,231.83c-1.12-.04-2.26-1.37-3.39-3.97-.75-1.68-1.4-3.61-1.94-5.8-1.05.16-2.77.31-5.16.47-2.25.16-3.97.34-5.16.55-.66,1.56-1.79,3.92-3.41,7.06-.63,1.02-1.49,1.54-2.6,1.54-.78,0-1.49-.27-2.11-.8s-.94-1.21-.94-2.04c0-.73,1.04-3.19,3.12-7.38-.2-.44-.28-.85-.26-1.24.06-.68.75-1.22,2.07-1.6,2.02-3.5,4.27-7.13,6.74-10.88,3.56-5.39,5.75-8.09,6.57-8.09,1.56,0,2.61.95,3.14,2.84.28,1.52.73,3.8,1.34,6.85.87,4.1,1.93,8.78,3.18,14.06.1.4.46,1.34,1.09,2.82.51,1.22.77,2.14.77,2.75,0,.83-.31,1.51-.93,2.07s-1.32.82-2.1.79ZM435.65,209.94c-1.11,1.91-2.64,4.5-4.59,7.79.64-.14,1.64-.26,2.99-.34,1.59-.1,2.6-.18,3.01-.23-.34-1.85-.81-4.25-1.41-7.21Z" fill="#36ac4a"/><path d="M459.44,214.34c-.64,2.3-1.54,5.78-2.69,10.43-.27,1.61-.53,3.21-.79,4.8-.58,2.02-1.66,3.03-3.22,3.03-.98,0-1.76-.33-2.33-1-.48-.57-.73-1.24-.73-2.03,0-2.3.49-5.11,1.47-8.43,1.47-4.96,2.26-7.72,2.37-8.26.41-2.19.83-4.38,1.26-6.57.64-3.01,1.33-5.02,2.08-6.03s1.69-1.5,2.83-1.5c1.3,0,2.25.66,2.86,1.96.57,1.24,1.18,3.77,1.83,7.6.63,3.71,1.56,7.71,2.8,11.99,1.62-4.22,3.13-8.86,4.52-13.91l1.19-4.91c.77-2.03,1.96-3.05,3.56-3.05s2.7,1.18,3.46,3.54c.31.95.65,2.73,1,5.33.83,6.06,1.86,11.25,3.12,15.58,1.27,4.4,1.9,6.78,1.9,7.17,0,.84-.33,1.54-1,2.11-.63.51-1.33.77-2.11.77-1.55,0-2.7-1.11-3.46-3.33l-1.19-5.16c-.68-2.56-1.42-6.24-2.22-11.03-.64,1.91-1.7,4.9-3.18,8.98l-1.28,3.93c-.53,1.55-1.07,2.82-1.64,3.82-.75,1.32-1.81,1.98-3.16,1.98s-2.36-.79-3.07-2.37l-1.19-3.97c-1.11-3.64-2.11-7.47-2.99-11.48Z" fill="#36ac4a"/><path d="M509.54,208.47c-1.28,0-2.23-.68-2.84-2.03-.28-.64-.57-1.02-.85-1.15-.21-.1-.77-.15-1.69-.15-1.79,0-3.86,1.39-6.21,4.18-3.29,3.9-4.93,7.55-4.93,10.95,0,1.55.52,2.88,1.56,3.99s2.28,1.66,3.73,1.66,2.84-.37,4.29-1.11c.51-.27,1.59-.97,3.24-2.09,1.11-.74,1.95-1.11,2.52-1.11.85,0,1.58.31,2.18.94.55.58.83,1.25.83,2.01,0,.84-.37,1.57-1.11,2.2-3.91,3.3-7.89,4.95-11.95,4.95-3.2,0-5.9-1.17-8.11-3.5-2.11-2.25-3.16-4.89-3.16-7.94,0-4.76,2.08-9.63,6.25-14.59,3.54-4.21,7.16-6.32,10.86-6.32.63,0,1.19.02,1.7.06s.95.11,1.33.19c.63-.61,1.38-.92,2.26-.92,1.45,0,2.35.83,2.69,2.5.24,1.19.36,2.59.36,4.18,0,.71-.21,1.36-.62,1.94-.54.77-1.32,1.15-2.35,1.15Z" fill="#36ac4a"/><path d="M544.3,201.46c-.28,1.04-.43,1.95-.43,2.72,0,.4-.04,1.02-.12,1.85-.08.83-.12,1.45-.12,1.85,0,1.36-.07,3.37-.21,6.04-.14,2.67-.21,4.69-.21,6.04,0,1.04.08,2.6.23,4.67.16,2.07.23,3.63.23,4.67,0,.79-.28,1.45-.83,1.99-.55.54-1.24.82-2.07.82s-1.56-.27-2.18-.8-.92-1.18-.92-1.95c0-1.04-.05-2.6-.14-4.67s-.14-3.63-.14-4.67c0-.81.01-1.53.04-2.15-2.23.1-4.99.45-8.28,1.05-2.73.5-5.46,1-8.19,1.51-.03.9-.13,2.41-.3,4.52-.14,1.86-.21,3.38-.21,4.56,0,.73-.28,1.35-.83,1.85-.55.51-1.24.76-2.07.76s-1.51-.26-2.07-.79-.83-1.17-.83-1.94c0-1.4.12-3.5.37-6.29s.37-4.89.37-6.29c0-1.78.04-4.45.13-8.03.09-3.58.13-6.25.13-8.03,0-.76.28-1.41.83-1.94s1.24-.79,2.07-.79,1.51.27,2.07.81.83,1.2.83,1.98c0,1.08-.04,2.71-.12,4.88s-.12,3.79-.12,4.88c0,.36-.05,1.04-.15,2.05-.09.94-.12,1.66-.11,2.15l8.19-1.54c3.2-.57,5.96-.9,8.28-.98.06-.96.15-3.55.28-7.76.03-1.11.36-2.38,1-3.82.8-1.77,1.7-2.65,2.71-2.65.75,0,1.42.25,2.01.75.63.54.94,1.22.94,2.04,0,.21-.03.43-.09.64Z" fill="#36ac4a"/><path d="M565.04,205.97c-.68,0-2.55-.2-5.61-.6-.2,2.62-.3,6.1-.3,10.43l-.02,9.58c1.89-.04,3.82-.06,5.78-.06.85,0,1.56.28,2.12.85s.84,1.25.84,2.05-.29,1.48-.86,2.04-1.3.84-2.17.84c-.82,0-2.04.02-3.66.05s-2.85.05-3.66.05c-.96,0-2.4.12-4.32.37s-3.36.37-4.32.37c-.87,0-1.59-.28-2.17-.84s-.86-1.24-.86-2.04.3-1.48.9-2.05c.6-.57,1.36-.85,2.27-.85,1.03,0,2.4-.11,4.08-.32-.03-1.68-.04-4.89-.04-9.64,0-3.87.14-7.56.43-11.07l-4.63.13c-.85,0-1.57-.28-2.14-.83s-.86-1.24-.86-2.07.28-1.52.83-2.05c.51-.48,1.14-.76,1.88-.83,1.21-.11,3.32-.17,6.33-.17,2.7,0,6.18.3,10.44.9,1.7.24,2.54,1.22,2.54,2.94,0,.91-.33,1.63-.98,2.15-.54.44-1.15.66-1.83.66Z" fill="#36ac4a"/><path d="M579.52,214.34c-.64,2.3-1.54,5.78-2.69,10.43-.27,1.61-.53,3.21-.79,4.8-.58,2.02-1.66,3.03-3.22,3.03-.98,0-1.76-.33-2.33-1-.48-.57-.73-1.24-.73-2.03,0-2.3.49-5.11,1.47-8.43,1.47-4.96,2.26-7.72,2.37-8.26.41-2.19.83-4.38,1.26-6.57.64-3.01,1.33-5.02,2.08-6.03s1.69-1.5,2.83-1.5c1.3,0,2.25.66,2.86,1.96.57,1.24,1.18,3.77,1.83,7.6.63,3.71,1.56,7.71,2.8,11.99,1.62-4.22,3.13-8.86,4.52-13.91l1.19-4.91c.77-2.03,1.96-3.05,3.56-3.05s2.7,1.18,3.46,3.54c.31.95.65,2.73,1,5.33.83,6.06,1.86,11.25,3.12,15.58,1.27,4.4,1.9,6.78,1.9,7.17,0,.84-.33,1.54-1,2.11-.63.51-1.33.77-2.11.77-1.55,0-2.7-1.11-3.46-3.33l-1.19-5.16c-.68-2.56-1.42-6.24-2.22-11.03-.64,1.91-1.7,4.9-3.18,8.98l-1.28,3.93c-.53,1.55-1.07,2.82-1.64,3.82-.75,1.32-1.81,1.98-3.16,1.98s-2.36-.79-3.07-2.37l-1.19-3.97c-1.11-3.64-2.11-7.47-2.99-11.48Z" fill="#36ac4a"/><path d="M279.93,367.05l-1.16.8,3.97,5.76-1.97,1.36-3.97-5.76-4.08,2.81-1.17-1.7,7.21-4.97,1.17,1.7Z" fill="#36ac4a"/><path d="M282.16,368.58c-.86-1.16-1.21-2.34-1.04-3.56.16-1.22.81-2.25,1.92-3.08.75-.56,1.53-.89,2.32-.98.8-.09,1.56.02,2.3.35s1.38.86,1.94,1.6c.8,1.08,1.13,2.24.98,3.5s-.77,2.3-1.88,3.12c-1.11.82-2.27,1.15-3.48.98s-2.23-.82-3.06-1.93ZM284.1,367.05c.5.67,1.06,1.09,1.69,1.26s1.21.05,1.75-.35.82-.92.84-1.57-.23-1.31-.73-1.99c-.5-.68-1.06-1.09-1.68-1.26-.62-.16-1.2-.05-1.73.35-.59.44-.87.98-.85,1.64.02.66.26,1.3.73,1.92Z" fill="#36ac4a"/><path d="M300.35,360.15l-1.86,1.5-2.98-3.7c-.5-.62-1.01-.98-1.54-1.08-.53-.1-1.15.14-1.87.72-.39.31-.69.59-.91.85l4.44,5.51-1.87,1.5-5.56-6.92c.74-.84,1.55-1.61,2.42-2.31,1.12-.9,2.06-1.43,2.83-1.6.76-.16,1.44-.11,2.03.17.59.27,1.19.79,1.8,1.55l3.06,3.81Z" fill="#36ac4a"/><path d="M298.06,350.19l5.88,6.89-1.88,1.6-5.88-6.89,1.88-1.6Z" fill="#36ac4a"/><path d="M315.34,346.71l-1.74,1.63-2.92-3.11c-.76-.81-1.48-1.18-2.17-1.11-.69.07-1.44.48-2.24,1.23-.6.56-1.21,1.23-1.82,2l-1.44-1.28c.56-.75,1.31-1.56,2.23-2.43,1-.94,1.91-1.52,2.73-1.75.82-.23,1.55-.23,2.19-.02.64.21,1.32.7,2.04,1.47l3.16,3.37ZM307.7,347.42l3.22,3.43-1.75,1.64-3.22-3.43,1.75-1.64Z" fill="#36ac4a"/><path d="M318.45,338.11l4.66.75-1.97,2.01-5.41-.87c0,.56.46,1.36,1.38,2.41l1.19,1.36-1.63,1.66-1.25-1.47c-.85-.99-1.36-1.81-1.54-2.44-.17-.63-.2-1.24-.07-1.82l-3.62-.6,1.97-2,4.48.73c.08-.54-.26-1.25-1.02-2.13l-.98-1.13,1.55-1.58.71.84c.83.98,1.32,1.78,1.49,2.39.16.61.18,1.25.04,1.91Z" fill="#36ac4a"/><path d="M319.01,329.9l6.65,6.15-1.67,1.81-6.65-6.15,1.67-1.81Z" fill="#36ac4a"/><path d="M320.51,328.71c.49-1,1.1-1.92,1.83-2.77,1.04-1.2,2.19-1.88,3.43-2.04,1.25-.16,2.37.19,3.37,1.06,1.16,1.01,1.73,2.18,1.7,3.51s-.59,2.62-1.68,3.87c-.68.79-1.52,1.46-2.51,2.01l-.91-1.41c.82-.44,1.48-.95,1.99-1.54.65-.75.98-1.52.99-2.31,0-.79-.38-1.52-1.14-2.18-.7-.61-1.41-.9-2.12-.89-.72.02-1.36.36-1.94,1.02-.21.24-.4.51-.57.8l.79.69c.63.55,1.16.57,1.6.07.06-.07.12-.15.19-.24l1.38.67c-.14.42-.36.81-.68,1.17-.29.33-.63.6-1,.79-.38.19-.8.25-1.28.19-.48-.06-1.09-.42-1.84-1.07l-1.6-1.39Z" fill="#36ac4a"/><path d="M338.21,321.23l-1.5,1.86-3.47-2.79c-.76-.61-1.44-.85-2.07-.74-.62.12-1.26.58-1.92,1.4-.33.42-.74,1-1.2,1.76l-1.58-1.04c.37-.76.88-1.55,1.55-2.39,1.01-1.26,2.04-2,3.08-2.21,1.04-.21,2.14.15,3.3,1.08l3.81,3.06Z" fill="#36ac4a"/><path d="M336.45,308.42l4.09,2.97-1.45,2-4.09-2.97,1.45-2Z" fill="#36ac4a"/><path d="M334.72,304.94l1.35-1.98,1.42.97c.57.39.99.75,1.25,1.07s.43.71.51,1.17c.08.46.05.95-.09,1.47l-1.09-.18c.14-.49.15-.9.03-1.23-.12-.33-.37-.63-.75-.91l-.66.96-1.98-1.35ZM336.99,301.61l1.35-1.98,1.42.97c.57.39.99.75,1.25,1.08.26.33.43.72.51,1.17.08.46.05.94-.09,1.46l-1.09-.18c.14-.48.15-.89.03-1.22-.12-.33-.37-.63-.76-.9l-.65.95-1.98-1.35Z" fill="#36ac4a"/><path d="M350.27,300.9c.14-.67.07-1.21-.2-1.61s-.77-.83-1.49-1.31l-3.57-2.37,1.27-2.02,2.68,1.84c.82.56,1.43,1,1.82,1.33.39.33.73.74,1.02,1.22s.46,1.05.52,1.72c.06.66-.05,1.55-.33,2.66-.28,1.11-.71,2.35-1.29,3.72l-1.82-.79c.37-.84.66-1.59.88-2.24l-7.6-2.92,1.29-2.05,6.82,2.82Z" fill="#36ac4a"/><path d="M353.45,292.94c.46.13.95.07,1.45-.18.51-.25.9-.63,1.18-1.13.48-.85.59-1.64.32-2.37-.26-.73-1.06-1.55-2.4-2.45l-2.77-1.85,1.16-2.05,2.87,1.97c1.22.83,2.05,1.57,2.49,2.21.44.64.69,1.43.74,2.37.06.94-.22,1.95-.83,3.03-.79,1.39-1.86,2.24-3.22,2.54-1.36.3-2.95-.06-4.77-1.09l-2.72-1.42,1.17-2.07,2.1,1.17c.28.15.69.36,1.24.62.24.11.4.2.5.25.19-.34.28-.68.26-1.03s-.15-.65-.38-.88-.68-.57-1.36-1l-1.36-.87,1.14-2.02,1.89,1.21c.49.32.86.59,1.1.82.24.23.45.52.61.9.17.37.23.83.18,1.39-.05.55-.24,1.2-.58,1.94Z" fill="#36ac4a"/><line x1="460.15" y1="250.39" x2="353.59" y2="250.39" fill="none" stroke="#36ac4a" stroke-miterlimit="10" stroke-width=".5"/><path d="M298.54,190.05c-16.7,40.5-45.11,62-79.93,73.09l-25.86,6.89c-43.13,8.04-82.14-6.47-118.25-36.84l-1.24,25.74c38.12,41.4,84.11,58.93,139.3,48.51,30.64-7.11,56.66-22.55,76.53-49.06,12.34-16.35,21.69-35.25,26.23-58.3" fill="#37ad4a" stroke="#000" stroke-miterlimit="10" stroke-width=".5"/><path d="M304.28,119.91c-9.41-19.47-22.72-34.38-40.75-43.73-58.73-14.14-90.39,18.05-103.22,82.47C92.67,74.82,22.71,117.53,19.05,197.41c3.45,43.76,19.47,85.85,53.51,125.54,60.06,55.51,122.22,75.79,187.99,35.32,32.43-22.46,60.59-52.26,83.3-91.47l-14.73-24.18c-44.68,73.09-101.25,96.63-163.32,97.52-53.83-10.78-94.64-37.37-120.71-81.87-24.21-45.83-21.81-82.94,32.72-102.99,35.64-9.06,62.98,2.47,84.04,29.6l10.66-3.62c7.94-49.68,40.38-81.27,100.81-69.32,7.46,3,13.48,7.06,18.14,12.11" fill="#37ad4a" stroke="#000" stroke-miterlimit="10" stroke-width=".5"/><path d="M66.77,116c5.97-1.68,12.27-2.2,18.29-1.35,3.04.7,6.1,1.88,9.15,3.65,2.57,1.49,5.28-2.31,2.68-3.81-2.21-1.28-4.43-2.29-6.66-3.07-1.76-15.25-5.76-30.1-11.94-44.16-3.71-8.44-9.97-20.24-21.49-25.23-7.29-3.16-14.86-2.82-21.28.94-2.25,1.32-4.25,3.03-6,4.99-.07,0-.14-.03-.22-.03-5.01-.13-8.22-3.92-9.54-8.49-.82-2.85-5.43-2.13-4.6.74,1.64,5.69,5.4,10.8,11.19,12.08-.63,1.07-1.18,2.2-1.68,3.36-5.62.83-11.48-1.61-14.55-6.49-1.57-2.5-5.83-.6-4.24,1.94,3.78,6.01,10.21,9.55,17.19,9.34-.19.79-.33,1.6-.46,2.41-.1.03-.19.02-.29.07-5.98,2.86-12.76,2.38-19.02.84-2.81-.69-4.42,3.56-1.58,4.26,6.73,1.65,13.84,2.28,20.41-.13-.52,13.17,3.71,26,8.45,37.98,1.08,2.73,4.79,10.29,6.34,13.41,2.59,5.23,3.93,7.93,4.75,9.35-1.35,1.53-2.63,3.12-3.84,4.75-1.78,2.41,2.02,5.09,3.81,2.68,6.43-8.69,15.25-16.44,25.11-20.03ZM37.41,46.18c5.4-3.16,11.75-3.41,17.92-.73,10.31,4.47,16.1,15.44,19.56,23.3,5.82,13.24,9.66,27.19,11.47,41.52-9.45-2.19-18.76-.27-27.17,4.18-1.85-6.53-4.23-12.94-7.35-18.97-4,1.15-8.08,2.02-12.2,2.59,2.32-3.77,4.63-7.55,6.95-11.32-1.61-2.32-3.33-4.57-5.24-6.69-3.32-3.69-7.39-7.16-12.31-7.77-1.06-.13-2.12-.11-3.17,0-.1-2.49-.04-4.98.22-7.48.83-8,5.07-14.97,11.32-18.63Z" fill="#36ac4a" stroke="#000" stroke-miterlimit="10" stroke-width=".5"/><path d="M202.84,2.61c-7.35-3.03-14.9-2.56-21.26,1.31-2.71,1.65-5.08,3.83-7.02,6.39-4.87-.16-8.07-3.82-9.45-8.3-.87-2.83-5.47-2.04-4.59.82,1.74,5.65,5.57,10.69,11.36,11.87-.12.23-.24.45-.35.69-.26.01-.52.05-.8.16-5.39,2.09-11.63.73-15.68-3.38-2.09-2.12-5.63.91-3.52,3.06,4.84,4.91,11.61,6.85,18.15,5.43-.29,1.13-.51,2.27-.67,3.45-5.71,2.76-12.19,2.1-18.13.53-2.74-.73-4.23,3.44-1.47,4.17,6.29,1.67,13.03,2.4,19.22.23-.29,13.18,4.17,25.94,9.12,37.82,1.13,2.7,4.97,10.2,6.58,13.3,2.68,5.18,4.06,7.85,4.91,9.26-1.32,1.56-2.57,3.17-3.75,4.82-1.74,2.44,2.11,5.06,3.86,2.61,6.28-8.81,14.97-16.71,24.77-20.47,5.93-1.78,12.22-2.41,18.24-1.67,3.05.64,6.4.38,9.7,1.36,2.85.84,5.24-2.4,2.61-3.86-2.23-1.24-5.13-1.29-7.36-2.04-2.03-15.21-6.12-28.78-12.55-42.73-3.86-8.37-10.33-20.06-21.93-24.84ZM221.38,29.01c6.05,13.14,10.14,27.02,12.2,41.31-9.48-2.02-18.77.06-27.09,4.66-1.96-6.5-4.46-12.87-7.68-18.84-3.98,1.22-8.04,2.16-12.16,2.8,2.25-3.81,4.5-7.63,6.75-11.44-1.65-2.29-3.41-4.51-5.36-6.59-3.38-3.63-7.51-7.03-12.44-7.55-1.07-.11-2.12-.08-3.17.05-.15-2.49-.13-4.98.09-7.49.69-8.02,4.8-15.05,10.99-18.82,5.33-3.24,11.68-3.61,17.9-1.05,10.39,4.28,16.37,15.15,19.96,22.96Z" fill="#36ac4a" stroke="#000" stroke-miterlimit="10" stroke-width=".5"/><line x1="304.28" y1="119.91" x2="291.45" y2="124.05" fill="none" stroke="#000" stroke-miterlimit="10" stroke-width=".5"/><line x1="315.32" y1="200.08" x2="298.21" y2="190.05" fill="none" stroke="#000" stroke-miterlimit="10" stroke-width=".5"/></svg>