<?xml version="1.0" encoding="UTF-8"?><svg id="a" xmlns="http://www.w3.org/2000/svg" viewBox="0 0 605.76 320.61"><path d="M436.99,310.34h6.77v1.9h-6.77v-1.9ZM438.67,320.42v-10.72c0-1.07.31-1.92.94-2.56.63-.64,1.52-.96,2.69-.96.42,0,.81.04,1.19.13.37.09.69.23.94.42l-.65,1.79c-.18-.14-.38-.24-.61-.31-.23-.07-.46-.1-.7-.1-.49,0-.87.14-1.12.41-.25.27-.38.68-.38,1.23v1.14l.08,1.06v8.48h-2.38Z" fill="#ff0009"/><path d="M450.04,320.55c-.86,0-1.62-.16-2.28-.48-.66-.32-1.17-.82-1.54-1.48-.37-.67-.55-1.51-.55-2.52v-5.8h2.38v5.48c0,.91.21,1.59.62,2.05.41.45,1,.67,1.76.67.56,0,1.04-.11,1.46-.34.41-.23.74-.57.97-1.03.23-.46.35-1.02.35-1.69v-5.13h2.38v10.16h-2.26v-2.74l.4.84c-.34.66-.84,1.16-1.5,1.51-.66.35-1.38.52-2.17.52" fill="#ff0009"/><path d="M462.13,320.55c-.76,0-1.43-.13-2-.39-.57-.26-1.01-.62-1.32-1.09-.31-.46-.47-.99-.47-1.57s.14-1.08.41-1.54c.27-.46.72-.82,1.34-1.08.62-.27,1.45-.4,2.47-.4h2.95v1.58h-2.78c-.81,0-1.36.13-1.64.39-.28.26-.42.58-.42.96,0,.43.17.77.51,1.03.34.25.82.38,1.43.38s1.11-.13,1.57-.4c.46-.27.8-.66,1-1.18l.4,1.43c-.23.6-.64,1.06-1.23,1.39-.59.33-1.33.49-2.23.49M465.33,320.42v-2.05l-.13-.44v-3.59c0-.7-.21-1.24-.63-1.63-.42-.39-1.05-.58-1.9-.58-.57,0-1.13.09-1.68.27-.55.18-1.02.43-1.4.74l-.93-1.73c.55-.42,1.19-.73,1.95-.94.75-.21,1.54-.31,2.35-.31,1.47,0,2.61.35,3.42,1.05.8.7,1.21,1.79,1.21,3.26v5.95h-2.24Z" fill="#ff0009"/><path d="M476.76,310.15c.81,0,1.54.16,2.18.48.64.32,1.14.8,1.51,1.46.37.65.55,1.49.55,2.52v5.82h-2.38v-5.51c0-.9-.21-1.57-.64-2.02-.43-.44-1.02-.66-1.78-.66-.56,0-1.05.11-1.48.34-.43.23-.76.57-1,1.02-.24.45-.35,1.02-.35,1.7v5.13h-2.38v-14.11h2.38v6.69l-.51-.84c.35-.65.87-1.14,1.55-1.49.68-.35,1.46-.52,2.35-.52" fill="#ff0009"/><polygon points="494.2 320.42 488.38 307.11 491.06 307.11 496.25 319.14 494.71 319.14 499.96 307.11 502.43 307.11 496.63 320.42 494.2 320.42" fill="#ff0009"/><polygon points="503.93 312.38 503.78 307.11 505.83 307.11 505.66 312.38 503.93 312.38" fill="#ff0009"/><path d="M515.23,320.61c-1.01,0-1.96-.17-2.82-.5-.87-.33-1.62-.81-2.26-1.43-.64-.61-1.14-1.34-1.49-2.18-.36-.84-.53-1.75-.53-2.74s.18-1.9.53-2.74c.35-.84.85-1.56,1.5-2.18.65-.62,1.4-1.09,2.26-1.43.86-.34,1.81-.5,2.83-.5,1.09,0,2.09.19,2.99.56.9.37,1.66.93,2.28,1.66l-1.6,1.5c-.48-.52-1.02-.91-1.62-1.17-.6-.26-1.24-.39-1.94-.39s-1.33.11-1.91.34c-.58.23-1.08.55-1.5.97-.43.42-.76.91-.99,1.48-.23.57-.35,1.2-.35,1.88s.12,1.31.35,1.88c.23.57.56,1.07.99,1.48.42.42.93.74,1.5.97.58.23,1.21.34,1.91.34s1.34-.13,1.94-.39c.6-.26,1.13-.66,1.62-1.19l1.6,1.52c-.62.72-1.38,1.28-2.28,1.65-.9.38-1.9.57-3,.57" fill="#ff0009"/><path d="M528.81,310.15c.81,0,1.54.16,2.18.48.64.32,1.14.8,1.51,1.46.37.65.55,1.49.55,2.52v5.82h-2.38v-5.51c0-.9-.21-1.57-.64-2.02-.43-.44-1.02-.66-1.78-.66-.56,0-1.05.11-1.48.34-.43.23-.76.57-1,1.02-.24.45-.35,1.02-.35,1.7v5.13h-2.38v-14.11h2.38v6.69l-.51-.84c.35-.65.87-1.14,1.55-1.49.68-.35,1.46-.52,2.35-.52" fill="#ff0009"/><path d="M541.24,320.55c-1.13,0-2.11-.22-2.96-.67-.84-.45-1.5-1.07-1.96-1.85-.46-.79-.69-1.68-.69-2.68s.22-1.91.67-2.69c.45-.78,1.07-1.39,1.86-1.83.79-.44,1.7-.67,2.71-.67s1.87.22,2.64.65c.77.43,1.38,1.04,1.83,1.83.44.79.67,1.71.67,2.78,0,.1,0,.22,0,.34,0,.13-.02.25-.03.36h-8.46v-1.58h7.21l-.93.49c.01-.58-.11-1.1-.36-1.54-.25-.44-.6-.79-1.04-1.05-.44-.25-.94-.38-1.51-.38s-1.09.13-1.53.38c-.44.25-.78.61-1.03,1.06-.25.45-.37.98-.37,1.59v.38c0,.61.14,1.15.42,1.62.28.47.67.83,1.18,1.08.51.25,1.09.38,1.75.38.57,0,1.08-.09,1.54-.27.46-.18.86-.46,1.22-.84l1.27,1.47c-.46.53-1.03.94-1.72,1.23-.69.29-1.48.43-2.37.43" fill="#ff0009"/><path d="M551.82,320.55c-.85,0-1.66-.11-2.44-.33-.78-.22-1.4-.49-1.85-.81l.91-1.81c.46.29,1,.53,1.64.72.63.19,1.27.29,1.9.29.75,0,1.29-.1,1.63-.3.34-.2.5-.48.5-.82,0-.28-.11-.49-.34-.64-.23-.14-.53-.26-.89-.33-.37-.08-.78-.15-1.23-.21-.45-.06-.9-.15-1.35-.26-.45-.11-.86-.27-1.23-.48-.37-.21-.66-.49-.89-.85-.23-.35-.34-.82-.34-1.41,0-.65.18-1.21.55-1.68.37-.48.88-.84,1.55-1.1.66-.26,1.45-.39,2.37-.39.68,0,1.38.08,2.07.23.7.15,1.27.37,1.73.65l-.91,1.81c-.48-.29-.97-.49-1.45-.6-.49-.11-.97-.16-1.46-.16-.72,0-1.26.11-1.61.32-.35.22-.52.49-.52.82,0,.31.11.53.34.68.23.15.53.27.89.36.37.09.78.16,1.23.22.45.06.9.14,1.34.26.44.11.85.27,1.23.47.37.2.67.47.9.83.23.35.34.82.34,1.39,0,.63-.19,1.19-.56,1.65-.37.47-.9.83-1.59,1.09-.68.26-1.5.39-2.45.39" fill="#ff0009"/><path d="M563.63,320.55c-1.13,0-2.11-.22-2.96-.67-.84-.45-1.5-1.07-1.96-1.85-.46-.79-.69-1.68-.69-2.68s.22-1.91.68-2.69c.45-.78,1.07-1.39,1.86-1.83.79-.44,1.7-.67,2.71-.67s1.87.22,2.64.65c.77.43,1.38,1.04,1.83,1.83.44.79.67,1.71.67,2.78,0,.1,0,.22,0,.34,0,.13-.02.25-.03.36h-8.46v-1.58h7.21l-.93.49c.01-.58-.11-1.1-.36-1.54-.25-.44-.6-.79-1.04-1.05-.44-.25-.94-.38-1.51-.38s-1.09.13-1.53.38c-.44.25-.78.61-1.03,1.06-.25.45-.37.98-.37,1.59v.38c0,.61.14,1.15.42,1.62.28.47.67.83,1.18,1.08.51.25,1.09.38,1.75.38.57,0,1.08-.09,1.54-.27.46-.18.86-.46,1.22-.84l1.27,1.47c-.46.53-1.03.94-1.72,1.23-.69.29-1.48.43-2.37.43" fill="#ff0009"/><path d="M575.36,320.55c-.98,0-1.85-.22-2.63-.66-.78-.44-1.39-1.04-1.84-1.82-.44-.77-.67-1.69-.67-2.74s.22-1.96.67-2.74c.44-.77,1.05-1.38,1.84-1.81.78-.43,1.66-.65,2.63-.65.85,0,1.61.19,2.28.56.67.37,1.2.94,1.6,1.7.39.76.59,1.74.59,2.93s-.19,2.15-.57,2.92c-.38.77-.91,1.34-1.58,1.72-.67.38-1.45.57-2.32.57M575.64,318.52c.57,0,1.08-.13,1.53-.38.45-.25.81-.62,1.08-1.1.27-.48.41-1.05.41-1.69s-.14-1.23-.41-1.7c-.27-.48-.63-.84-1.08-1.09-.45-.25-.96-.38-1.53-.38s-1.08.13-1.53.38c-.45.25-.81.62-1.08,1.09-.27.47-.41,1.04-.41,1.7s.14,1.21.41,1.69c.27.48.63.85,1.08,1.1.45.25.96.38,1.53.38ZM578.73,320.42v-2.4l.1-2.7-.19-2.7v-6.31h2.36v14.11h-2.26Z" fill="#ff0009"/><path d="M308.54,320.53c-.98,0-1.85-.21-2.61-.65-.77-.43-1.37-1.03-1.82-1.81-.44-.77-.67-1.67-.67-2.7s.22-1.92.67-2.69c.44-.77,1.05-1.36,1.82-1.8.77-.43,1.64-.65,2.61-.65.85,0,1.62.19,2.3.57.68.38,1.23.95,1.65,1.71.41.76.62,1.71.62,2.85s-.2,2.09-.6,2.85c-.4.76-.94,1.33-1.63,1.72-.68.39-1.46.58-2.34.58M308.69,318.94c.63,0,1.21-.14,1.72-.44.51-.29.92-.71,1.22-1.25.3-.54.45-1.16.45-1.87s-.15-1.35-.45-1.87c-.3-.53-.7-.94-1.22-1.23-.51-.29-1.09-.44-1.72-.44s-1.22.15-1.73.44c-.51.29-.91.7-1.22,1.23-.3.53-.46,1.15-.46,1.87s.15,1.34.46,1.87c.3.54.71.95,1.22,1.25.51.29,1.08.44,1.73.44ZM312.13,320.42v-2.72l.11-2.34-.19-2.34v-6.71h1.83v14.11h-1.75Z" fill="#ff0009"/><path d="M318.63,308.4c-.35,0-.65-.11-.88-.34-.23-.23-.35-.51-.35-.84s.12-.63.35-.86c.23-.23.53-.34.88-.34s.65.11.88.33c.23.22.35.5.35.83s-.11.63-.34.87c-.23.24-.53.35-.89.35M317.72,310.34h1.83v10.08h-1.83v-10.08Z" fill="#ff0009"/><polygon points="326.05 320.42 321.64 310.34 323.54 310.34 327.46 319.47 326.54 319.47 330.54 310.34 332.33 310.34 327.91 320.42 326.05 320.42" fill="#ff0009"/><path d="M335.33,308.4c-.35,0-.65-.11-.88-.34-.23-.23-.35-.51-.35-.84s.12-.63.35-.86c.23-.23.53-.34.88-.34s.65.11.88.33c.23.22.35.5.35.83s-.11.63-.34.87c-.23.24-.53.35-.89.35M334.42,310.34h1.83v10.08h-1.83v-10.08Z" fill="#ff0009"/><path d="M342.99,320.53c-.84,0-1.63-.11-2.39-.34-.75-.23-1.35-.51-1.78-.84l.76-1.45c.43.29.96.54,1.6.74.63.2,1.28.3,1.94.3.85,0,1.46-.12,1.84-.36.37-.24.56-.58.56-1.01,0-.32-.11-.56-.34-.74-.23-.18-.53-.31-.9-.4-.37-.09-.79-.17-1.25-.24-.46-.07-.91-.16-1.37-.27-.46-.11-.87-.26-1.25-.46-.38-.2-.68-.47-.91-.82-.23-.35-.34-.81-.34-1.4s.17-1.14.51-1.6c.34-.46.83-.81,1.45-1.06.63-.25,1.37-.37,2.23-.37.66,0,1.33.08,2.01.24.68.16,1.23.38,1.66.67l-.78,1.45c-.46-.31-.93-.51-1.43-.63-.49-.11-.99-.17-1.48-.17-.8,0-1.39.13-1.79.39-.39.26-.59.59-.59,1,0,.34.12.61.35.79.23.18.54.33.91.43.37.1.79.19,1.24.26.46.07.91.16,1.37.27.46.11.87.26,1.25.45.37.19.68.46.91.8.23.34.35.8.35,1.37,0,.61-.18,1.14-.53,1.58-.35.44-.86.79-1.5,1.04-.65.25-1.42.37-2.32.37" fill="#ff0009"/><path d="M350.92,308.4c-.36,0-.65-.11-.88-.34-.23-.23-.35-.51-.35-.84s.12-.63.35-.86c.23-.23.53-.34.88-.34s.65.11.88.33c.23.22.35.5.35.83s-.11.63-.34.87c-.23.24-.53.35-.89.35M350.01,310.34h1.83v10.08h-1.83v-10.08Z" fill="#ff0009"/><path d="M360.01,320.53c-1.01,0-1.91-.22-2.7-.67-.79-.44-1.41-1.05-1.86-1.83-.46-.78-.68-1.66-.68-2.65s.23-1.89.68-2.66c.46-.77,1.08-1.38,1.86-1.82.79-.44,1.69-.66,2.7-.66s1.9.22,2.69.66c.79.44,1.41,1.04,1.86,1.81.45.77.68,1.66.68,2.67s-.23,1.89-.68,2.66c-.45.77-1.07,1.38-1.86,1.83-.79.45-1.69.67-2.69.67M360.01,318.94c.65,0,1.23-.14,1.74-.44.51-.29.92-.71,1.21-1.25.29-.54.44-1.16.44-1.87s-.15-1.35-.44-1.87c-.29-.53-.69-.94-1.21-1.23-.51-.29-1.09-.44-1.74-.44s-1.22.15-1.73.44c-.51.29-.91.7-1.22,1.23-.3.53-.46,1.15-.46,1.87s.15,1.34.46,1.87c.3.54.71.95,1.22,1.25.51.29,1.09.44,1.73.44Z" fill="#ff0009"/><path d="M373.54,310.25c.82,0,1.55.16,2.18.48.63.32,1.12.8,1.47,1.45.35.65.53,1.47.53,2.45v5.8h-1.83v-5.59c0-.98-.24-1.71-.71-2.21-.48-.5-1.15-.74-2.01-.74-.65,0-1.21.13-1.69.38-.48.25-.85.63-1.11,1.12-.26.49-.39,1.11-.39,1.85v5.19h-1.83v-10.08h1.75v2.72l-.29-.72c.33-.66.84-1.17,1.52-1.54.68-.37,1.48-.55,2.4-.55" fill="#ff0009"/><path d="M391.3,320.53c-1.01,0-1.91-.22-2.7-.67-.79-.44-1.41-1.05-1.86-1.83-.46-.78-.68-1.66-.68-2.65s.23-1.89.68-2.66c.46-.77,1.08-1.38,1.86-1.82.78-.44,1.69-.66,2.7-.66s1.9.22,2.69.66c.79.44,1.41,1.04,1.86,1.81.45.77.68,1.66.68,2.67s-.23,1.89-.68,2.66c-.45.77-1.07,1.38-1.86,1.83-.79.45-1.69.67-2.69.67M391.3,318.94c.65,0,1.23-.14,1.74-.44.51-.29.92-.71,1.21-1.25.29-.54.44-1.16.44-1.87s-.15-1.35-.44-1.87c-.29-.53-.69-.94-1.21-1.23-.51-.29-1.09-.44-1.74-.44s-1.22.15-1.73.44c-.51.29-.91.7-1.22,1.23-.3.53-.46,1.15-.46,1.87s.15,1.34.46,1.87c.3.54.71.95,1.22,1.25.51.29,1.08.44,1.73.44Z" fill="#ff0009"/><path d="M397.99,310.34h6.43v1.5h-6.43v-1.5ZM399.7,320.42v-10.97c0-.99.29-1.78.87-2.37.58-.59,1.4-.88,2.46-.88.39,0,.77.05,1.13.14.36.09.67.24.92.45l-.55,1.39c-.19-.15-.41-.27-.65-.35-.24-.08-.5-.12-.76-.12-.53,0-.94.15-1.22.45-.28.3-.42.74-.42,1.32v1.35l.04.84v8.77h-1.83Z" fill="#ff0009"/><path d="M412.08,320.42v-13.31h5.48c1.18,0,2.19.19,3.03.57.84.38,1.49.93,1.95,1.64.46.71.68,1.55.68,2.53s-.23,1.82-.68,2.52c-.46.7-1.11,1.24-1.95,1.62-.84.37-1.85.56-3.03.56h-4.11l1.1-1.12v5h-2.47ZM414.55,315.68l-1.1-1.18h3.99c1.09,0,1.91-.23,2.46-.7.55-.47.83-1.12.83-1.96s-.28-1.5-.83-1.96c-.55-.46-1.37-.69-2.46-.69h-3.99l1.1-1.22v7.7ZM420.79,320.42l-3.37-4.83h2.64l3.39,4.83h-2.66Z" fill="#ff0009"/><path d="M430.91,320.55c-1.13,0-2.11-.22-2.96-.67-.84-.45-1.5-1.07-1.96-1.85-.46-.79-.69-1.68-.69-2.68s.22-1.91.67-2.69c.45-.78,1.07-1.39,1.86-1.83.79-.44,1.7-.67,2.71-.67s1.87.22,2.64.65c.77.43,1.38,1.04,1.83,1.83.44.79.67,1.71.67,2.78,0,.1,0,.22,0,.34,0,.13-.02.25-.03.36h-8.46v-1.58h7.21l-.93.49c.01-.58-.11-1.1-.36-1.54-.25-.44-.6-.79-1.04-1.05-.44-.25-.94-.38-1.51-.38s-1.09.13-1.53.38c-.44.25-.78.61-1.03,1.06-.25.45-.37.98-.37,1.59v.38c0,.61.14,1.15.42,1.62.28.47.67.83,1.18,1.08.51.25,1.09.38,1.75.38.57,0,1.08-.09,1.54-.27.46-.18.86-.46,1.22-.84l1.27,1.47c-.46.53-1.03.94-1.72,1.23-.69.29-1.48.43-2.37.43" fill="#ff0009"/><path d="M286.08,320.43l5.25-13.68h1.95l5.6,13.68h-2.06l-1.6-4.14h-5.72l-1.5,4.14h-1.92ZM290.03,314.81h4.64l-1.43-3.79c-.44-1.15-.76-2.1-.97-2.84-.17.88-.42,1.75-.74,2.61l-1.5,4.01Z" fill="#ff0009"/><path d="M246.97,196.95c.38,2.16.38,4.14.01,5.94-.37,1.8-1.05,3.39-2.05,4.74-1,1.36-2.29,2.48-3.85,3.36-1.57.88-3.38,1.5-5.43,1.86-2.06.36-3.97.37-5.75.04s-3.37-.98-4.78-1.94c-1.4-.96-2.58-2.21-3.54-3.77-.95-1.56-1.61-3.38-1.98-5.47-.36-2.05-.35-3.97.02-5.76.37-1.79,1.05-3.37,2.05-4.74s2.28-2.52,3.84-3.44,3.37-1.56,5.42-1.92c2.05-.36,3.97-.36,5.76-.01,1.78.35,3.38,1.01,4.78,1.96,1.41.96,2.58,2.21,3.54,3.77.95,1.56,1.61,3.34,1.96,5.36ZM228.69,200.14c.37,2.12,1.06,3.68,2.08,4.67,1.01.99,2.25,1.36,3.72,1.1,1.46-.25,2.48-1.02,3.07-2.31s.69-2.97.33-5.06c-.36-2.09-1.05-3.63-2.04-4.62-1-.99-2.23-1.36-3.69-1.1-1.46.25-2.49,1.02-3.1,2.29-.6,1.27-.72,2.95-.36,5.04Z"/><path d="M266.8,189.99c-.19-1.08-.63-1.82-1.33-2.22-.7-.4-1.57-.51-2.61-.32-.7.12-1.37.33-2.02.62-.65.29-1.19.66-1.61,1.09l3.16,18.12c-.33.17-.86.36-1.59.6-.73.23-1.5.42-2.3.56-.77.13-1.46.2-2.09.2-.63,0-1.18-.12-1.65-.36-.47-.24-.87-.61-1.19-1.11-.32-.5-.56-1.18-.71-2.06l-2.73-15.67c-.16-.94-.1-1.74.2-2.4.3-.66.75-1.3,1.36-1.91,1.04-1.04,2.41-1.98,4.11-2.82,1.7-.83,3.65-1.44,5.84-1.83,3.93-.69,7.11-.35,9.54,1,2.42,1.35,3.9,3.56,4.44,6.63l2.85,16.35c-.33.17-.86.37-1.59.6s-1.5.42-2.3.56c-.77.13-1.46.2-2.09.2-.63,0-1.18-.12-1.65-.36-.47-.24-.87-.61-1.19-1.11-.32-.5-.56-1.19-.71-2.06l-2.15-12.33Z"/><path d="M295.35,206.81c.16.9.56,1.5,1.2,1.78.64.28,1.48.33,2.53.15.52-.09,1.05-.23,1.6-.41.54-.18,1.01-.38,1.4-.59.38.33.73.71,1.03,1.14.31.43.52.98.63,1.64.23,1.32-.08,2.49-.92,3.5s-2.52,1.73-5.03,2.17c-3.06.54-5.54.25-7.44-.85-1.9-1.1-3.12-3.22-3.67-6.36l-3.9-22.35c.36-.17.89-.38,1.59-.63.69-.25,1.44-.44,2.24-.58,1.53-.27,2.77-.2,3.72.19.95.39,1.57,1.46,1.88,3.2l.58,3.34,6.84-1.19c.28.35.56.79.85,1.33.29.54.5,1.16.62,1.86.21,1.22.1,2.15-.35,2.78-.44.63-1.12,1.03-2.03,1.19l-4.75.83,1.38,7.89Z"/><path d="M333.94,209.01c-.33.17-.86.36-1.59.6-.73.24-1.5.42-2.3.56-.77.13-1.46.2-2.09.2-.63,0-1.18-.12-1.65-.36s-.87-.61-1.19-1.11c-.32-.5-.56-1.19-.71-2.06l-2.02-11.59c-.25-1.43-.78-2.37-1.6-2.82-.81-.45-1.74-.58-2.79-.4-.7.12-1.34.32-1.94.61-.6.28-1.07.58-1.4.89l3.19,18.28c-.33.17-.86.37-1.59.6-.73.24-1.5.42-2.3.56-.77.13-1.46.2-2.09.2-.63,0-1.18-.12-1.65-.36-.47-.24-.87-.61-1.19-1.11-.32-.5-.56-1.19-.71-2.06l-5.29-30.29c.37-.13.92-.33,1.65-.58.73-.25,1.47-.45,2.24-.58.77-.13,1.46-.2,2.09-.2.63,0,1.18.12,1.65.36.47.24.87.61,1.19,1.11.32.5.56,1.19.71,2.06l.89,5.12c.42-.25,1.07-.57,1.96-.96s1.88-.68,3-.87c3.45-.6,6.29-.21,8.52,1.18,2.23,1.39,3.65,3.78,4.24,7.2l2.76,15.82Z"/><path d="M353,206.6c-2.06.36-4.01.41-5.87.14-1.86-.27-3.54-.86-5.05-1.78-1.51-.92-2.79-2.19-3.84-3.8s-1.78-3.58-2.19-5.91c-.4-2.3-.37-4.34.09-6.12.46-1.78,1.21-3.31,2.24-4.59,1.03-1.27,2.29-2.3,3.77-3.08,1.48-.78,3.04-1.31,4.67-1.6,1.85-.32,3.58-.34,5.19-.04,1.61.29,3.05.83,4.32,1.62,1.27.78,2.32,1.8,3.17,3.05.85,1.25,1.41,2.68,1.69,4.28.21,1.18.03,2.15-.52,2.89-.55.74-1.41,1.3-2.56,1.68l-12.56,4.19c.58,1.08,1.52,1.81,2.8,2.17,1.28.37,2.69.42,4.22.15,1.43-.25,2.75-.67,3.95-1.25,1.21-.59,2.17-1.19,2.88-1.82.62.25,1.17.66,1.66,1.22.49.56.8,1.19.92,1.88.27,1.57-.26,2.86-1.58,3.88-1.01.79-2.19,1.4-3.55,1.86s-2.64.78-3.86,1ZM347.95,186.33c-.84.15-1.53.41-2.09.8-.56.39-1,.83-1.3,1.33-.31.5-.51,1.04-.6,1.61-.1.57-.12,1.14-.05,1.7l8.68-3.02c-.22-.68-.73-1.31-1.51-1.89-.78-.58-1.82-.76-3.11-.53Z"/><path d="M63.23,56.5c-9.58,0-16.91,2.92-22.01,8.77-5.1,5.85-7.65,14.11-7.65,24.81s2.83,19.15,8.49,24.99c5.66,5.85,13.27,8.77,22.85,8.77,5.1,0,9.42-.68,12.96-2.05,3.54-1.37,6.93-2.92,10.16-4.66,2.11,1.74,3.76,3.82,4.94,6.25,1.18,2.42,1.77,5.25,1.77,8.49,0,5.1-2.83,9.42-8.49,12.96-5.66,3.54-14.27,5.32-25.83,5.32-8.33,0-16.16-1.18-23.5-3.54-7.34-2.36-13.74-6-19.21-10.91-5.47-4.91-9.79-11.13-12.96-18.65-3.17-7.52-4.76-16.51-4.76-26.95,0-9.7,1.52-18.25,4.57-25.64,3.05-7.4,7.21-13.64,12.5-18.74,5.28-5.1,11.47-8.95,18.56-11.56,7.09-2.61,14.67-3.92,22.75-3.92,11.44,0,20.3,1.87,26.58,5.59,6.28,3.73,9.42,8.52,9.42,14.36,0,3.23-.81,6.03-2.42,8.39-1.62,2.36-3.48,4.23-5.6,5.59-3.23-2.11-6.68-3.92-10.35-5.41-3.67-1.49-7.93-2.24-12.78-2.24Z"/><path d="M199.19,146.59c-1.24.37-3.2.75-5.88,1.12-2.68.37-5.44.56-8.3.56s-5.19-.19-7.37-.56c-2.18-.37-4.01-1.12-5.5-2.24-1.49-1.12-2.64-2.64-3.45-4.57-.81-1.93-1.21-4.44-1.21-7.55v-41.4c0-5.1-1.28-8.67-3.82-10.72-2.55-2.05-5.69-3.08-9.42-3.08-2.49,0-4.85.31-7.09.93-2.24.62-4.04,1.37-5.41,2.24v65.28c-1.24.37-3.2.75-5.88,1.12-2.68.37-5.44.56-8.3.56s-5.19-.19-7.37-.56c-2.18-.37-4.01-1.12-5.5-2.24-1.49-1.12-2.64-2.64-3.45-4.57-.81-1.93-1.21-4.44-1.21-7.55V25.17c1.37-.25,3.39-.59,6.06-1.03,2.67-.43,5.38-.65,8.11-.65s5.19.19,7.37.56c2.17.37,4.01,1.12,5.5,2.24s2.64,2.64,3.45,4.57c.81,1.93,1.21,4.45,1.21,7.55v18.28c1.61-.62,4.07-1.33,7.37-2.14,3.29-.81,6.93-1.21,10.91-1.21,12.31,0,21.91,3.08,28.81,9.23s10.35,15.33,10.35,27.51v56.51Z"/><path d="M266.7,149.76c-7.34,0-14.15-1.03-20.42-3.08-6.28-2.05-11.75-5.13-16.41-9.23-4.66-4.1-8.33-9.26-11-15.48-2.68-6.22-4.01-13.49-4.01-21.82s1.33-15.26,4.01-21.17c2.67-5.9,6.18-10.75,10.54-14.55,4.35-3.79,9.33-6.59,14.92-8.39,5.6-1.8,11.31-2.7,17.16-2.7,6.59,0,12.59,1,18,2.98,5.41,1.99,10.07,4.73,13.99,8.21,3.92,3.48,6.96,7.65,9.14,12.5,2.17,4.85,3.26,10.14,3.26,15.85,0,4.23-1.18,7.46-3.54,9.7-2.36,2.24-5.66,3.67-9.88,4.29l-46.07,6.9c1.37,4.1,4.16,7.18,8.39,9.23,4.23,2.05,9.07,3.08,14.55,3.08,5.1,0,9.91-.65,14.45-1.96,4.54-1.31,8.24-2.83,11.1-4.57,1.99,1.24,3.67,2.98,5.04,5.22,1.37,2.24,2.05,4.6,2.05,7.09,0,5.6-2.61,9.76-7.83,12.5-3.98,2.12-8.46,3.54-13.43,4.29-4.97.75-9.64,1.12-13.99,1.12ZM261.48,76.46c-2.98,0-5.57.5-7.74,1.49-2.18,1-3.95,2.27-5.32,3.82-1.37,1.56-2.4,3.3-3.08,5.22-.68,1.93-1.09,3.89-1.21,5.87l31.89-5.22c-.37-2.49-1.74-4.97-4.1-7.46-2.36-2.49-5.85-3.73-10.44-3.73Z"/><path d="M397.62,119.73c0,9.45-3.54,16.85-10.63,22.19-7.09,5.35-17.53,8.02-31.33,8.02-5.22,0-10.07-.37-14.55-1.12s-8.3-1.9-11.47-3.45c-3.17-1.55-5.66-3.51-7.46-5.88-1.8-2.36-2.7-5.16-2.7-8.39,0-2.98.62-5.5,1.86-7.55,1.24-2.05,2.73-3.76,4.48-5.13,3.61,1.99,7.74,3.76,12.4,5.32,4.66,1.56,10.04,2.33,16.13,2.33,3.85,0,6.81-.56,8.86-1.68s3.08-2.61,3.08-4.48c0-1.74-.75-3.11-2.24-4.1-1.49-.99-3.98-1.8-7.46-2.42l-5.59-1.12c-10.82-2.11-18.87-5.44-24.15-9.98-5.29-4.54-7.93-11.03-7.93-19.49,0-4.6.99-8.77,2.98-12.5,1.99-3.73,4.79-6.84,8.39-9.33,3.6-2.49,7.93-4.41,12.96-5.78,5.04-1.37,10.6-2.05,16.69-2.05,4.6,0,8.92.34,12.96,1.03,4.04.69,7.55,1.71,10.54,3.08,2.98,1.37,5.34,3.14,7.09,5.32,1.74,2.18,2.61,4.76,2.61,7.74s-.53,5.32-1.59,7.37c-1.06,2.05-2.39,3.76-4.01,5.13-1-.62-2.49-1.27-4.48-1.96-1.99-.68-4.17-1.31-6.53-1.86-2.36-.56-4.76-1.03-7.18-1.4-2.42-.37-4.63-.56-6.62-.56-4.1,0-7.27.47-9.51,1.4-2.24.93-3.36,2.4-3.36,4.38,0,1.37.62,2.49,1.87,3.36,1.24.87,3.6,1.68,7.09,2.42l5.78,1.31c11.94,2.74,20.42,6.5,25.46,11.28,5.04,4.79,7.55,10.97,7.55,18.56Z"/><path d="M461.79,149.76c-7.34,0-14.15-1.03-20.42-3.08-6.28-2.05-11.75-5.13-16.41-9.23-4.66-4.1-8.33-9.26-11-15.48-2.68-6.22-4.01-13.49-4.01-21.82s1.33-15.26,4.01-21.17c2.67-5.9,6.18-10.75,10.54-14.55,4.35-3.79,9.33-6.59,14.92-8.39,5.6-1.8,11.31-2.7,17.16-2.7,6.59,0,12.59,1,18,2.98,5.41,1.99,10.07,4.73,13.99,8.21,3.92,3.48,6.96,7.65,9.14,12.5,2.17,4.85,3.26,10.14,3.26,15.85,0,4.23-1.18,7.46-3.54,9.7-2.36,2.24-5.66,3.67-9.89,4.29l-46.07,6.9c1.37,4.1,4.16,7.18,8.39,9.23,4.23,2.05,9.07,3.08,14.55,3.08,5.1,0,9.91-.65,14.45-1.96,4.54-1.31,8.23-2.83,11.1-4.57,1.99,1.24,3.67,2.98,5.04,5.22,1.37,2.24,2.05,4.6,2.05,7.09,0,5.6-2.61,9.76-7.83,12.5-3.98,2.12-8.46,3.54-13.43,4.29-4.97.75-9.64,1.12-13.99,1.12ZM456.56,76.46c-2.98,0-5.57.5-7.74,1.49-2.18,1-3.95,2.27-5.32,3.82-1.37,1.56-2.4,3.3-3.08,5.22-.69,1.93-1.09,3.89-1.21,5.87l31.89-5.22c-.37-2.49-1.74-4.97-4.1-7.46-2.36-2.49-5.85-3.73-10.44-3.73Z"/><path d="M512.33,101.45c0-8.21,1.24-15.32,3.73-21.35,2.49-6.03,5.94-11.03,10.35-15.01,4.41-3.98,9.57-6.93,15.48-8.86,5.9-1.93,12.28-2.89,19.12-2.89,2.49,0,4.91.22,7.27.65,2.36.44,4.29.96,5.78,1.59v-30.21c1.24-.37,3.23-.78,5.97-1.21,2.73-.43,5.53-.65,8.39-.65s5.19.19,7.37.56c2.17.37,4.01,1.12,5.5,2.24s2.61,2.64,3.36,4.57c.75,1.93,1.12,4.45,1.12,7.55v88.4c0,5.85-2.74,10.51-8.21,13.99-3.61,2.36-8.27,4.45-13.99,6.25-5.72,1.8-12.31,2.7-19.77,2.7-8.08,0-15.33-1.12-21.73-3.36-6.41-2.24-11.81-5.47-16.23-9.7-4.42-4.23-7.77-9.29-10.07-15.2-2.3-5.9-3.45-12.59-3.45-20.05ZM565.29,78.14c-6.71,0-11.87,1.93-15.48,5.78-3.61,3.86-5.41,9.7-5.41,17.53s1.68,13.52,5.04,17.44c3.36,3.92,8.21,5.88,14.55,5.88,2.24,0,4.26-.34,6.06-1.03,1.8-.68,3.2-1.46,4.2-2.33v-41.03c-2.49-1.49-5.47-2.24-8.95-2.24Z"/><path d="M365.22,2.42c2,0,3.46.73,4.32,2.2.93,1.4,1.33,3.13,1.13,5.06-.13,1.93-1.06,3.19-2.66,3.79-.27.33-.4.8-.4,1.33.6,4.59.93,8.18,1.13,10.71.13,2.46.13,4.06-.07,4.79s-.73,1.8-1.66,3.33c-.93,1.46-1.73,2.26-2.26,2.33s-.73-.33-.6-1c.2-1,.13-4.59-.33-10.64-.4-6.12-.53-9.78-.33-10.98s-.07-1.8-.86-1.8h-15.23c-1.4,0-2.53-.4-3.39-1.26s-1.26-2.2-1.2-3.93.47-3.26,1.13-4.46c.67-1.26,1.26-1.86,1.66-1.73.2.07.4.27.53.6s.47.67.93,1.06,1.06.6,1.66.6h16.5ZM375.73,35.22c-.47-.86-.93-2.66-1.26-5.39-.4-2.73-.8-6.52-1.06-11.24,0-1.6.4-3.13,1.2-4.46.73-1.33,1.26-2.2,1.46-2.59h-.93c-1-.33-1.8-.8-2.33-1.6-.53-.73-.73-2-.6-3.66.2-1.73.6-3.19,1.2-4.39.67-1.26,1.2-1.86,1.6-1.73.27.07.4.27.53.6s.47.67.93,1.06,1.06.6,1.66.6h14.37c1.8.13,3.33,1,4.59,2.53s2.13,4.06,2.59,7.52c.47,3.39.67,6.25.6,8.45,0,2.2-1.2,5.19-3.59,8.98s-7.78,5.99-16.17,6.59c-2.73,0-4.32-.4-4.79-1.26ZM379.39,27.03c.67.27,3.13.2,7.32-.33,4.26-.47,6.99-.93,8.18-1.46,1.26-.53,2-.93,2.26-1.2.33-.27.33-.93.2-2.06-.67-4.19-1.4-7.05-2.2-8.38-.8-1.4-1.8-2.06-2.93-2.06h-13.44c-.8.07-1.33,1-1.53,2.79s-.07,4.26.4,7.45,1.06,4.92,1.73,5.26ZM426.23,2.42c2,0,3.46.73,4.39,2.2.93,1.4,1.26,3.13,1.13,5.06-.2,1.93-1.06,3.19-2.66,3.79-.33.33-.47.8-.4,1.33.53,4.59.93,8.18,1.06,10.71.2,2.46.13,4.06-.07,4.79s-.73,1.8-1.66,3.33c-.93,1.46-1.66,2.26-2.2,2.33s-.73-.33-.67-1c.27-1,.13-4.59-.27-10.64-.47-6.12-.53-9.78-.33-10.98s-.13-1.8-.93-1.8h-14.7c-.67.07-1,.53-1,1.46-.07.93-.07,3.79.13,8.65.13,4.86.2,7.65.07,8.25s-.47,1.4-1,2.26c-.53.93-1.13,1.8-1.93,2.73-.8,1.13-1.33,1.2-1.6.13-.2-1-.4-5.26-.47-12.77,0-2.06.33-4.06,1.06-5.99.8-1.93,1.53-3.53,2.26-4.72h-1.33c-1.2-.2-2-.67-2.46-1.53-.47-.8-.6-2.06-.47-3.73.13-1.73.53-3.19,1.2-4.39.67-1.26,1.2-1.86,1.6-1.73.2.07.4.27.53.6s.47.67.93,1.06,1.06.6,1.66.6h18.1ZM451.64,24.24c-.6.53-.93.33-1-.6s.13-1.73.53-2.39c1.2-3.19,1.66-4.99,1.33-5.46-.33-.4-1.4-1.26-3.19-2.53-2.39-1.53-3.59-3.26-3.73-5.12-.07-1.93.4-3.66,1.46-5.19,1-1.6,1.86-2.53,2.53-2.79.8-.33,1.13-.13,1.13.6-.07.73.33,1.53,1.13,2.26.93.53,2.26,1.6,3.93,3.13,1.53,1.13,2.2,2.53,1.93,4.19-.2,1.66-.8,3.73-1.73,6.12-.93,2.46-2.39,5.06-4.32,7.78ZM480.92,26.5c.86,0,1.26-.4,1.26-1.26,0-3.39-.2-6.59-.73-9.51-.53-2.99-1.53-4.39-2.99-4.19h-15.1c-1.13-.2-2-.67-2.46-1.53-.47-.8-.6-2.06-.47-3.73.2-1.73.6-3.19,1.2-4.39.67-1.26,1.2-1.86,1.6-1.73.27.07.4.27.53.6.2.33.47.67.93,1.06.53.4,1.06.6,1.66.6h10.25c1.86-.13,3.59.6,5.12,2.13,1.6,1.53,2.59,4.32,3.13,8.38.53,4.12.67,7.38.53,9.78-.13,2.46-.27,4.12-.47,5.12-.2.93-1,2.46-2.46,4.46-1.4,2.06-3.26,3.13-5.52,3.26l-14.7.33c-2.26,0-3.26-.33-2.99-1.06,1.8-3.73,2.99-5.92,3.73-6.72s2.06-1.2,3.99-1.26l13.97-.33ZM511.52,27.5c0,1.93-.53,3.79-1.53,5.59-1.06,1.8-1.73,2.79-2.2,2.86-.47-.07-.67-.53-.73-1.46.33-2.53.4-5.26.27-8.25-.07-3.06-.33-6.65-.6-10.78-.2-2.53-1.13-3.86-2.79-3.93h-13.44c-1.2,0-2.13-.4-2.73-1.26-.6-.93-.8-2.2-.73-3.93.13-1.73.47-3.26,1.13-4.46.6-1.26,1.13-1.86,1.6-1.73.2.07.4.27.53.6s.47.67.93,1.06,1,.6,1.66.6h10.11c2.33.13,3.99.67,5.12,1.53s1.86,2.46,2.33,4.72c.93,5.85,1.33,12.17,1.06,18.83ZM535.87,2.42c2,0,3.46.73,4.32,2.2.93,1.4,1.33,3.13,1.13,5.06-.13,1.93-1.06,3.19-2.66,3.79-.27.33-.4.8-.4,1.33.6,4.59.93,8.18,1.13,10.71.13,2.46.13,4.06-.07,4.79s-.73,1.8-1.66,3.33c-.93,1.46-1.73,2.26-2.26,2.33s-.73-.33-.6-1c.2-1,.13-4.59-.33-10.64-.4-6.12-.53-9.78-.33-10.98s-.07-1.8-.86-1.8h-15.23c-1.4,0-2.53-.4-3.39-1.26s-1.26-2.2-1.2-3.93.47-3.26,1.13-4.46c.67-1.26,1.26-1.86,1.66-1.73.2.07.4.27.53.6s.47.67.93,1.06,1.06.6,1.66.6h16.5Z" fill="#ff0009"/><path d="M55.57,204.17c2.4-2.62,4.75-5.18,8.27-9.01,1.82,4.81,3.17,8.53,4.62,12.21,15.15,38.55,51.75,57.51,91.33,47.14,13.16-3.44,24.14-9.76,29.12-23.56,4.53-12.56,1.93-21.57-8.94-29.62-17.96-13.3-35.77-13.55-53.71-.81-1.64,1.16-3.47,2.04-6.78,3.96-1.12-4.04-2.21-7.07-2.78-10.19-3.78-20.78-22.14-35.28-43.28-34.01-11.92.71-19.22,7.56-24.05,17.92-21.59,46.25,11.56,103.18,64.49,110.09,65.37,8.54,193.29-43.3,253.96-78.28-.22,2.17-.33,4.42-.33,6.74,0,8.45,1.46,15.87,4.39,22.26,2.92,6.39,6.9,11.72,11.94,16l.27.22c-71.73,25.61-286.3,96.1-335.51,18.92-21-32.94-19.06-82.72,4.37-113.99,13.33-17.79,31.35-23.5,49-15.79,10.19,4.45,15.99,12.56,19.18,22.65,2.09,6.61,3.2,13.53,4.91,21.03,6.21-3.98,11.82-8.11,17.89-11.37,14.42-7.75,28.46-6.89,41.64,3.1,12.29,9.32,15.71,21.99,13.49,36.66-5.71,37.76-37.39,63.07-75.66,60.5-36.4-2.44-67.04-34.78-67.84-72.74" fill="#ff0009"/><path d="M474.46,241.25c0,3.36-.6,5.85-1.79,7.47-1.19,1.63-3.09,3.2-5.69,4.71-1.52.87-3.41,1.71-5.69,2.52-2.27.81-4.77,1.51-7.47,2.11-2.71.59-5.55,1.06-8.53,1.38-2.98.32-5.93.49-8.85.49-7.8,0-15.11-1.06-21.93-3.17-6.82-2.11-12.75-5.31-17.79-9.59-5.04-4.28-9.02-9.61-11.94-16-2.92-6.39-4.39-13.81-4.39-22.26,0-8.88,1.6-16.62,4.79-23.23,3.19-6.61,7.42-12.1,12.67-16.49,5.25-4.39,11.26-7.66,18.03-9.83,6.77-2.17,13.73-3.25,20.88-3.25,10.29,0,18.44,1.65,24.45,4.95,6.01,3.31,9.02,7.61,9.02,12.92,0,2.82-.71,5.25-2.11,7.31-1.41,2.06-3.03,3.68-4.87,4.87-2.71-1.62-6.09-3.22-10.15-4.79-4.06-1.57-8.64-2.36-13.73-2.36-9.1,0-16.33,2.6-21.69,7.8s-8.04,12.4-8.04,21.61c0,4.98.73,9.29,2.19,12.92,1.46,3.63,3.44,6.61,5.93,8.93,2.49,2.33,5.36,4.06,8.61,5.2s6.71,1.71,10.4,1.71c2.38,0,4.49-.22,6.34-.65,1.84-.43,3.25-.92,4.22-1.46v-15.27h-17.38c-.65-1.19-1.27-2.76-1.87-4.71-.6-1.95-.89-4.01-.89-6.17,0-3.9.89-6.71,2.68-8.45,1.79-1.73,4.09-2.6,6.91-2.6h27.45c3.25,0,5.77.89,7.55,2.68s2.68,4.3,2.68,7.55v33.14Z"/><path d="M572.75,217.85c0,6.72-1.03,12.7-3.09,17.95-2.06,5.25-4.96,9.67-8.69,13.24-3.74,3.57-8.2,6.28-13.4,8.12-5.2,1.84-10.99,2.76-17.38,2.76s-12.18-.97-17.38-2.92c-5.2-1.95-9.67-4.74-13.4-8.37-3.74-3.63-6.63-8.04-8.69-13.24-2.06-5.2-3.09-11.05-3.09-17.54s1.03-12.18,3.09-17.38c2.06-5.2,4.96-9.61,8.69-13.24,3.74-3.63,8.2-6.42,13.4-8.37,5.2-1.95,10.99-2.92,17.38-2.92s12.18,1,17.38,3c5.2,2.01,9.67,4.82,13.4,8.45,3.74,3.63,6.63,8.04,8.69,13.24,2.06,5.2,3.09,10.94,3.09,17.22ZM515.89,217.85c0,6.61,1.27,11.67,3.82,15.19,2.54,3.52,6.09,5.28,10.64,5.28s8.04-1.79,10.48-5.36c2.44-3.57,3.66-8.61,3.66-15.11s-1.25-11.51-3.74-15.03c-2.49-3.52-6.01-5.28-10.56-5.28s-8.07,1.76-10.56,5.28c-2.49,3.52-3.74,8.53-3.74,15.03Z"/><polygon points="327 252.5 357.41 239.74 358.86 243.63 328.19 255.82 327 252.5" fill="#fff" fill-rule="evenodd"/><polygon points="286.64 268.22 317.47 256.35 318.54 259.39 287.29 270.26 286.64 268.22" fill="#fff" fill-rule="evenodd"/><polygon points="245.43 282.12 276.94 271.74 277.47 273.47 245.68 283.1 245.43 282.12" fill="#fff" fill-rule="evenodd"/><polygon points="203.46 291.44 235.48 284.95 235.67 285.81 203.46 292.19 203.46 291.44" fill="#fff" fill-rule="evenodd"/></svg>