<?xml version="1.0" encoding="UTF-8"?><svg id="a" xmlns="http://www.w3.org/2000/svg" viewBox="0 0 111.91 107.67"><path d="M108.72,70.37c-3.98,4.17-22,22.12-51.63,22.12S3.79,62.97,3.79,38.12c0-14.79,8.54-22.57,24.47-22.57,20.48,0,25.8,18.02,25.8,18.02h3.79s5.69-18.4,25.8-18.4c17.45,0,24.47,6.07,24.47,19.54,0,18.68-26.93,34.72-52.16,32.55-15.5-1.33-30.36-13.5-37.93-24.4l-3.03,8.72c5.9,15.57,25.47,28.79,40.97,30.75,27.71,3.51,55.95-18.19,55.95-47.63C111.91,12.33,102.23,0,83.64,0c-15.17,0-24.09,15.74-27.69,24.09C52.35,15.93,43.62.38,28.26.38,11,.38,0,15.55,0,38.12c0,40.21,28.72,69.54,57.09,69.54,19.35,0,41.39-13.21,54.28-27.06l-2.66-10.24Z" fill="#ea0029"/></svg>